<?xml version="1.0" encoding="utf-8"?>
<!-- Generator: Adobe Illustrator 23.0.0, SVG Export Plug-In . SVG Version: 6.00 Build 0)  -->
<svg version="1.1" id="Layer_1" xmlns="http://www.w3.org/2000/svg" xmlns:xlink="http://www.w3.org/1999/xlink" x="0px" y="0px"
	 viewBox="0 0 654.9 282.6" style="enable-background:new 0 0 654.9 282.6;" xml:space="preserve">
<style type="text/css">
	.st0{fill:#ED1C24;}
	.st1{fill:#FFFFFF;}
</style>
<title>Asset 1</title>
<g>
	<g id="Layer_1-2">
		<path d="M336.5,152.4l0.1,0.3c0.2,5.5-2,10.7-6,14.4c-4.1,3.9-9.6,5.8-16.4,5.8c-6.5,0.2-12.7-2.5-16.9-7.4
			c-4.3-4.9-6.5-11.1-6.5-18.6v-10.9c0-7.5,2.2-13.8,6.5-18.7c4.2-4.9,10.5-7.6,16.9-7.4c6.9,0,12.4,1.8,16.5,5.5s6.1,8.6,6,14.6
			l-0.1,0.3h-7.9c0-4.3-1.3-7.7-3.8-10.2s-6.1-3.7-10.7-3.7c-4.4-0.2-8.6,2-11.1,5.6c-2.7,3.7-4.1,8.4-4.1,13.9v11
			c0,5.6,1.4,10.2,4.1,13.9c2.5,3.6,6.7,5.7,11,5.6c4.6,0,8.1-1.3,10.7-3.7s3.8-5.9,3.8-10.3L336.5,152.4z"/>
		<path d="M394,146.8c0,7.5-2.3,13.7-7,18.6s-10.7,7.4-18,7.4c-7.1,0-12.9-2.5-17.4-7.4c-4.5-4.9-6.7-11.1-6.7-18.6v-10.9
			c0-7.4,2.2-13.7,6.7-18.6c4.5-5,10.3-7.4,17.4-7.4c7.4,0,13.4,2.5,18,7.4s7,11.2,7,18.6V146.8z M385.7,135.8
			c0-5.6-1.5-10.2-4.5-13.8c-3-3.6-7.5-5.6-12.2-5.4c-4.5-0.2-8.8,1.8-11.5,5.4c-2.9,3.6-4.3,8.2-4.3,13.8v11
			c0,5.7,1.4,10.3,4.3,13.9c2.8,3.5,7.1,5.5,11.5,5.4c5.1,0,9.2-1.8,12.2-5.4c3-3.6,4.5-8.2,4.5-13.9L385.7,135.8z"/>
		<path d="M423.6,155.9l1.4,5.1h0.3l1.4-5.1l15.8-45.1h8.9L428.7,172h-7.1l-22.7-61.2h9L423.6,155.9z"/>
		<path d="M492.8,143.6h-25.1v21.9h29.4v6.5h-37.7v-61.2h37.2v6.5h-28.9v19.8h25.1V143.6z"/>
		<path d="M515.2,145.4v26.5h-8.3v-61.1h20.9c6.7,0,11.8,1.5,15.3,4.4c3.6,3,5.3,7.3,5.3,12.9c0.1,2.9-0.8,5.8-2.4,8.2
			c-1.8,2.5-4.3,4.4-7.2,5.5c3,0.8,5.6,2.7,7.2,5.3c1.6,2.8,2.3,5.9,2.2,9.1v5.8c0,1.7,0.2,3.5,0.6,5.1c0.4,1.4,1.1,2.7,2.2,3.7v1
			h-8.5c-1.2-1.1-1.9-2.6-2.1-4.2c-0.3-1.9-0.5-3.8-0.5-5.7v-5.6c0.1-2.9-0.9-5.8-2.9-8c-2-2-4.9-3.1-7.8-3L515.2,145.4z
			 M515.2,138.9H527c4.7,0,8-0.9,10.1-2.7s3.1-4.5,3.1-8.1c0-3.4-1-6.1-3-8s-5.1-2.8-9.3-2.8h-12.7V138.9z"/>
		<path d="M595,143.6h-25.1v21.9h29.4v6.5h-37.7v-61.2h37.2v6.5h-28.9v19.8H595V143.6z"/>
		<path d="M609.1,171.9v-61.1h19.2c8,0,14.4,2.5,19.3,7.4c4.8,4.9,7.3,11.2,7.3,19v8.4c0,7.8-2.4,14.2-7.3,19
			c-4.9,4.8-11.3,7.3-19.3,7.3L609.1,171.9z M617.4,117.3v48.2h11c5.7,0,10.1-1.9,13.4-5.6s4.9-8.5,4.9-14.3v-8.4
			c0-5.8-1.6-10.5-4.9-14.2c-3.3-3.7-7.7-5.6-13.4-5.6H617.4z"/>
		<path class="st0" d="M11.3,84.4l-0.1,0.1c-0.1,0.3-0.2,0.6-0.3,0.8C11.1,85,11.2,84.7,11.3,84.4z"/>
		<path class="st0" d="M17.5,72.6l-0.1,0.1l0.1-0.2C17.6,72.5,17.6,72.5,17.5,72.6z"/>
		<path class="st0" d="M24.4,200.2c0.4,0.6,0.8,1.1,1,1.4c0-0.1,0-0.1,0-0.1C25.1,201.1,24.7,200.7,24.4,200.2z"/>
		<path class="st0" d="M15.7,76.1c0.6-1.2,1.2-2.4,1.7-3.5C16.8,73.8,16.2,74.9,15.7,76.1z"/>
		<path class="st0" d="M211,260L211,260l-0.6,0.4C210.6,260.3,210.8,260.1,211,260z"/>
		<path class="st0" d="M204.4,260.8c0,0-0.1,0-0.1,0l-0.7,0.4C203.8,261.2,204.1,261,204.4,260.8z"/>
		<path class="st0" d="M259.1,60.3C259.1,60.3,259.1,60.3,259.1,60.3c0.1,0.3,0.2,0.5,0.4,0.6C259.4,60.7,259.3,60.5,259.1,60.3z"/>
		<path class="st0" d="M259.8,67.2c0,0,0,0.1,0,0.1l0.4,0.7C260.2,67.7,260,67.4,259.8,67.2z"/>
		<path class="st0" d="M109.2,6.9H109l-0.7,0.3C108.6,7.1,108.9,7,109.2,6.9z"/>
		<path class="st0" d="M202.8,16.8l-0.1-0.1l-0.7-0.3C202.2,16.6,202.5,16.7,202.8,16.8z"/>
		<path class="st0" d="M117.7,4.7c1.2-0.3,2.4-0.7,3.5-1C120,3.9,118.8,4.2,117.7,4.7z"/>
		<path class="st0" d="M121.3,3.7h-0.1c0.1,0,0.2,0,0.3,0C121.4,3.7,121.4,3.7,121.3,3.7z"/>
		<path class="st0" d="M22.6,222.3c0,0,0-0.1,0-0.1c-0.1-0.2-0.2-0.4-0.4-0.5C22.5,222.1,22.4,222,22.6,222.3z"/>
		<path class="st0" d="M21.9,215.4c0,0,0-0.1,0-0.1l-0.4-0.7C21.6,214.9,21.7,215.1,21.9,215.4z"/>
		<path class="st0" d="M79,265.8L79,265.8l0.8,0.3C79.5,266,79.3,265.9,79,265.8z"/>
		<path class="st0" d="M267.5,208.8c1-1.3,2.3-5.3,3.2-7.4c-0.2,1-1.8,5.4-2.5,7.2c0.2-0.3,0.4-0.7,0.5-1c0.8-2.1,1.7-4.3,2.5-6.5
			l1.1-2.9l0.9-3l1.9-6.3c0.8-3.4,1.3-6.8,1.9-10.1c0.4-2.6,0.5-5.2,0.8-7.8c0.1-1.3,0.3-2.6,0.4-3.8s0.1-2.5,0.2-3.6
			c0.1-0.9,0.1-1.7,0.2-2.6c0.1-1.7,0-3.5-0.1-5.2c-0.5-4.7-0.9-10.4-2.2-14.7c0.9-5.7,1.4-11.4,1.5-17.2c0-0.6,0.1-1.6,0.1-2
			c0-2-0.1-4-0.3-6l-0.6-7.1c0-0.3,0-0.6,0-0.9c-0.5-3.7-1.5-9.3-2.4-12.9c-0.5-1.9-1-4-1.5-5.8c-0.1-0.3-0.2-0.6-0.3-0.8l-0.4-1.4
			c-0.7-3.4-2.3-6.5-3.4-9.7c-0.7-1.7-1.3-3.5-2-5.2l-2.4-5l-2.4-4.9c-0.8-1.6-1.9-3.2-2.8-4.8c0.8,1.6,2.1,3.5,2.8,5.2
			c0.3,0.8,1.6,3.7,1.5,3.8c-0.4-0.6-0.8-1.3-1.2-2c-0.8-1.6-1.7-3.2-2.8-4.8c-2.2-3.5-4.6-7.3-5.3-8.3c0,0.1,0,0.1,0,0.1
			c1.3,1.9,2.4,3.9,3.4,6c1.5,2.2,2.8,4.5,3.9,6.9l1.6,3.2c-1.5-2.2,3.4,7.3,3.6,8.9c0.4,1.2,1.5,4.7,0.6,2.7
			c-1-2.3-2.2-6.5-3.4-8.7l-2.8-5.5c-0.3-0.6-0.7-1.5-1.1-2.3s-0.9-1.6-1.1-2.1c-1.4-2.2-3.4-5.6-4.8-7.9c-0.9-1.5-2-2.8-2.9-4.2
			c-1.3-1.8-2.6-3.3-3.8-4.9c0.4,0.8,5.4,7.4,2.4,3.8c0.6,0.8,1.5,2.1,1.9,2.8c0.3,0.5,0.3,0.6,0.5,1c0.7,0.8,3.4,5.5,2.5,4.4
			c0.5,1.3,2.6,4.4,3.6,6.2c-0.6-0.7-2.8-4.2-3.8-5.6c0.2,0.4,0.2,0.3,0.5,0.8l3.2,5.2c1,1.6,1.7,3.3,2.5,5c0.4,0.8,0.7,1.4,1,2.1
			c-2.5-5.4-6.9-11.9-7.8-13.6c0,0,0,0.1,0,0.1c0.8,1.1,1.6,2.5,2.4,3.9c-0.3-0.5-0.6-1-0.9-1.5c-1.1-1.7-2.6-3.9-3.7-5.5
			c-0.7-0.9-1.6-1.8-2.3-2.6c0.9,1.2,1.8,2.3,2.6,3.5s1.5,2.5,2.2,3.7c1.4,2.5,3,4.8,4.1,7.2c1.4,3,2.8,5.8,3.6,8.2l0,0
			c-0.8-1.6-1.9-3.9-2.3-5c-1.4-3-4-7.5-5.8-10.4c-1.1-1.9-2.2-3.8-3.5-5.6c-1.7-2.3-3.3-4.3-4.9-6.4c0.5,1,6.9,9.5,3,4.8
			c0.7,1,1.9,2.7,2.4,3.5c0.2,0.4,0.4,0.9,0.6,1.3c0.6,1.3,4.2,7.1,3,5.8c0.6,1.3,1.3,2.5,2,3.7c0.8,1.6,1.6,3.2,2.1,4.4
			c-0.7-1.2-1.3-2.4-1.8-3.6c-0.8-1.4-1.6-2.7-2.5-4c0.3,0.5,0.3,0.5,0.6,1.1c1.4,2.2,2.6,4.5,3.7,6.9c1,2.2,2.1,4.3,3,6.5
			c0.9,2.5,1.6,4.5,2.5,7c1.3,3.7,2.5,7.4,3.4,11.2l0.4,1.3l0,0c0,1.3,0.1,2.7,0.3,4c0.2,1.8,0.5,3.7,0.8,5.5L269,104
			c-0.3-1.6-0.6-3.2-0.8-4.8c-1-4.9-2.4-9.5-3-13.2c0.1,0.8-0.5-0.6-0.8-1.4c0.7,1.9,1.2,3.9,1.4,5.9c0.3,2.6,1,4.2,1.8,7.9
			c0.2,1,0.4,2.1,0.5,3.1c-0.5-1.3-1-2.7-1.6-4l-0.5-1.1c-0.4-1.3-0.8-2.6-1.1-3.4c-0.2-0.6-0.1,0-0.4-0.9c0.3,0.9,0.5,1.8,0.8,2.8
			l-0.7-1.4l-0.8-1.7l-0.9-4.2c0-0.5-1-2.7-1.3-3.8c-0.2-0.5-1-3.3-1.1-3.6c0-0.7,2.4,5.1,2.9,6c-0.3-1.3-1.4-4.4-1.9-6l-1.5-4.5
			l-2-4.4c-0.9-2.1-2-4.3-3.1-6.5c-2.1-3.5-3.6-6.2-5.5-9.6c-1-1.5-2-2.9-2.8-4.3c-0.3-0.5-0.6-1-0.9-1.5c-1.1-1.7-2.4-3.3-3.7-4.8
			l-4.2-4.5c-1.3-1.3-2.5-2.9-3.8-4.1l-4.9-4c-0.9-0.7-1.9-1.4-2.6-2l6.2,5.5c1.9,1.8,3.7,3.8,5.4,5.8c2.1,2.4,4.2,4.5,5.4,6.7
			l-0.5-0.5c1.8,2.5,3.7,5.1,5.3,7.5c0.7,1.1,1.3,2.3,2,3.6c1,1.9,1.6,3.2,2.5,5c0.8,1.4,1.4,2.9,1.6,4.5c0.2,1.3,0.6,2.5,1.2,3.7
			c0.8,2,2,4.1,2.8,6.4s1.6,4.4,2.2,6.5c-1.4-4.4-3.1-8.6-5.2-12.7c-1.1-2.1-2-4.3-3.1-6.3s-2.1-3.7-2.9-5.3c0.3,0.8-0.6-0.4-1-1.1
			c1,1.7,2,3.4,2.7,5.2l3.4,7c0.7,1.4,1.4,2.8,2,4.3c0.8,1.9,1.5,3.9,2,5.8c0.5,1.6,1,3.3,1.6,5l-0.9-1.4l-1.7-4.7l-1.2-3.2l-1.5-3
			c-1.1-2.2-2.9-5.7-4-7.3c-0.4-0.5-0.1,0-0.6-0.7c2,3.3,3.7,7.1,5.5,10.5c0.8,1.6,1.5,3.3,2.1,5.1c0.3,0.8,0.5,1.5,0.8,2.3
			l-2.3-3.6v0.1c0.9,1.4,1.8,2.9,2.6,4.4c0.2,0.6,0.4,1.2,0.5,1.7c-1-1.7-2.2-3.7-3.1-5.1c-0.7-1.2-1.6-2.3-2.4-3.5
			c-0.5-0.7-1-1.3-1.4-1.9c-0.5-1.1-1-2.2-1.5-3.3c-0.8-2.1-1.8-4.1-3-6c-2-3.2-3.3-6-5.3-9c-1-1.4-1.9-2.7-2.7-4
			c-0.3-0.4-0.5-1-0.9-1.5c-1.6-2.8-5.4-6.2-7.6-8.6l-1.8-2c-0.6-0.6-1.3-1.2-1.9-1.7l-4.6-3.8c-0.8-0.7-1.8-1.3-2.5-1.9
			c1.9,1.7,3.9,3.5,5.9,5.2c0.9,0.9,1.9,1.7,2.8,2.6l2.4,2.8c1.9,1.9,3.6,4,5.1,6.2l-0.5-0.4c1.7,2.4,3.4,4.8,4.9,7.1
			c0.7,1,1.4,2.1,2,3.2c1,1.8,1.5,3,2.3,4.7c0.7,1.3,1.2,2.7,1.6,4.1c0.2,1.2,0.5,2.4,1.1,3.5c0.3,0.8,0.7,1.6,1.1,2.4l-0.3-0.4
			c0.1,0.1,0.2,0.3,0.4,0.6c0.5,1.1,1,2.1,1.5,3.2c0.8,2.1,1.5,4.2,2.1,6.1c-0.6-1.8-1.3-3.8-2-5.8c-1-2-2-4-2.9-6
			c-1.8-4.2-4.3-7.7-5.7-10.8c0.3,0.7-0.5-0.4-1-1c1,1.6,1.8,3.2,2.5,4.9c0.9,2.2,1.9,3.4,3.3,6.5l1.9,4c0.5,1,0.9,1.9,1.2,2.7
			s0.5,1.7,0.8,2.7c0,0.1,0.1,0.2,0.1,0.2c-0.5-0.8-1-1.5-1.5-2.2c-0.7-1.6-1.4-3.2-2.3-4.6c-1.1-2-2.6-5.4-3.9-6.7
			c-0.3-0.4-0.1,0-0.6-0.7c2.1,3,3.6,6.6,5.3,9.7l0.2,0.4c-0.8-1.2-1.7-2.4-2.7-3.5l-3.5-3.7c-0.4-0.4-0.8-0.8-1.2-1.3
			c-0.5-1-1-1.9-1.6-2.8c-1.9-2.9-3.9-5.7-5.8-8.5l-2.7-3.3l-1.2-1.8l-3.8-4.9c1.9,2.4,4,4.5,5.7,7.2c-4.6-6.9-9.9-13.4-15.7-19.3
			l-1.4-1.5c-1.5-1.5-3-2.8-4.6-4.1l-5.6-4.6c-0.2-0.2-0.4-0.4-0.7-0.6c-3-2.3-7.9-5.4-11.2-7.4c-1.8-1-3.6-2.1-5.4-3
			c-0.2-0.1-0.5-0.3-0.8-0.4L186,15c0.9,0.2,1.8,0.4,2.6,0.6c-1.1-0.4-2.3-0.7-3.4-1.1h-0.1c-1.2-0.7-2.5-1.4-3.8-1.9l0.4,0.1
			c1.9,0.6,3.8,1.3,5.6,2c2.4,0.9,4.7,1.3,6.9,2.4c-0.8-0.9-10.1-3.6-4.7-2.3c-1.1-0.4-2.8-1-3.7-1.4c-0.6-0.3-0.6-0.4-1.1-0.6
			c-1.1-0.7-6.9-2-5.8-2l1.6,0.3c4.2,0.9,8.2,2.5,12.2,3.8c3.9,1.8,7.9,3.3,11.7,5.4c-1.7-1.3-4.2-2.1-6.1-3.3
			c-0.8-0.5-4.2-2.2-4.3-2.3c0.9,0.2,1.8,0.6,2.6,0.9l6,2.5c4.4,2.2,9,4.9,10.3,5.6c0,0-0.1-0.1-0.1-0.1c-2.4-1.3-4.7-2.8-6.8-4.4
			c-2.4-1.4-5.9-2.8-8.6-4.1l-3.9-1.7c3.1,0.5-9.1-3.4-10.7-4c-1.4-0.4-5.8-1.6-3.1-1.1c3.1,0.3,7.8,2.6,10.6,3.4
			c1.2,0.4,2.3,0.7,3.5,1.1s2.3,0.9,3.5,1.5c1.4,0.6,4.3,1.9,5.3,2.5c2.9,1.2,7,3.9,9.7,5.5c1.8,1.1,3.5,2.3,5.1,3.6
			c2.2,1.6,4.2,2.9,6.2,4.4c-0.8-0.8-9-6.7-4.1-3.5c-0.9-0.7-2.5-1.9-3.3-2.5c-0.5-0.5-0.5-0.6-0.9-1c-1-1-6.7-4.1-5.1-3.6
			c-1.1-0.8-2.3-1.6-3.5-2.2l-2.2-1.3l-2-0.9c1.2,0.1,5.6,2.7,7.6,3.6c-0.5-0.3-0.4-0.3-1.1-0.6c-2.2-1.3-4.4-2.5-6.7-3.6l-6.3-2.9
			c-2.2-1-4.4-1.9-6.7-2.6l-5.4-1.8c-1.8-0.6-3.7-0.8-5.4-1.3c-2.8-0.5-5.6-1.4-8.4-1.7s-5.5-0.8-8-1.3c-0.9-0.2-1.8-0.4-2.8-0.4
			c-1.5-0.1-4-0.1-5.6-0.2l-4-0.1l-4.2,0.3c-1.3,0.1-2.7,0.2-4,0.3c-2.1-0.2-4.1-0.3-6-0.5c0.5,0.2,3.4,0.5,4.9,0.7
			c-1,0.1-2,0.2-2.9,0.4c-3,0.7-5.8,1.3-9,1.8c-3.9,0.8-7.7,1.9-11.6,3l-1.5,0.6l-1.4,0.2c-1.2,0.2-2.3,0.5-3.3,0.6l3.5-0.4l-2.7,1
			c-1.8,0.5-3.5,1.1-5.2,1.8l-0.3,0.1l-2.7,0.5l0.5-0.3c1.7-1,4.5-2.1,5.8-2.8c0.4-0.2,0-0.1,0.7-0.4l-4.4,1.7
			c-0.9,0.4-1.8,0.9-2.7,1.4l-2.2,0.4l1-0.5c3.4-1.7,6.9-3.3,10.5-4.5c-2.1,0.6-4.6,1.6-6.8,2.3c-0.9,0.3-4.5,2-4.7,1.9
			c-0.4-0.4,10.3-5.2,16.5-7.3c-1.7,0.5-3.4,0.9-4.5,1.3c-2.6,1.2-6.4,2.4-9.2,3.7l-4,2.1c1.4-1-0.9,0.1-3.8,1.5
			c-0.4,0.2-0.8,0.4-1.3,0.6l-1.2,0.4c1-0.6,1.9-1,2.7-1.4c2.3-1.2,4.3-2.4,6.9-3.7c1.8-0.9,3.7-1.7,5.7-2.2
			c1.5-0.6,3.4-1.4,5.4-2.1s4-1.1,5.6-1.6l6.2-1.6L134,0c-1.2,0-11.4,1.9-5.6,0.5c-1.2,0.1-3.2,0.6-4.2,0.8c-0.7,0.1-0.8,0-1.4,0.1
			c-1.4,0.2-7.9,2.1-6.3,1.3c-1.8,0.1-6.2,2.1-8.7,3c1-0.6,6-2.7,8-3.5c-0.4,0.1-0.8,0.2-1.2,0.4l-7.4,2.9l-3.3,1.3l-3.2,1.6
			l-6.8,3.3c-1.6,0.9-3.2,1.9-4.7,2.9c-2.2,0.7-4.4,1.5-6.6,2.5L76.1,20c-2.3,1-4.5,2.1-6.7,3.4c-1.7,1-3.4,1.9-5.1,2.9
			s-3.2,2.2-4.8,3.3c-2.3,1.8-5,3.3-7.1,5.3s-4.5,3.7-6.6,5.3c-0.8,0.6-1.6,1.2-2.3,1.9c-1.1,1.1-2.9,3-4.1,4.3l-2.9,3.1L33.9,53
			c-1.8,2.4-3.6,4.6-5,6.8c-1.6,2.8-3.2,5.5-5,8.3c-2.1,3.6-4,7.4-6,11.2l-1,2.5L15.6,85c-0.9,1.7-1.6,3.5-2.3,5.3
			c-1.3,4.1-2.7,8.2-4,12.2c-0.2,0.8-0.5,2-0.7,2.5c-0.3,1.2-0.5,2.6-0.8,4c0,0-0.1-0.1-0.1-0.3c0.6-2.7,1-5.5,1.8-8.2
			s1.6-5.3,2.3-8c0.4-2,1.6-5,2.1-6.6c0.1-0.5-0.1-0.1,0.2-0.8l-1.7,4.6c-0.5,1.6-0.9,3.2-1.3,4.7s-0.7,2.9-1.1,4.4
			c-0.6,1.6-1.1,3.3-1.5,5l-0.1,0.6c0.1-1.2,0.3-2.2,0.3-2.5c-0.2,0.7-0.6,2.1-0.9,3.5c0.7-4,1.7-7.9,2.9-11.7
			c1.1-3.9,2.5-7.7,4.1-11.4c-1,2.1-2.1,4.8-3.1,6.9c-0.4,1-1.7,4.9-1.9,5c-0.6,0,3.4-11.8,6.2-18.1c-0.9,1.7-1.7,3.3-2.3,4.4
			c-0.9,2.9-2.8,6.7-3.7,9.8C9.2,92,8.8,93.5,8.4,95c0.3-1.8-0.6,0.8-1.5,4s-1.5,7.3-1.8,8.3c-0.3,1.6-1.5,6.4-1.1,3.4
			c0.2-1.7,0.7-3.9,1.2-6.1s1-4.4,1.5-6c0.7-2.6,1.3-5.1,2.1-8c0.6-2.1,1.4-4.1,2.4-6.1c0.6-1.6,1.4-3.7,2.2-5.7s2-4,2.7-5.5
			c1.1-2,2.1-4,3.2-6c1.5-2.5,2.9-4.8,4.3-7.1c-0.8,0.9-6.7,10.2-3.6,4.7c-0.8,1-1.8,2.9-2.3,3.8c-0.4,0.7-0.6,0.6-0.9,1.2
			c-0.8,1.2-4,7.7-3.5,5.9c-1.2,1.5-2.8,6.4-3.9,8.9c0.3-1.3,2.2-6.6,3.1-8.8c-0.2,0.4-0.4,0.8-0.6,1.2c-1,2.5-2,5.2-3.1,7.8
			l-1.4,3.5l-1.1,3.7l-2.3,7.7c-0.9,4.1-1.6,8.3-2.3,12.3c-0.4,3.1-0.6,6.4-1,9.5c-0.2,1.6-0.3,3.1-0.5,4.6s-0.1,3-0.2,4.4
			c-0.1,1.1-0.2,2-0.2,3.1c-0.1,2.1,0,4.2,0.1,6.3c0.6,5.8,1.1,12.7,2.7,18c0.3,1.3,0.6,2.5,0.9,3.8c0,1.6,0.3,3.4,0.3,4.9l0.6,7.1
			c0,0.3,0,0.6,0,0.9c0.5,3.6,1.6,9.3,2.4,12.9c0.5,1.9,1,4,1.5,5.8c0.1,0.3,0.2,0.6,0.3,0.8l0.4,1.4c0.7,3.4,2.3,6.5,3.4,9.7
			c0.7,1.7,1.3,3.5,2.1,5.2l2.4,5l2.4,4.9c0.8,1.6,1.9,3.2,2.8,4.8c-0.8-1.6-2.1-3.4-2.8-5.2c-0.3-0.8-1.6-3.7-1.5-3.8
			c0.4,0.6,0.8,1.3,1.2,2c0.8,1.6,1.8,3.2,2.8,4.7l5.3,8.3c0-0.1,0-0.1,0-0.1c-1.3-1.9-2.4-3.9-3.4-5.9c-1.5-2.2-2.9-4.5-4-6.9
			l-1.6-3.2c1.5,2.2-3.4-7.4-3.6-8.9c-0.4-1.2-1.6-4.7-0.6-2.6c1,2.3,2.2,6.5,3.4,8.7l2.8,5.5c0.3,0.6,0.7,1.4,1.1,2.3
			s0.9,1.6,1.1,2c1.4,2.2,3.4,5.6,4.8,7.9c0.9,1.5,2,2.8,2.9,4.2c1.3,1.8,2.6,3.3,3.8,5c-0.4-0.8-5.4-7.4-2.4-3.8
			c-0.6-0.8-1.5-2.1-1.9-2.7c-0.3-0.5-0.3-0.6-0.5-1c-0.7-0.8-3.4-5.5-2.5-4.4c-0.5-1.3-2.6-4.4-3.6-6.2c0.6,0.7,2.8,4.2,3.8,5.6
			c-0.2-0.4-0.2-0.3-0.5-0.8l-3.2-5.2c-1-1.6-1.7-3.3-2.5-5c-0.4-0.7-0.7-1.4-1-2.1c2.5,5.4,6.9,11.9,7.8,13.6c0,0,0-0.1,0-0.1
			c-0.8-1.1-1.6-2.5-2.4-3.9l0.9,1.5c1.1,1.7,2.5,3.9,3.7,5.5c0.8,0.9,1.6,1.8,2.3,2.6c-0.9-1.1-1.8-2.3-2.6-3.5l-2.2-3.7
			c-1.4-2.5-3-4.8-4.1-7.2c-1.4-3-2.8-5.8-3.6-8.2l0,0c0.8,1.6,1.6,3.3,2.3,5c1.4,3,4,7.4,5.8,10.4c1.1,1.9,2.2,3.8,3.5,5.6
			c1.7,2.3,3.3,4.3,4.9,6.4c-0.5-1-6.9-9.5-3-4.8c-0.7-1-1.9-2.7-2.5-3.5c-0.2-0.4-0.4-0.9-0.5-1.3c-0.6-1.3-4.2-7.1-3-5.8
			c-0.6-1.3-1.3-2.5-2-3.7c-0.8-1.6-1.6-3.2-2.1-4.4c0.7,1.1,1.4,2.3,2,3.5c0.8,1.4,1.6,2.7,2.5,4c-0.3-0.5-0.3-0.4-0.6-1.1
			c-1.4-2.3-2.6-4.6-3.7-7c-1-2.2-2.1-4.3-3-6.5c-0.7-1.9-1.3-3.6-2-5.5l0.3,0.5c0.9,1.3,1.9,2.5,2.8,3.9c0.5,0.8,1,1.7,1.6,2.5v0.1
			c-1.1-1.5-2.5-3.2-2.9-3.7c0.7,1.3,2.6,4.4,3.7,6c0.3,0.5,0.6,1,0.9,1.5c0.2,0.4,0.4,0.8,0.5,1.2c-0.2-0.2-0.4-0.5-0.6-0.7
			c0.2,0.3,0.4,0.6,0.7,0.9c0.6,1.4,1.3,2.7,2,4.1c2.1,3.5,3.6,6.3,5.5,9.6c1,1.6,2,2.9,2.8,4.3c0.3,0.4,0.6,1,0.9,1.5
			c1.1,1.7,2.3,3.4,3.6,4.9c1.5,1.6,3,3.2,4.2,4.4s2.5,2.9,3.8,4.1l4.9,4c0.9,0.7,1.9,1.3,2.7,2l-6.2-5.5c-1.9-1.8-3.7-3.8-5.5-5.8
			c-2.1-2.4-4.2-4.5-5.3-6.7l0.5,0.5c-1.8-2.5-3.7-5.1-5.3-7.5c-0.7-1.1-1.3-2.3-2-3.6c-0.8-1.6-1.4-2.7-2-4
			c0.7,0.9,1.4,1.8,2.1,2.7c2.7,3.2,5.7,6.1,8.5,9.2c0.4,0.5,0.9,1,1.4,1.5c1.4,1.2,3.3,2.8,4.8,4l2.2,1.8l0.2,0.1
			c1.7,1.5,3.5,2.8,5.4,4l4.8,3.2c0.8,0.6,1.5,1.1,2.2,1.7l-1-0.9c1.6,1,3.2,2,4.9,2.9l2.7,1.4l3.8,2.3c2.3,1.2,4.8,2.1,7.2,3.1
			l1.8,1.1l4.1,2.5c1.4,0.7,2.9,1.5,4.3,2.3l5.5,3.1c1.9,1,3.9,1.7,5.8,2.6l2.5,1l-1-0.2c-1.9-0.4-3.8-0.9-5.7-1.5
			c-1-0.3-2.1-0.4-3-0.7c2.5,0.8,4.9,1.7,7.4,2.4l5.4,1.3l0.1,0.1c1.4,0.6,2.8,1.2,4.3,1.5c-3-0.5-7.3-1.7-10.3-2.3
			c-1.9-0.6-3.8-1.4-5.6-2c-2.4-0.9-4.7-1.3-6.9-2.4c0.8,0.9,10.1,3.6,4.7,2.3c1.1,0.4,2.8,1,3.7,1.4c0.6,0.3,0.6,0.4,1.2,0.6
			c1.1,0.7,6.9,2,5.8,2l-1.6-0.3c-4.2-1-8.2-2.5-12.2-3.8c-3.9-1.8-7.9-3.3-11.7-5.4c1.7,1.3,4.2,2.1,6.1,3.3
			c0.8,0.5,4.2,2.2,4.3,2.3c-0.9-0.2-1.8-0.6-2.6-1l-6-2.5c-4.4-2.2-9-4.9-10.3-5.6c0.1,0,0.1,0.1,0.1,0.1c2.4,1.3,4.8,2.7,7,4.4
			c2.4,1.4,5.9,2.8,8.6,4.1l4,1.7c-3.2-0.5,9,3.4,10.7,4c1.4,0.4,5.7,1.5,3,1.1c-3-0.3-7.8-2.6-10.6-3.4c-1.2-0.4-2.3-0.7-3.5-1.1
			s-2.3-0.9-3.5-1.5c-1.8-0.8-3.6-1.6-5.3-2.5c-2.9-1.2-6.9-3.9-9.7-5.5c-1.8-1.1-3.5-2.3-5.1-3.6c-2.2-1.6-4.2-2.9-6.2-4.4
			c0.8,0.8,9,6.7,4.1,3.5c1,0.7,2.5,1.9,3.3,2.5c0.5,0.5,0.5,0.6,1,1c1,1,6.7,4.1,5.1,3.6c1.1,0.8,2.3,1.6,3.5,2.2l2.2,1.3l2,0.9
			c-1.2-0.1-5.7-2.7-7.6-3.6c0.5,0.3,0.4,0.3,1,0.6c2.1,1.3,4.3,2.6,6.6,3.6l6.3,2.9c2.2,1,4.4,1.9,6.7,2.6l5.4,1.8
			c1.8,0.5,3.7,0.8,5.4,1.3c2.8,0.5,5.6,1.4,8.4,1.7s5.5,0.8,8,1.3c0.9,0.2,1.8,0.4,2.8,0.4c1.5,0.1,4,0.1,5.6,0.2l4,0.1l4.2-0.3
			h0.4c4.5,0.5,9,0.8,13.5,0.8l2,0.1c1.9,0,3.9-0.2,5.8-0.5l1.3-0.2l-3.7,1l-7.7,1.5c1.2,0,11.4-1.9,5.6-0.5
			c1.2-0.1,3.2-0.6,4.2-0.8c0.7-0.1,0.8,0,1.4-0.1c1.4-0.2,7.9-2.1,6.3-1.3c1.2-0.2,2.4-0.5,3.5-1l1.5-0.3c-1.6,0.7-3.3,1.4-4.3,1.8
			c0.4-0.1,0.8-0.2,1.2-0.4l4.1-1.6c2.4-0.5,4.9-1.1,6.9-1.7s3.8-1.1,5.6-1.7l0.8-0.3l1.4-0.4c3.3-0.8,6.3-2.5,9.3-3.7
			c1.6-0.8,3.3-1.4,4.9-2.2l4.7-2.6l4.7-2.6c1.6-0.9,3-2,4.5-3c-1.6,0.9-3.3,2.2-4.9,3c-0.7,0.3-3.5,1.7-3.7,1.7
			c0.6-0.5,1.3-0.9,1.9-1.2c1.6-0.9,3.1-1.9,4.5-3l7.9-5.6c-0.1,0.1-0.1,0-0.1,0c-1.8,1.3-3.7,2.5-5.6,3.6c-2.1,1.6-4.2,3-6.5,4.2
			c-1.1,0.6-2.1,1.2-3.1,1.8c2.1-1.6-7,3.7-8.5,3.9c-1.1,0.4-4.5,1.7-2.6,0.7c2.2-1.1,6.2-2.4,8.3-3.7c1.7-1,3.3-1.9,5.2-3l2.2-1.2
			c0.8-0.5,1.5-1,2-1.2c2-1.5,5.3-3.6,7.5-5.1c1.4-1,2.6-2.1,4-3.1c0.5-0.4,1-0.9,1.5-1.3s1.1-0.6,1.6-0.9c1.4-0.8,2.6-1.8,3.9-2.7
			c1.9-1.5,4.1-2.7,5.9-4.4s3.7-3,5.5-4.4c0.7-0.5,1.3-1,1.9-1.5c0.9-0.9,2.4-2.5,3.4-3.5l2.4-2.6c0.7-0.9,1.5-1.9,2.2-2.9
			c1.4-1.9,3-3.8,4.1-5.6c1.3-2.3,2.6-4.5,4.2-6.8c1.8-3,3.3-6.1,5-9.2l0.8-2.1l1.1-2.6c0.7-1.4,1.4-2.9,1.9-4.4
			c1.1-3.4,2.3-6.7,3.3-10.1l0.5-2c0.2-1,0.5-2.1,0.7-3.3c0,0,0,0.1,0,0.3c-0.5,2.2-0.8,4.6-1.5,6.8s-1.3,4.4-1.9,6.6
			c-0.4,1.7-1.4,4.1-1.7,5.4c-0.1,0.4,0.1,0.1-0.1,0.7l1.4-3.8c0.4-1.3,0.7-2.6,1.1-3.9s0.6-2.4,1-3.6s1-2.9,1.2-4.2
			c0-0.1,0.1-0.3,0.1-0.4c-0.1,0.9-0.2,1.8-0.2,2.1c0.2-0.6,0.5-1.8,0.7-2.9c-0.6,3.3-1.4,6.5-2.4,9.6c-0.9,3.2-2,6.4-3.3,9.4
			c0.8-1.7,1.7-3.9,2.5-5.7c0.4-0.8,1.4-4.1,1.6-4.1c0.5,0-2.8,9.7-5.1,14.9c0.7-1.4,1.4-2.7,1.9-3.7c0.8-2.4,2.3-5.5,3.1-8.1
			c0.4-1.4,0.7-2.6,1-3.8c-0.2,1.4,0.5-0.7,1.3-3.3s1.2-6,1.5-6.8c0.3-1.3,1.2-5.3,0.9-2.8c-0.2,1.4-0.6,3.2-1,5.1s-0.9,3.6-1.3,5
			c-0.6,2.2-1,4.2-1.7,6.6c-0.5,1.7-1.2,3.4-2,5c-0.5,1.3-1.1,3-1.8,4.7s-1.6,3.3-2.3,4.6l-2.7,5l-3.5,5.8c0.7-0.7,5.5-8.4,2.9-3.9
			c0.6-0.9,1.5-2.4,1.9-3.2c0.4-0.6,0.5-0.5,0.8-1C265.3,212.7,268,207.4,267.5,208.8z M267.6,85c0.5,1.6,0.8,2.9,0.9,3.4
			s0.4,1.7,0.6,2.7C268.6,88.9,268.1,87,267.6,85z M80,21.2l-0.5,0.2l0,0l-0.1,0l0,0l-4,1.9c2.6-2.1-8.9,4.6-10.5,5.5
			c-1.3,0.8-5.2,3.3-3,1.6c2.4-2.2,7.4-4.2,10-5.8c1.1-0.6,2.1-1.3,3.2-1.9s2.3-1.1,3.6-1.7c1-0.4,2.5-1.1,3.8-1.7
			C81.8,19.8,80.9,20.5,80,21.2z M87.7,15.7l-2.4,0.8l-2.1,0.9c0.7-0.6,3.3-1.6,5.6-2.4L87.7,15.7L87.7,15.7z M86.8,18.9
			c-0.3,0.1-0.7,0.2-1,0.4l0.1-0.1l1.2-0.5L86.8,18.9z M89.4,17.4L89,17.6l-0.5,0.1c-0.4,0.1-0.8,0.3-1.2,0.4c0.8-0.5,1.6-1,2.5-1.6
			l1.6-0.5C90.5,16.7,89.8,17.2,89.4,17.4L89.4,17.4z M103.4,12.5l-0.8,0.4C101.6,13.1,101.4,13,103.4,12.5L103.4,12.5z M98,15.4
			c-1,0.3-2.1,0.6-3.1,0.9l1.1-0.6l0.7-0.2h-0.1l-0.4,0.1c1-0.6,2-1.1,3-1.6c0.8-0.1,1.5-0.3,2.3-0.4h0.1c-1.1,0.6-2.1,1.2-3.3,1.8
			L98,15.4z M100.6,14.8c-0.7,0.2-1.4,0.3-2,0.5c1.3-0.6,2.5-1.3,3.8-2c1-0.2,1.9-0.4,2.8-0.6L100.6,14.8z M227.5,246.2
			c-1.7,1.6-5,3.1-7.3,4.3c0.2-0.2,0.4-0.4,0.6-0.6l-0.9,0.7c-0.2,0.1-0.5,0.3-0.7,0.4l-0.1,0.1c0.1,0,0.1-0.1,0.2-0.1
			c0.3-0.2,0.5-0.4,0.8-0.7c2.1-1.2,4.4-2.5,5-2.8C226.1,246.8,229.4,244.8,227.5,246.2z M215.1,255c-1,0.7-2.2,1.5-3.3,2.3l1.4-1
			l1.4-1.1L215.1,255z M22,195.6c-0.2-0.3-0.4-0.6-0.5-1c-0.1-0.5-0.3-1-0.4-1.6c0-0.1-0.1-0.3-0.1-0.4c0.2,0.4,0.5,0.8,0.7,1.2
			c0.2,0.6,0.3,1.2,0.5,1.8s0.4,1.1,0.6,1.7C22.5,196.7,22.2,196.1,22,195.6z M23,198.2c0.4,1,0.7,2,1.1,3c-0.4-0.6-0.8-1.3-1.2-1.9
			c-0.3-1-0.7-2-1-3.1L23,198.2z M178,19.3l0.6,0.2l-0.3-0.1L178,19.3z M258.4,96.1c-0.1-0.3-0.2-0.5-0.4-0.8l0.2,0.3
			C258.3,95.8,258.4,95.9,258.4,96.1L258.4,96.1z M262,102.1c-0.1-0.9-0.4-1.8-0.5-2.8c0.2,0.4,0.4,0.9,0.6,1.3l0.9,2.4l0.2,1.3
			l-1-1.4l-0.1-0.7c0.1,0.1,0.1,0.2,0.2,0.2C262.2,102.4,262.1,102.2,262,102.1L262,102.1z M259.1,91.1c-1.1-2-2.4-4.2-3.4-5.8
			c-0.3-0.5-0.6-0.9-0.8-1.4c-0.1-0.3-0.2-0.6-0.3-0.9c0.5,0.8,1,1.6,1.4,2.4c1.2,2,2.4,4,3.4,5.9c0.5,1.1,1,2.2,1.5,3.2
			c0.1,0.4,0.2,0.7,0.3,1c-0.3-0.5-0.5-1.1-0.7-1.6c-0.4-0.8-0.8-1.7-1.3-2.6c-0.1-0.3-0.2-0.5-0.3-0.8
			C259.1,90.6,259.1,90.8,259.1,91.1L259.1,91.1z M266.8,102.3c0.1,0.4,0.2,0.9,0.3,1.3l-0.1-0.2c-0.6-1.5-1.4-3.9-2.1-5.7l-0.1-0.7
			c0.7,1.4,1.3,2.8,1.8,4.2L266.8,102.3z M261,111.9L261,111.9c-0.1,0-0.1-0.1-0.1-0.2C260.9,111.7,261,111.7,261,111.9L261,111.9z
			 M255.2,100.4c0.2,0.7,0.3,1.4,0.4,2.1l-0.8-1.1l-0.3-0.7c0-0.2-0.1-0.3-0.1-0.5c0.1,0.1,0.1,0.2,0.2,0.2c0.3,0.3,0.1,0,0.4,0.5
			c-0.2-0.3-0.4-0.6-0.7-0.9s-0.2-0.8-0.3-1.2C254.4,99.2,254.9,99.8,255.2,100.4L255.2,100.4z M186.9,265.7l0.8-0.3
			c-0.5,0.4-0.9,0.7-1.1,0.9c-0.7,0.3-1.5,0.5-2.3,0.7C185.2,266.5,186.1,266.1,186.9,265.7z M255.4,102.5l-0.1-0.2
			c0-0.1,0-0.1-0.1-0.2l0.5,0.8c0,0.1,0,0.1,0,0.2L255.4,102.5z M259.1,106.2C259.1,106.2,259.1,106.1,259.1,106.2
			c0.2,0.2,0.4,0.6,0.6,0.9c0.3,0.8,0.6,1.7,0.9,2.6l-0.3-0.5C259.9,108.2,259.5,107.2,259.1,106.2z M267.8,127c0-0.3,0-0.5,0-0.8
			c0,0.1,0,0.2,0.1,0.3c0,0.4,0.1,0.8,0.1,1.2C267.9,127.5,267.9,127.2,267.8,127L267.8,127z M268.2,113.4c-0.4-1.8-0.9-3.4-1.3-5
			c0.4,1.3,0.7,2.4,0.8,2.8S268,112.6,268.2,113.4z M264.2,116l-0.1-0.2l-0.2-0.4c-0.1-0.3-0.1-0.6-0.2-0.9c0.2,0.4,0.3,0.8,0.5,1.1
			V116z M186.3,265.4l2.1-1.1l1.3-0.8l0.5-0.2c-1.1,0.7-2.1,1.4-3.2,2c-1.1,0.5-2.3,0.9-3.4,1.4
			C184.6,266.2,185.4,265.8,186.3,265.4z M263.5,105.9c0,0.2,0,0.3,0.1,0.4l-0.5-1c-0.2-0.4-0.4-0.8-0.6-1.1s-0.1-0.5-0.1-0.7
			c0.4,0.5,0.7,1.1,1,1.6C263.4,105.4,263.4,105.6,263.5,105.9L263.5,105.9z M261.5,102.8l-0.7-1l-0.3-1l-0.1-0.2
			c0.3,0.5,0.6,1,1,1.5C261.5,102.4,261.5,102.6,261.5,102.8z M260.9,110.8c0,0.1,0,0.2,0.1,0.3s0.1,0.5,0.1,0.7
			c-0.1-0.4-0.2-0.9-0.3-1.3C260.8,110.6,260.8,110.7,260.9,110.8L260.9,110.8z M182.6,267.1c0.8-0.2,1.6-0.4,2.2-0.6l-0.1,0.1
			l-1,0.5c-0.6,0.1-1.1,0.2-1.7,0.3L182.6,267.1z M184.9,267.1l-0.6,0.2c-0.6,0.2-1.2,0.4-1.8,0.6l0.8-0.4L184.9,267.1z
			 M186.2,266.6c0.3-0.2,0.9-0.5,1.2-0.7c-0.2,0.1-0.4,0.1-0.6,0.2c0.6-0.3,1.5-0.8,2.4-1.4l0,0c-0.8,0.6-1.7,1.1-2.6,1.6
			L186.2,266.6z M261.5,93.4l0.4,0.9c0,0,0,0,0,0.1c-0.2-0.4-0.4-0.7-0.6-1.1c0-0.1,0-0.1,0-0.2L261.5,93.4z M261.4,101.8l-0.1-0.2
			c-0.4-0.7-0.9-1.4-1.3-2.1v-0.1c0.5,0.6,0.9,1.2,1.3,1.7C261.3,101.4,261.3,101.6,261.4,101.8L261.4,101.8z M153.5,14.2l1.4,0.3
			h-0.4L153.5,14.2z M17.6,188.6l0.3,0.5c0.1,0.4,0.2,0.7,0.3,1.1c-0.6-1.1-1.1-2.3-1.6-3.6c0,0,0-0.1,0-0.1
			C16.9,187.2,17.2,187.8,17.6,188.6z M28.9,204.7c0.1,0.2,0.2,0.4,0.3,0.6c-0.5-0.8-1.1-1.6-1.4-2.2c-0.1-0.2-0.2-0.4-0.3-0.6
			L28.9,204.7z M29.2,205.5c0.2,0.4,0.3,0.8,0.5,1.1C28.8,205.2,28.1,204.1,29.2,205.5z M111.8,257.5l1.5,0.1l0.2,0l0.3,0.1
			l-1.8-0.2L111.8,257.5z M179.8,268.4l2.9-0.8c-0.3,0.1-0.6,0.3-0.9,0.5c-0.7,0.2-1.4,0.4-2,0.5l-0.9,0.2L179.8,268.4z
			 M210.6,255.4c0.7-0.5,1.4-1.1,2.1-1.6c0.1-0.1,0.3-0.1,0.4-0.2l0,0h0.1l0,0l3.3-1.5l-0.1,0.1l-0.1,0.1c-0.6,0.3-2.2,1.4-3.6,2.3
			L210.6,255.4z M276,140v-0.1c0-0.3,0.1-0.6,0.1-1C276.1,139.3,276.1,139.6,276,140z M277.2,124.4c0,0.8-0.1,1.6-0.1,2.3
			c0-0.9,0-1.8,0.1-2.6C277.2,124.2,277.2,124.3,277.2,124.4L277.2,124.4z M259.6,86.9l-0.2-0.5c0.2,0.4,0.5,0.8,0.7,1.2
			c0.2,0.6,0.4,1.2,0.5,1.8c-0.3-0.5-0.6-1-0.7-1.3l-0.1-0.1C259.8,87.6,259.7,87.2,259.6,86.9L259.6,86.9z M254,79.4
			c0.3,0.4,0.2,0.5,0.4,0.8c0.6,0.7,2.8,4.5,2.1,3.6c0.4,1.1,2.1,3.6,3,5.1c-0.5-0.6-2.3-3.5-3.1-4.6c0.2,0.3,0.2,0.3,0.4,0.7
			l2.6,4.3c0.3,0.4,0.5,0.9,0.7,1.3c0,0.2,0.1,0.4,0.1,0.6c-1.9-3.2-3.8-6.2-4.4-7.2c0,0,0,0.1,0,0.1c0.6,0.9,1.3,2.1,2,3.2
			c-0.3-0.4-0.5-0.8-0.8-1.2c-0.8-1.2-1.8-2.7-2.7-3.9l-0.3-1c-0.4-1.2-0.8-2.4-1.3-3.6C253.2,78.2,253.7,79,254,79.4z M252.7,77.5
			c-0.1-0.2-0.1-0.4-0.2-0.6C253.2,77.9,253.6,78.5,252.7,77.5L252.7,77.5z M253.3,82.2C253.4,82.3,253.4,82.3,253.3,82.2
			c0.2,0.4,0.4,0.8,0.5,1.2c0.5,1,3.5,5.8,2.5,4.8c0.5,1.1,1.1,2.1,1.7,3.1c0.6,1.3,1.3,2.7,1.8,3.6c-0.6-0.9-1.1-1.9-1.6-2.8
			c-0.6-1.1-1.3-2.2-2.1-3.3c0.2,0.4,0.2,0.4,0.5,0.9c1.1,1.8,2.1,3.8,3,5.7c0.3,0.7,0.6,1.4,1,2.1c0.2,1,0.3,2.1,0.5,3.1l-1.9-3
			l-0.1-0.2c-0.3-0.9-0.6-1.7-0.8-2.5c-0.3-1-0.8-2-1.1-3c0.3,1.2,0.7,2.4,1,3.7l-0.3-0.4c-0.5-1.1-1-2.2-1.6-3.3l-0.3-0.5
			c-0.2-1.1-0.4-2.1-0.8-3.1c-0.1-0.4-0.9-2.5-1.3-3.6C254,84.3,253.6,83.1,253.3,82.2L253.3,82.2z M252.3,86.6
			c0.2,0.7,0.5,1.4,0.7,2.1l-0.8-1l0,0c-0.4-1.1-0.7-2.2-1.1-3.2C251.6,85.2,251.9,85.9,252.3,86.6L252.3,86.6z M246.9,78l-0.4-0.4
			c1.4,2,2.8,3.9,4.1,5.8c0.4,1.2,0.8,2.5,1.2,3.7c-1.3-1.4-2.6-2.9-3.9-4.3c-0.6-1.4-1.3-2.8-1.8-3.9c-0.9-1.8-1.9-3.6-2.9-5.3
			c-0.3-0.4-0.6-0.9-0.8-1.4l0.2,0.2C244.2,74.5,245.9,76.2,246.9,78z M216.1,37.7l1.6,1.7l-1.8-1.9C216,37.5,216,37.6,216.1,37.7z
			 M206.5,41.6l3.4,2.8l0.1,0.1l0.8,0.8c0.5,0.6,1.1,1.2,1.6,1.7l-1-0.7c-0.5-0.4-1-0.8-1.6-1.3c-0.3-0.2-0.6-0.5-1-0.8
			c-0.9-1-1.8-2-2.8-2.8c-1.5-1.2-2.8-2.3-4.2-3.4C203.5,39.2,205.1,40.4,206.5,41.6z M201.4,37.9c0.3,0.3,0.8,0.7,1.3,1.2l-1.6-1.2
			l-1.4-1.2C200.3,37,200.9,37.4,201.4,37.9z M188.1,23.9L188.1,23.9c0.2,0.2,0.4,0.4,0.6,0.6l-0.4-0.2l0.5,0.3c0,0,0,0,0,0
			c-2.6-1.5-5.3-2.8-8-4l0,0l-0.6-0.4c1.2,0.5,2.4,0.9,3.3,1.3c1.1,0.6,2.1,1.2,3.2,1.7L188.1,23.9z M183.5,18.6l2.4,1.5l-5.5-3.1
			C181.9,17.7,183,18.4,183.5,18.6L183.5,18.6z M171.2,10.2l0.8,0.2c0.5,0.2,1,0.4,1.5,0.7c0.2,0.1,0.6,0.3,1,0.4l-0.5-0.1
			c-0.4-0.1-0.9-0.2-1.3-0.3l-2-0.9c0.3,0,0.3,0,0.7,0.1L171.2,10.2l-0.5,0l-0.4-0.2C170.6,10.1,170.9,10.1,171.2,10.2L171.2,10.2z
			 M167.1,12l0.1,0.1l0,0L167.1,12L167.1,12z M165.2,13.3c1.4,0.4,2.8,0.9,4.2,1.4l6.9,3.1c2.4,1,4.8,2.1,7,3.4l-3.7-1.5
			c0,0-0.1-0.1-0.1-0.1c0.1,0,0,0,0.1,0l-3.6-1.5c-2.2-0.9-4.6-1.5-6.8-2.3c-2.5-0.7-4.6-1.7-7.2-2.2c-1.4-0.3-2.8-0.6-4.3-0.9
			l-0.4-0.1l2.4,0.1C161.5,12.9,163.4,13.1,165.2,13.3L165.2,13.3z M163.8,10.7c0.6,0.2,1.2,0.4,1.7,0.6l-1.4-0.3
			c-0.4-0.1-0.8-0.3-1.1-0.4C163.2,10.7,163.5,10.7,163.8,10.7L163.8,10.7z M160.2,11.3l2,0.6c-1-0.2-1.9-0.4-2.9-0.7L160.2,11.3z
			 M158.5,11.2c1.3,0.4,2.7,0.8,4,1.2c0.6,0.2,1.2,0.4,1.9,0.6c-2.8-0.4-6.6-0.9-2.7-0.7c-1.1-0.3-2.9-0.2-3.8-0.4
			c-0.6-0.1-0.7-0.2-1.2-0.3c-0.7-0.1-3.1-0.2-4.6-0.3l-1.1-0.3l0,0h-0.3l0,0C153.2,11.1,155.9,11.1,158.5,11.2L158.5,11.2z
			 M13.3,176.6c-0.1-0.2-0.2-0.6-0.3-0.9s-0.1-1-0.1-1.5c0.3,1.1,0.8,2.4,1.3,3.7c0.1,0.5,0.2,1,0.3,1.5
			C13.9,178.1,13.4,177,13.3,176.6z M15,180.8c-0.1-0.4-0.2-0.9-0.3-1.3c0.4,1.1,0.9,2.2,1.2,3.1l0.8,1.7c0.2,0.9,0.4,1.8,0.6,2.6
			c-0.2-0.5-0.4-0.9-0.6-1.4C17.5,186.9,16.3,183.8,15,180.8z M13.2,194.2c-0.1-0.6-0.4-1.7-0.6-2.7c0.6,2.2,1,4.1,1.5,6
			C13.7,196,13.4,194.7,13.2,194.2z M17.5,200.1l0-0.1c-0.6-1.4-1.1-2.8-1.5-4.3l0.8,1.5l1.2,2.4l0.9,1.9c0.5,0.9,1,1.8,1,1.8
			c0.2,0.3,0.9,1.4,1.6,2.5l0.4,1.2c0,0.1,0.1,0.2,0.1,0.3C20.5,204.7,18.9,202.4,17.5,200.1z M32.1,212.3c-2-2.4-3.9-4.8-5.5-7.5
			l0.9,1.5c-0.9-1.4-1.8-2.9-2.8-4.3c-0.2-0.4-0.3-0.9-0.5-1.3s-0.4-1.1-0.5-1.6c0.2,0.4,0.5,0.7,0.7,1c-0.2-0.4-0.5-0.7-0.7-1.1
			c-0.4-1.2-0.7-2.3-1.1-3.4c0.8,1.7,1.8,3.3,2.8,4.9l2.8,4.3c0.6,0.9,1.2,1.7,1.7,2.5c0,0-0.1-0.1-0.1-0.1c-1.2-1.6-3-4.3-4.1-5.5
			c-0.3-0.4-0.1,0-0.6-0.6c1.8,2.6,3.6,5.3,5.5,7.7c0.1,0.3,0.3,0.6,0.4,1c0,0,0,0.1,0,0.1c-0.8-0.9-1.5-1.8-2-2.4
			c-0.3-0.4-0.1,0-0.5-0.6c0.9,1.3,1.9,2.6,2.9,3.8c0.3,0.7,0.6,1.3,0.9,2C32.3,212.5,32.2,212.4,32.1,212.3z M34.9,213.1
			c1.2,1.6,2.4,3.1,3.7,4.7l0.1,0.1c-1.3-1.4-2.4-2.9-3.6-4.3C35,213.5,34.9,213.3,34.9,213.1z M35.2,214.2l1.8,2.4
			c0,0.1,0.1,0.1,0.1,0.2c-0.5-0.6-1.1-1.3-1.6-1.9C35.4,214.6,35.3,214.4,35.2,214.2z M37.7,218.9c-0.3-0.3-0.5-0.6-0.7-0.8
			s-0.4-0.8-0.6-1.2s-0.4-0.8-0.5-1.1c0.4,0.6,1,1.3,1.6,2.2c0.8,1,1.7,1.9,2.3,2.6l0.5,0.6l-0.5-0.4c0.3,0.3,0.7,0.8,1.1,1.3
			L37.7,218.9z M127.4,269c-0.2-0.1-0.3-0.1-0.5-0.2c0-0.1,0.1-0.1,0.3-0.1l1.8,0.4l0.6,0.1h-1.4C128,269.1,127.7,269.1,127.4,269z
			 M133.6,270.1c-0.1-0.1-2.5-0.3-4.9-0.8h1.1l0.8,0.2c0.4,0,0.9,0,1.3,0.1l4.4,0.4C135.5,270,134.6,270,133.6,270.1L133.6,270.1z
			 M149.5,280h-2.2h2.5H149.5z M181.7,270.9L181.7,270.9z M184.7,270l-0.6,0.2l-1,0.3c0.1,0,0.2-0.1,0.3-0.1l1.7-0.5L184.7,270z
			 M199.5,263.3c1.6-0.9,3.2-1.7,4.8-2.5c1.9-1,4.2-2.5,6.4-4l1.6-0.7c-1.7,1.1-3.4,2.3-5,3.2C204.7,260.9,202.2,262.2,199.5,263.3
			L199.5,263.3z M220,252.8c-0.8,0.7-5.2,3.6-4.2,2.7c-1.2,0.6-4.2,2.8-5.9,3.9c0.6-0.7,4-3,5.3-4c-0.4,0.2-0.3,0.2-0.8,0.5
			l-4.9,3.4c-1.5,1.1-3.2,1.8-4.7,2.7l-2,1.1c4.3-2.4,8.5-5.2,12.4-8.1l0.6-0.3c1.9-0.8,3.7-1.7,5.5-2.8l0.2-0.1
			c-0.2,0.2-0.4,0.3-0.7,0.5C220.4,252.6,220.3,252.6,220,252.8z M222.5,251.3l0.1-0.1C222.6,251.2,222.5,251.3,222.5,251.3
			L222.5,251.3z"/>
		<path class="st1" d="M22.8,171.9v-61.1h20c7.6,0,13.5,1.4,17.7,4.2s6.4,7,6.4,12.6c0.1,2.7-0.6,5.4-2,7.8
			c-1.5,2.4-3.7,4.2-6.3,5.1c3.2,0.5,6.1,2.3,8.1,4.9c1.8,2.5,2.7,5.5,2.6,8.5c0,6-2,10.5-6,13.5s-9.7,4.6-17.2,4.6L22.8,171.9z
			 M37,136.3h5.6c3.4,0,6-0.6,7.6-1.8c1.7-1.2,2.6-3.2,2.5-5.3c0-2.6-0.8-4.5-2.4-5.7c-1.6-1.2-4.1-1.8-7.5-1.8H37V136.3z M37,145.7
			V161h9.1c3,0,5.3-0.6,6.8-1.8c1.6-1.4,2.4-3.4,2.3-5.5c0.2-2.2-0.6-4.3-2-5.9c-1.3-1.3-3.5-2.1-6.6-2.1L37,145.7L37,145.7z"/>
		<path class="st1" d="M128.5,146.9c0,7.5-2.4,13.7-7.2,18.6c-4.8,4.9-11,7.3-18.7,7.3c-7.7,0-14-2.4-18.8-7.3
			c-4.8-4.9-7.2-11.1-7.2-18.6v-11c0-7.5,2.4-13.7,7.2-18.6c4.8-4.9,11.1-7.3,18.8-7.3c7.7,0,13.9,2.5,18.7,7.3
			c4.8,4.9,7.2,11.1,7.2,18.6L128.5,146.9z M114.3,135.8c0.2-3.8-0.9-7.6-3.1-10.8c-3.9-4.8-11-5.6-15.8-1.7
			c-0.6,0.5-1.2,1.1-1.7,1.7c-2,2.8-3,6.4-3,10.8v11.1c0,4.4,1,8,3.1,10.8c2.1,2.8,5.4,4.4,8.8,4.2c3.4,0.2,6.7-1.4,8.7-4.2
			c2.1-2.8,3.1-6.4,3.1-10.8L114.3,135.8z"/>
		<path class="st1" d="M188,146.9c0,7.5-2.4,13.7-7.2,18.6c-4.8,4.9-11,7.3-18.7,7.3c-7.8,0-14-2.4-18.9-7.3
			c-4.8-4.9-7.2-11.1-7.3-18.6v-11c0-7.5,2.4-13.7,7.2-18.6c4.8-4.9,11.1-7.4,18.8-7.4c7.7,0,13.9,2.4,18.7,7.3
			c4.8,4.9,7.2,11.1,7.2,18.6L188,146.9z M173.8,135.8c0-4.4-1-8-3.1-10.8c-3.9-4.8-11-5.6-15.8-1.7c-0.6,0.5-1.2,1.1-1.7,1.7
			c-2,2.8-3,6.4-3,10.8v11.1c0,4.4,1,8,3.1,10.8c2.1,2.8,5.4,4.4,8.9,4.2c3.4,0.2,6.7-1.4,8.6-4.2c2-2.8,3.1-6.4,3.1-10.8
			L173.8,135.8z"/>
		<path class="st1" d="M228.9,153.6h0.3l13.8-42.8h18.8v61.1h-14.2v-39.4h-0.3L233.8,172h-9.5l-13.2-38.9h-0.3v38.8h-14.2v-61.1
			h18.6L228.9,153.6z"/>
	</g>
</g>
</svg>
