<svg xmlns="http://www.w3.org/2000/svg" viewBox="0 0 655.43 282.58"><defs><style>.cls-1{fill:#fff;}.cls-2{fill:#ed1c24;}</style></defs><title>Asset 4</title><g id="Layer_2" data-name="Layer 2"><g id="Layer_1-2" data-name="Layer 1"><path class="cls-1" d="M334.73,152.29l.08.25A18.54,18.54,0,0,1,329,166.91q-6,5.79-15.88,5.79a20.58,20.58,0,0,1-16.35-7.33q-6.3-7.34-6.31-18.61V135.9q0-11.27,6.31-18.62a20.54,20.54,0,0,1,16.35-7.36q10,0,16,5.51T334.81,130l-.08.25h-7.67q0-6.42-3.65-10.14a12.75,12.75,0,0,0-8-3.61,14.2,14.2,0,0,0-13.54,6.24,23.58,23.58,0,0,0-3.45,13v10.94a23.78,23.78,0,0,0,3.45,13.13,14.18,14.18,0,0,0,13.53,6.23,12.78,12.78,0,0,0,8-3.58q3.64-3.72,3.65-10.25Z"/><path class="cls-1" d="M394.43,146.8q0,11.2-6.93,18.57t-18,7.38q-10.69,0-17.37-7.38t-6.69-18.57V136q0-11.16,6.69-18.57T369.49,110q11.07,0,18,7.4T394.43,136Zm-8-11q0-8.52-4.6-14a15.32,15.32,0,0,0-12.34-5.45,14.23,14.23,0,0,0-11.7,5.45q-4.35,5.44-4.36,14v11.11q0,8.6,4.36,14.05a14.23,14.23,0,0,0,11.7,5.45q7.78,0,12.36-5.43t4.58-14.07Z"/><path class="cls-1" d="M425.05,156.24l1.54,5.07h.28l1.53-5.07,17.5-44.95h9.93l-25.18,61h-7.88l-25.19-61h10Z"/><path class="cls-1" d="M492.43,144.29h-25v21h29v7h-37v-61h37v6h-29v20h25Z"/><path class="cls-1" d="M515.43,145.29v27h-8v-61h19.18q10.7,0,16.35,4.44t5.65,12.92a13.24,13.24,0,0,1-2.62,8.17,17.78,17.78,0,0,1-7.64,5.54q5.37,1.62,7.72,5.3a16.46,16.46,0,0,1,2.36,9.08v5.74a17.82,17.82,0,0,0,.67,5.11,7.64,7.64,0,0,0,2.33,3.69v1H543a7,7,0,0,1-2.12-4.28,35.73,35.73,0,0,1-.46-5.82V156.5a11.32,11.32,0,0,0-2.92-8.13,10.29,10.29,0,0,0-7.82-3.08Zm0-6h12q7.13,0,10.27-2.72c2.09-1.8,3.14-4.56,3.14-8.26,0-3.5-1-6.22-3.06-8.14s-5.2-2.88-9.5-2.88H515.43Z"/><path class="cls-1" d="M595.43,144.29h-25v21h29v7h-38v-61h37v6h-28v20h25Z"/><path class="cls-1" d="M609.43,172.29v-61h19.33q12,0,19.35,7.35t7.32,19V146q0,11.69-7.32,19t-19.35,7.31Zm8-55v48h10.88q8.41,0,13.26-5.57t4.86-14.27V137q0-8.61-4.86-14.18t-13.26-5.57Z"/><path class="cls-1" d="M11.28,84.36l-.06.11c-.09.28-.19.56-.28.81A7,7,0,0,0,11.28,84.36Z"/><path class="cls-1" d="M17.52,72.55l-.07.12.15-.23A.31.31,0,0,1,17.52,72.55Z"/><path class="cls-1" d="M24.43,200.22c.42.64.76,1.14.95,1.44,0-.07,0-.09,0-.1C25.06,201.15,24.74,200.69,24.43,200.22Z"/><path class="cls-1" d="M15.71,76.13c.62-1.19,1.23-2.4,1.74-3.46A24.89,24.89,0,0,0,15.71,76.13Z"/><path class="cls-1" d="M211,260l-.08,0-.51.38A4.71,4.71,0,0,0,211,260Z"/><path class="cls-1" d="M204.36,260.84a.58.58,0,0,1-.11.05l-.69.41A4.31,4.31,0,0,0,204.36,260.84Z"/><path class="cls-1" d="M259.13,60.26a.29.29,0,0,0,0,.08c.12.19.24.38.36.54A6.69,6.69,0,0,0,259.13,60.26Z"/><path class="cls-1" d="M259.84,67.17a.37.37,0,0,1,.05.11l.38.72A4.59,4.59,0,0,0,259.84,67.17Z"/><path class="cls-1" d="M109.15,6.86l-.11,0-.74.33A6.23,6.23,0,0,0,109.15,6.86Z"/><path class="cls-1" d="M202.76,16.8l-.1-.06-.71-.29A7.63,7.63,0,0,0,202.76,16.8Z"/><path class="cls-1" d="M117.7,4.68c1.23-.32,2.45-.66,3.52-1A21.33,21.33,0,0,0,117.7,4.68Z"/><path class="cls-1" d="M121.35,3.65l-.13,0c.08,0,.19,0,.26,0C121.4,3.66,121.37,3.66,121.35,3.65Z"/><path class="cls-1" d="M22.63,222.33a.51.51,0,0,0,0-.1c-.12-.18-.24-.37-.36-.53C22.45,222.07,22.4,222,22.63,222.33Z"/><path class="cls-1" d="M21.91,215.41a1,1,0,0,0-.05-.11l-.38-.73A6.53,6.53,0,0,0,21.91,215.41Z"/><path class="cls-1" d="M79,265.78l.09.06.72.28A5.88,5.88,0,0,0,79,265.78Z"/><path class="cls-1" d="M267.52,208.83c1-1.25,2.29-5.26,3.2-7.36-.21,1-1.84,5.44-2.54,7.2a5,5,0,0,0,.47-1c.81-2.08,1.69-4.31,2.53-6.47l1.15-2.92.9-3,1.92-6.31c.75-3.35,1.31-6.83,1.92-10.14.36-2.58.49-5.24.79-7.83.13-1.29.27-2.57.39-3.82s.11-2.47.16-3.65c.06-.89.14-1.68.17-2.59a48.58,48.58,0,0,0-.11-5.23c-.53-4.73-.94-10.36-2.2-14.73a138.05,138.05,0,0,0,1.54-17.21c.05-.62.13-1.62.15-2a50.59,50.59,0,0,0-.32-6l-.63-7.07a6.56,6.56,0,0,0,0-.89c-.47-3.65-1.55-9.28-2.39-12.91-.51-1.92-1-4-1.55-5.79-.08-.25-.17-.55-.25-.83l-.35-1.44c-.7-3.37-2.27-6.52-3.42-9.69-.69-1.73-1.29-3.49-2-5.16l-2.44-5-2.44-4.94c-.83-1.64-1.88-3.16-2.82-4.77.8,1.64,2.07,3.47,2.75,5.2.31.76,1.6,3.71,1.55,3.84a17,17,0,0,1-1.16-2,44.55,44.55,0,0,0-2.77-4.78c-2.2-3.49-4.59-7.27-5.27-8.33,0,.06,0,.08,0,.09a52.06,52.06,0,0,1,3.4,6,51.23,51.23,0,0,1,3.94,6.88l1.63,3.22c-1.49-2.2,3.42,7.35,3.64,8.89.41,1.16,1.55,4.72.65,2.65-1-2.32-2.18-6.5-3.42-8.67l-2.84-5.52c-.29-.59-.71-1.46-1.13-2.3s-.91-1.57-1.11-2.06c-1.43-2.15-3.43-5.63-4.8-7.89-.9-1.5-2-2.81-2.93-4.2-1.31-1.79-2.58-3.31-3.83-4.94.42.81,5.42,7.38,2.39,3.75.57.79,1.5,2.06,1.92,2.75.31.49.26.58.5,1,.7.83,3.38,5.46,2.5,4.41.54,1.3,2.57,4.42,3.61,6.19-.64-.71-2.82-4.24-3.79-5.61.21.39.2.35.5.84l3.22,5.23c1,1.56,1.67,3.31,2.51,5,.36.75.68,1.45,1,2.14-2.5-5.44-6.86-11.93-7.82-13.61a.63.63,0,0,1,0,.13c.75,1.14,1.6,2.54,2.37,3.9-.31-.51-.63-1-.93-1.49-1.13-1.7-2.55-3.93-3.73-5.46-.74-.92-1.62-1.79-2.27-2.63.87,1.15,1.78,2.28,2.59,3.47s1.5,2.49,2.24,3.72c1.44,2.47,3,4.83,4.13,7.19,1.41,3,2.77,5.77,3.59,8.16v0c-.77-1.59-1.93-3.94-2.28-5-1.41-3-4-7.45-5.79-10.36a55.34,55.34,0,0,0-3.51-5.58c-1.69-2.3-3.3-4.25-4.91-6.36.53,1.05,6.93,9.5,3,4.82.72,1,1.92,2.65,2.45,3.54a13,13,0,0,1,.55,1.32c.6,1.25,4.19,7.09,3,5.76a32.11,32.11,0,0,0,2,3.74c.77,1.57,1.57,3.24,2.15,4.42A37.15,37.15,0,0,1,257,65.11a40.82,40.82,0,0,0-2.51-4c.27.51.26.45.64,1.08a65,65,0,0,1,3.67,6.93c1,2.17,2.1,4.28,3,6.47.87,2.47,1.59,4.52,2.49,7a108.12,108.12,0,0,1,3.4,11.15l.35,1.32v0a28.79,28.79,0,0,0,.33,4c.19,1.77.51,3.65.82,5.54l-.24-.6c-.28-1.58-.56-3.19-.82-4.78-1-4.87-2.38-9.51-2.95-13.17.15.84-.45-.59-.83-1.38a24,24,0,0,1,1.37,5.91c.31,2.6.95,4.18,1.75,7.86.18,1,.35,2.09.53,3.14-.53-1.33-1-2.69-1.59-4l-.52-1.06c-.41-1.34-.82-2.59-1.15-3.43-.22-.56-.11,0-.41-.9.26.9.52,1.83.78,2.75l-.71-1.44-.83-1.69-.88-4.16c0-.51-.95-2.71-1.29-3.83-.18-.54-1-3.35-1.06-3.56,0-.69,2.43,5.07,2.94,6-.3-1.26-1.4-4.4-1.94-6l-1.51-4.47-2-4.38c-.94-2.09-2-4.34-3.06-6.51-2.1-3.48-3.64-6.24-5.52-9.63-1-1.55-2-2.93-2.84-4.31-.28-.45-.59-1.05-.92-1.53a47.41,47.41,0,0,0-3.71-4.85l-4.22-4.45c-1.28-1.35-2.52-2.89-3.82-4.06l-4.93-4c-.89-.72-1.88-1.35-2.65-2l6.23,5.54a66.63,66.63,0,0,1,5.44,5.83c2.12,2.43,4.22,4.49,5.35,6.7l-.51-.48c1.79,2.54,3.67,5.09,5.29,7.51.72,1.12,1.28,2.35,2,3.56,1,1.94,1.57,3.17,2.48,5a13.3,13.3,0,0,1,1.64,4.45,13.7,13.7,0,0,0,1.16,3.68c.8,2,2,4.1,2.75,6.36s1.59,4.45,2.21,6.52A84.94,84.94,0,0,0,255.05,72c-1.08-2.13-2-4.34-3.05-6.26s-2.08-3.72-2.86-5.34c.33.78-.55-.44-1-1.11a36.29,36.29,0,0,1,2.72,5.18l3.39,7c.67,1.41,1.35,2.84,2,4.25a39.66,39.66,0,0,1,2,5.85c.45,1.61,1.05,3.3,1.62,5L259,85.2l-1.72-4.71-1.2-3.16-1.52-3c-1.15-2.18-2.87-5.72-4-7.3-.37-.46-.11,0-.65-.73,2,3.33,3.67,7.08,5.52,10.48a53.41,53.41,0,0,1,2.14,5.06c.27.75.52,1.53.76,2.29L256,80.55l0,.08A46.86,46.86,0,0,1,258.59,85c.19.6.36,1.16.53,1.73-1-1.67-2.22-3.7-3.09-5.14-.74-1.23-1.62-2.31-2.41-3.46-.5-.67-1-1.29-1.45-1.89-.51-1.12-1-2.23-1.49-3.32a42.88,42.88,0,0,0-3-6c-2-3.24-3.28-6-5.28-9-1-1.42-1.89-2.74-2.69-4-.26-.43-.54-1-.85-1.45-1.65-2.84-5.45-6.15-7.59-8.61l-1.79-2c-.62-.62-1.3-1.18-1.92-1.71l-4.64-3.76c-.84-.67-1.77-1.25-2.5-1.88,1.95,1.72,3.92,3.48,5.85,5.2.95.87,1.92,1.71,2.81,2.59l2.43,2.76a55.21,55.21,0,0,1,5.14,6.18l-.47-.43c1.67,2.38,3.42,4.77,4.94,7.06a25.26,25.26,0,0,1,2,3.23c1,1.83,1.46,3,2.31,4.7A17.21,17.21,0,0,1,247,69.9a12.77,12.77,0,0,0,1.06,3.48c.33.79.7,1.6,1.07,2.41l-.29-.36c.06.12.21.34.41.64.49,1.06,1,2.13,1.51,3.21.82,2.06,1.5,4.18,2.09,6.12-.59-1.77-1.28-3.75-2-5.79-1-2-2-4-2.92-6-1.77-4.16-4.33-7.73-5.67-10.81.3.72-.53-.41-1-1a35,35,0,0,1,2.54,4.87c.89,2.2,1.91,3.36,3.29,6.49l1.91,4c.5,1,.86,1.9,1.19,2.73s.51,1.69.82,2.7c0,.08.05.16.07.23-.51-.75-1-1.51-1.47-2.23-.69-1.59-1.44-3.15-2.27-4.64-1.08-2-2.64-5.38-3.89-6.73-.34-.44-.11,0-.61-.67,2.15,3,3.55,6.55,5.32,9.69l.23.43a34.5,34.5,0,0,0-2.7-3.5l-3.49-3.66c-.39-.41-.77-.85-1.16-1.29a25.42,25.42,0,0,0-1.58-2.83c-1.85-2.89-3.9-5.71-5.82-8.48l-2.72-3.25-1.17-1.81L226,48.94c1.91,2.38,4,4.52,5.71,7.15a138.07,138.07,0,0,0-15.67-19.32l-1.37-1.55a47.26,47.26,0,0,0-4.65-4.06l-5.64-4.59a7.69,7.69,0,0,0-.67-.62c-3-2.25-7.92-5.44-11.19-7.4-1.78-1-3.64-2.07-5.35-3-.24-.11-.52-.25-.78-.39L186,15c.88.21,1.78.39,2.56.64-1.14-.36-2.27-.74-3.4-1.13l-.06,0a28.2,28.2,0,0,0-3.84-1.94l.35.08c1.94.61,3.76,1.34,5.63,2,2.44.89,4.72,1.31,6.89,2.4-.77-.92-10.07-3.65-4.68-2.27-1.07-.4-2.83-1-3.69-1.4-.63-.28-.64-.41-1.15-.65-1.09-.7-6.91-2-5.75-2l1.55.33c4.18.95,8.16,2.51,12.23,3.75,3.88,1.77,7.88,3.3,11.7,5.36-1.72-1.3-4.17-2.15-6.06-3.25-.84-.45-4.2-2.17-4.27-2.34a17.15,17.15,0,0,1,2.61.95l6,2.5c4.39,2.19,9,4.91,10.3,5.64a.25.25,0,0,1-.08-.09A56.54,56.54,0,0,1,206,19.16c-2.37-1.38-5.9-2.84-8.55-4.11l-3.95-1.69c3.15.52-9.06-3.4-10.72-4C181.34,9,177,7.78,179.7,8.21c3.05.29,7.78,2.58,10.64,3.43,1.16.38,2.31.67,3.46,1.06s2.28.94,3.53,1.49c1.44.65,4.29,1.88,5.33,2.55,2.89,1.17,7,3.92,9.73,5.49a44.6,44.6,0,0,1,5.09,3.57c2.17,1.6,4.18,2.91,6.22,4.37-.75-.82-9-6.67-4.1-3.53-.95-.73-2.51-1.89-3.25-2.54-.54-.48-.52-.6-.95-1-1-1-6.74-4.09-5.11-3.58a29.74,29.74,0,0,0-3.46-2.22L204.64,16l-2-.91c1.22.1,5.65,2.71,7.55,3.62-.47-.31-.44-.25-1.05-.61a57.47,57.47,0,0,0-6.74-3.56l-6.27-2.86a54.69,54.69,0,0,0-6.72-2.6l-5.35-1.77c-1.8-.55-3.66-.84-5.43-1.27-2.78-.51-5.56-1.42-8.36-1.69s-5.51-.82-8-1.33a16.93,16.93,0,0,0-2.78-.41c-1.53-.1-4-.13-5.65-.17l-4-.07-4.17.34c-1.34.13-2.67.22-4,.34-2.13-.23-4.06-.34-6-.54.5.15,3.37.47,4.92.68-1,.1-2,.21-2.88.38-3,.65-5.83,1.29-9,1.77-3.87.79-7.69,1.91-11.61,3l-1.48.56-1.44.21c-1.15.18-2.31.5-3.35.62l3.54-.37-2.72,1a41.67,41.67,0,0,0-5.15,1.8l-.28.14-2.69.5.51-.27c1.66-1,4.53-2.09,5.85-2.8.42-.22,0-.09.66-.4L106.18,11c-.93.44-1.8.93-2.69,1.41l-2.21.4,1-.49a83.24,83.24,0,0,1,10.47-4.52c-2.11.64-4.62,1.62-6.8,2.29-.94.31-4.51,2-4.67,1.9-.39-.4,10.27-5.19,16.46-7.35-1.72.46-3.4.9-4.54,1.25-2.58,1.21-6.4,2.39-9.18,3.71l-4,2.1c1.36-1-.93.1-3.78,1.52-.42.2-.84.42-1.26.65l-1.23.36c1-.55,1.91-1,2.69-1.41,2.29-1.21,4.32-2.43,6.88-3.72A31,31,0,0,1,109,6.88c1.49-.64,3.42-1.39,5.38-2.12s4-1.14,5.6-1.63l6.24-1.61L134,0c-1.16,0-11.42,1.87-5.59.5-1.24.12-3.18.65-4.17.82-.74.13-.81,0-1.41.13-1.36.23-7.91,2.1-6.33,1.32-1.82.11-6.2,2.14-8.67,3,1-.64,6-2.7,8-3.48a5.88,5.88,0,0,0-1.2.37l-7.39,2.9-3.34,1.31-3.22,1.6L93.92,11.8c-1.6.94-3.17,1.95-4.74,2.95a53,53,0,0,0-6.55,2.45L76.11,20a56.8,56.8,0,0,0-6.65,3.36c-1.67,1-3.38,1.94-5.07,2.91s-3.2,2.24-4.75,3.33c-2.34,1.79-5,3.31-7.14,5.3s-4.48,3.7-6.63,5.3a17.11,17.11,0,0,0-2.26,1.87c-1.14,1.12-2.9,3-4.1,4.28l-2.89,3.09L33.93,53c-1.75,2.37-3.62,4.6-5,6.83-1.62,2.77-3.16,5.46-5,8.29-2.14,3.59-4,7.37-6,11.18l-1,2.53-1.36,3.13a45.61,45.61,0,0,0-2.29,5.31c-1.34,4.08-2.74,8.16-4,12.23-.21.77-.53,2-.66,2.47-.26,1.18-.54,2.59-.79,4,0,0-.07-.09-.06-.31.58-2.73,1-5.53,1.76-8.21s1.56-5.34,2.25-8c.42-2,1.65-5,2.06-6.57.13-.48-.07-.06.17-.8l-1.73,4.63c-.49,1.57-.88,3.18-1.3,4.73s-.7,2.91-1.14,4.42a51.52,51.52,0,0,0-1.5,5l-.14.55c.14-1.15.27-2.15.27-2.53-.23.73-.57,2.14-.88,3.54a94,94,0,0,1,2.89-11.74,91.31,91.31,0,0,1,4.06-11.42c-1,2.11-2.08,4.77-3.11,6.95-.44,1-1.72,4.94-1.9,5-.57,0,3.42-11.76,6.2-18.12-.87,1.66-1.74,3.3-2.29,4.44-.93,2.89-2.75,6.71-3.73,9.82C9.24,92,8.84,93.5,8.44,95c.25-1.75-.58.8-1.54,4s-1.51,7.3-1.8,8.25c-.34,1.59-1.47,6.44-1.1,3.45.22-1.68.7-3.91,1.2-6.14s1-4.43,1.54-6c.72-2.64,1.26-5.11,2.11-8a33.89,33.89,0,0,1,2.37-6.1c.57-1.63,1.38-3.68,2.22-5.72s2-4,2.75-5.54c1.09-2,2.15-4,3.22-6,1.53-2.53,2.89-4.78,4.32-7.12-.84.86-6.67,10.24-3.56,4.72-.79,1-1.77,2.93-2.33,3.84-.43.66-.56.64-.91,1.19-.78,1.22-4,7.67-3.48,5.88-1.2,1.5-2.79,6.37-3.89,8.93.26-1.27,2.23-6.61,3.09-8.75a6.74,6.74,0,0,0-.58,1.2c-1,2.52-2,5.23-3.07,7.85L7.61,88.47,6.52,92.13,4.18,99.79c-.91,4.07-1.58,8.29-2.32,12.31-.44,3.13-.6,6.37-1,9.5-.16,1.57-.32,3.12-.48,4.64s-.14,3-.2,4.43c-.06,1.07-.17,2-.2,3.15a56.62,56.62,0,0,0,.14,6.34c.65,5.79,1.14,12.68,2.7,18,.31,1.27.61,2.52.91,3.77,0,1.61.27,3.43.35,4.88l.63,7.07a8.81,8.81,0,0,0,0,.9c.48,3.65,1.56,9.27,2.4,12.91.51,1.93,1,4,1.54,5.79.08.25.17.55.26.82l.35,1.44c.7,3.38,2.27,6.53,3.41,9.7.7,1.72,1.3,3.48,2.06,5.16l2.44,5,2.44,4.94c.83,1.63,1.88,3.16,2.82,4.76-.8-1.64-2.07-3.45-2.75-5.2-.31-.76-1.6-3.71-1.55-3.82a15.68,15.68,0,0,1,1.16,2A45.52,45.52,0,0,0,22.12,223l5.27,8.33c0-.06-.05-.09,0-.09A50.43,50.43,0,0,1,24,225.33,50.33,50.33,0,0,1,20,218.44l-1.63-3.21c1.48,2.2-3.42-7.36-3.64-8.89-.41-1.16-1.55-4.72-.65-2.65,1,2.32,2.18,6.49,3.42,8.67l2.84,5.52c.28.58.71,1.45,1.13,2.3s.91,1.58,1.11,2c1.43,2.16,3.43,5.64,4.8,7.9.9,1.49,2,2.81,2.93,4.19,1.31,1.8,2.58,3.31,3.82,5-.41-.8-5.41-7.38-2.38-3.75-.57-.79-1.51-2.06-1.92-2.74-.31-.5-.27-.58-.51-1-.69-.83-3.37-5.46-2.49-4.42-.54-1.29-2.57-4.42-3.61-6.18.64.7,2.82,4.24,3.79,5.6-.21-.38-.21-.34-.5-.82l-3.22-5.24c-1-1.56-1.67-3.32-2.52-5-.35-.74-.67-1.44-1-2.13,2.5,5.44,6.86,11.93,7.82,13.6a.38.38,0,0,1,0-.12c-.75-1.15-1.6-2.54-2.37-3.91l.93,1.5c1.12,1.7,2.54,3.92,3.72,5.47.75.9,1.62,1.78,2.28,2.61-.87-1.14-1.78-2.27-2.6-3.47l-2.24-3.71c-1.43-2.47-2.95-4.84-4.12-7.18-1.42-3-2.77-5.77-3.6-8.16h0a50.89,50.89,0,0,1,2.28,5c1.42,3,4.05,7.45,5.8,10.35a55.94,55.94,0,0,0,3.5,5.58c1.69,2.31,3.31,4.26,4.91,6.36-.52-1-6.92-9.49-3-4.81-.72-1-1.92-2.66-2.45-3.53a12.69,12.69,0,0,1-.55-1.33c-.6-1.25-4.19-7.09-3-5.76a33.72,33.72,0,0,0-2-3.74c-.77-1.57-1.58-3.24-2.15-4.42a36.6,36.6,0,0,1,2,3.46,39.63,39.63,0,0,0,2.51,4c-.27-.5-.27-.44-.64-1.06a64.37,64.37,0,0,1-3.67-7c-1-2.16-2.11-4.27-3-6.47-.68-1.93-1.3-3.65-1.95-5.51l.29.52c.9,1.27,1.86,2.53,2.77,3.9.53.82,1.05,1.67,1.56,2.51l0,.07c-1.15-1.46-2.48-3.23-2.88-3.66.66,1.28,2.65,4.37,3.66,6a17,17,0,0,0,.94,1.5c.17.39.35.77.53,1.17-.19-.24-.39-.47-.58-.7.21.29.44.58.66.87.62,1.35,1.26,2.71,1.95,4.06,2.1,3.5,3.63,6.25,5.51,9.63,1,1.55,2,2.94,2.85,4.32.28.45.59,1,.92,1.53A48.53,48.53,0,0,0,39.94,238c1.51,1.59,3,3.18,4.23,4.44s2.51,2.89,3.81,4.07l4.93,4c.89.71,1.87,1.34,2.65,2L49.33,247a71.39,71.39,0,0,1-5.45-5.82c-2.11-2.43-4.21-4.5-5.35-6.71l.52.48c-1.79-2.54-3.67-5.09-5.29-7.52-.72-1.11-1.28-2.34-2-3.56-.84-1.56-1.35-2.67-2-4,.7.89,1.4,1.78,2.1,2.69,2.72,3.17,5.68,6.15,8.48,9.21a16.65,16.65,0,0,0,1.42,1.5c1.37,1.22,3.32,2.8,4.75,4l2.22,1.8.15.15a35.14,35.14,0,0,0,5.38,4l4.85,3.19c.75.57,1.55,1.1,2.2,1.66l-1-.9a50.77,50.77,0,0,0,4.9,2.85l2.7,1.36,3.85,2.27c2.33,1.16,4.76,2.13,7.16,3.09l1.76,1.13,4.08,2.51c1.43.72,2.86,1.48,4.35,2.32l5.5,3.08c1.87,1,3.87,1.7,5.84,2.56l2.49,1-1-.23a54.36,54.36,0,0,1-5.72-1.45c-1-.27-2.11-.44-3-.74,2.47.77,4.94,1.69,7.4,2.43l5.41,1.34.12.06a24.64,24.64,0,0,0,4.28,1.53c-3-.51-7.34-1.66-10.26-2.33-1.94-.61-3.77-1.35-5.63-2-2.43-.89-4.73-1.32-6.89-2.4.77.92,10.06,3.65,4.68,2.27,1.07.4,2.83,1,3.69,1.4.63.29.64.41,1.15.64,1.09.71,6.91,2,5.75,2l-1.55-.32c-4.18-1-8.16-2.51-12.24-3.75-3.88-1.78-7.87-3.31-11.69-5.36,1.72,1.3,4.17,2.15,6.06,3.25.84.45,4.2,2.17,4.26,2.33a15.55,15.55,0,0,1-2.6-.95l-6-2.49c-4.39-2.19-9-4.91-10.31-5.64.07.05.08.07.08.09a54.09,54.09,0,0,1,7,4.35c2.36,1.37,5.9,2.83,8.55,4.1l4,1.69c-3.16-.52,9,3.4,10.72,4,1.41.35,5.7,1.55,3,1.12-3-.28-7.78-2.57-10.63-3.42-1.17-.38-2.31-.67-3.46-1.07s-2.28-.93-3.53-1.49a58.52,58.52,0,0,1-5.34-2.54c-2.88-1.19-6.94-3.92-9.73-5.48a45.54,45.54,0,0,1-5.08-3.59c-2.17-1.6-4.18-2.9-6.23-4.36.76.82,9,6.67,4.11,3.54,1,.73,2.51,1.88,3.25,2.53.54.47.51.6,1,1,1,1,6.74,4.09,5.1,3.58a32.09,32.09,0,0,0,3.48,2.23l2.18,1.25,2,.91c-1.22-.1-5.65-2.71-7.55-3.63.47.32.44.27,1,.63A59.72,59.72,0,0,0,79.37,268l6.27,2.85a56.9,56.9,0,0,0,6.71,2.61l5.36,1.77c1.8.55,3.65.83,5.43,1.26,2.78.53,5.55,1.42,8.36,1.69s5.51.83,8,1.33a15.93,15.93,0,0,0,2.78.41c1.53.11,4,.13,5.64.17l4,.08,4.17-.34.45,0a128.38,128.38,0,0,0,13.53.81l2,.11a47.39,47.39,0,0,0,5.82-.47l1.33-.16-3.74,1-7.73,1.52c1.16,0,11.42-1.87,5.59-.51,1.24-.11,3.18-.63,4.17-.82.74-.12.81,0,1.41-.13,1.36-.22,7.91-2.09,6.33-1.31a15,15,0,0,0,3.47-1l1.51-.33c-1.6.69-3.32,1.39-4.32,1.77a5.78,5.78,0,0,0,1.2-.36l4.08-1.6c2.44-.55,4.93-1.14,6.85-1.66s3.82-1.14,5.55-1.72l.8-.28,1.37-.39c3.26-.8,6.25-2.49,9.28-3.74,1.65-.75,3.33-1.41,4.93-2.23l4.7-2.62,4.69-2.62c1.57-.9,3-2,4.52-3-1.56.86-3.28,2.21-4.93,3-.73.33-3.54,1.73-3.66,1.68a14.35,14.35,0,0,1,1.93-1.24,41.14,41.14,0,0,0,4.53-3l7.87-5.61c-.12.08-.09,0-.08,0a49.57,49.57,0,0,1-5.64,3.63,50.32,50.32,0,0,1-6.52,4.22c-1.1.62-2.07,1.17-3.06,1.75,2.07-1.58-7,3.68-8.49,3.94-1.11.44-4.52,1.7-2.55.73,2.22-1.09,6.23-2.39,8.29-3.71,1.73-1,3.32-1.94,5.24-3.05l2.18-1.22c.78-.48,1.5-1,2-1.19,2-1.51,5.33-3.65,7.47-5.11,1.41-1,2.64-2.08,4-3.12.53-.44,1-.87,1.51-1.31s1.1-.62,1.64-.94c1.38-.83,2.63-1.84,3.92-2.73,1.93-1.48,4.08-2.73,5.88-4.37s3.69-3,5.46-4.37a14.15,14.15,0,0,0,1.87-1.54c.94-.92,2.38-2.49,3.37-3.53l2.38-2.55c.74-.95,1.48-1.92,2.22-2.88,1.45-1.95,3-3.79,4.09-5.62,1.34-2.29,2.6-4.5,4.16-6.84,1.76-3,3.3-6.07,4.95-9.21l.84-2.08,1.12-2.58a37,37,0,0,0,1.9-4.37c1.1-3.37,2.25-6.72,3.27-10.09l.54-2c.22-1,.45-2.13.66-3.28,0,0,.05.07,0,.26-.48,2.24-.79,4.55-1.45,6.76s-1.28,4.4-1.85,6.57c-.35,1.67-1.36,4.15-1.7,5.42-.11.4.06.05-.14.66l1.43-3.82c.4-1.29.72-2.62,1.06-3.89s.59-2.4.95-3.64,1-2.85,1.24-4.17c0-.13.07-.29.1-.44-.11.94-.21,1.77-.21,2.07.19-.59.46-1.75.72-2.91A77.54,77.54,0,0,1,270,194a74.71,74.71,0,0,1-3.34,9.41c.84-1.73,1.71-3.93,2.55-5.72.37-.79,1.42-4.07,1.57-4.13.47,0-2.82,9.69-5.11,14.93.72-1.37,1.44-2.72,1.89-3.66.77-2.37,2.27-5.53,3.08-8.09.36-1.36.69-2.57,1-3.8-.21,1.44.47-.66,1.27-3.33s1.24-6,1.47-6.8c.29-1.31,1.22-5.31.91-2.84-.18,1.38-.58,3.22-1,5.06s-.85,3.65-1.26,5c-.6,2.18-1.05,4.22-1.74,6.61a28.37,28.37,0,0,1-2,5c-.47,1.34-1.14,3-1.83,4.71s-1.64,3.26-2.26,4.56l-2.66,5L259,221.71c.7-.72,5.5-8.44,2.94-3.9.65-.86,1.45-2.41,1.92-3.16.35-.55.46-.53.75-1C265.29,212.66,268,207.35,267.52,208.83ZM267.58,85c.49,1.57.79,2.88.93,3.38s.38,1.73.6,2.67C268.56,88.9,268.07,87,267.58,85ZM80,21.17l-.5.21,0,0-.08.05,0,0-4,1.86c2.61-2.09-8.87,4.63-10.5,5.49-1.25.83-5.17,3.32-3,1.56,2.36-2.18,7.37-4.22,10-5.84,1.11-.63,2.13-1.32,3.23-1.93s2.29-1.11,3.58-1.68c1-.43,2.52-1.13,3.84-1.68C81.76,19.84,80.89,20.49,80,21.17Zm7.7-5.48-2.45.8-2.09.91c.66-.62,3.34-1.58,5.58-2.39l-1,.67Zm-.95,3.18c-.33.12-.66.23-1,.36l.08-.06,1.19-.46Zm2.63-1.52-.39.23-.52.11c-.36.12-.77.28-1.17.43.75-.5,1.6-1,2.48-1.56l1.58-.48C90.48,16.69,89.76,17.18,89.42,17.35Zm14-4.88-.75.39C101.61,13.05,101.41,13,103.45,12.47Zm-5.4,2.9c-1,.26-2.06.56-3.08.85l1.09-.61.67-.22H96.6l-.41.14c1-.55,2-1.09,3-1.61.76-.14,1.52-.27,2.28-.43l.06,0c-1.06.59-2.12,1.2-3.25,1.77Zm2.6-.61c-.68.16-1.36.3-2,.48,1.27-.65,2.52-1.29,3.76-2,1-.21,1.92-.41,2.84-.63ZM227.54,246.22c-1.71,1.57-5,3.05-7.33,4.3.2-.2.41-.41.61-.58l-.87.72c-.21.12-.47.25-.66.37l-.12.07c.05,0,.12-.08.17-.13.28-.23.51-.44.77-.66,2.1-1.18,4.37-2.48,5-2.81C226.12,246.81,229.35,244.76,227.54,246.22ZM215.13,255c-1,.74-2.17,1.54-3.34,2.28l1.42-1,1.45-1.07ZM22,195.65c-.17-.28-.36-.62-.55-1-.15-.52-.3-1-.42-1.58,0-.14-.06-.27-.1-.41.22.36.45.77.69,1.2.17.6.32,1.21.53,1.79s.4,1.11.61,1.66C22.49,196.73,22.22,196.13,22,195.65Zm1,2.52c.37,1,.73,2,1.09,3-.41-.63-.82-1.28-1.21-1.92-.34-1-.7-2-1.05-3.11ZM178,19.27l.55.21-.27-.09Zm80.4,76.85c-.11-.26-.23-.52-.36-.79l.22.27C258.33,95.77,258.38,95.94,258.42,96.12Zm3.65,6c-.15-.94-.36-1.85-.55-2.75.2.45.44.89.63,1.35l.86,2.44.21,1.27-1-1.42-.12-.74a2.75,2.75,0,0,0,.2.23C262.24,102.36,262.15,102.2,262.07,102.08Zm-2.91-11c-1.1-2-2.39-4.18-3.36-5.79-.28-.46-.55-.93-.82-1.4-.1-.32-.21-.63-.31-.94.48.79,1,1.59,1.44,2.38,1.18,2,2.43,4,3.4,5.92.51,1.11,1,2.15,1.47,3.16.1.39.19.72.29,1a14.28,14.28,0,0,1-.69-1.64c-.36-.77-.83-1.66-1.33-2.58-.08-.29-.16-.54-.25-.83C259.06,90.61,259.11,90.84,259.16,91.06Zm7.65,11.18c.08.43.17.86.25,1.28l-.07-.15c-.65-1.49-1.37-3.88-2.14-5.72l-.15-.71a30.71,30.71,0,0,1,1.75,4.24Zm-5.76,9.61v.08a2,2,0,0,1-.14-.25S261,111.7,261.05,111.85Zm-5.83-11.53c.16.67.28,1.4.42,2.11l-.8-1.11-.28-.68c0-.18-.1-.35-.14-.52.05.07.13.15.17.21.26.31.06,0,.45.48-.19-.31-.45-.58-.67-.88s-.21-.82-.31-1.23C254.45,99.23,254.85,99.77,255.22,100.32ZM186.88,265.67l.82-.33c-.48.37-.91.69-1.13.88a20.25,20.25,0,0,1-2.28.72C185.18,266.53,186.05,266.11,186.88,265.67ZM255.4,102.53l-.14-.19c0-.07,0-.13-.07-.19l.54.76a1.42,1.42,0,0,1,0,.2Zm3.67,3.62s0-.07,0-.1c.21.33.43.66.63,1,.28.83.58,1.69.86,2.56l-.28-.5C259.91,108.17,259.49,107.15,259.07,106.15Zm8.7,20.84c0-.29,0-.54,0-.83,0,.11.05.19.09.31,0,.38.08.78.11,1.19C267.94,127.46,267.85,127.22,267.77,127Zm.4-13.6c-.44-1.78-.85-3.37-1.26-5,.41,1.29.66,2.37.77,2.79S268,112.61,268.17,113.39ZM264.22,116l-.09-.17-.22-.4c-.08-.3-.15-.6-.21-.91.19.37.34.77.52,1.14ZM186.3,265.36l2.11-1.13,1.3-.79.54-.21c-1.06.68-2.13,1.35-3.21,2-1.13.48-2.28.94-3.35,1.36C184.57,266.18,185.45,265.79,186.3,265.36Zm77.18-159.45c0,.16,0,.3.07.45l-.52-1c-.21-.4-.43-.78-.59-1.06s-.09-.49-.13-.74c.35.53.7,1.06,1,1.59C263.39,105.38,263.44,105.64,263.48,105.91Zm-1.94-3.1-.68-1-.33-1-.09-.2c.34.5.64,1,1,1.53C261.46,102.36,261.51,102.58,261.54,102.81Zm-.64,8c0,.1.05.2.08.3s.06.48.07.71a10.11,10.11,0,0,0-.31-1.28A2.4,2.4,0,0,0,260.9,110.76ZM182.64,267.07c.83-.23,1.59-.43,2.23-.62l-.14.08-1,.52c-.56.12-1.12.21-1.74.33Zm2.29,0-.61.24a18.33,18.33,0,0,1-1.83.57l.76-.41Zm1.31-.5c.33-.19.85-.45,1.24-.67-.23.1-.39.15-.61.23.64-.33,1.53-.84,2.43-1.37h0a30.72,30.72,0,0,1-2.61,1.63ZM261.47,93.41l.42.91a.19.19,0,0,1,0,.07c-.18-.37-.36-.74-.56-1.12a1.74,1.74,0,0,0-.05-.22Zm-.11,8.34-.13-.18c-.44-.66-.87-1.37-1.29-2.06l0-.06c.45.57.93,1.19,1.34,1.73C261.3,101.37,261.33,101.56,261.36,101.75ZM153.46,14.23l1.36.25h-.37ZM17.56,188.55l.27.48c.09.37.17.73.25,1.12a28.44,28.44,0,0,1-1.6-3.56.64.64,0,0,0,0-.09A22.85,22.85,0,0,1,17.56,188.55ZM28.87,204.7c.09.2.16.41.26.61-.49-.76-1.06-1.65-1.36-2.19a5.16,5.16,0,0,1-.26-.59Zm.35.81c.16.39.34.76.51,1.14C28.78,205.18,28.12,204.06,29.22,205.51Zm82.56,52,1.52.12.17.05.29.13-1.82-.2Zm68,10.92,2.88-.79c-.31.15-.61.31-.91.47-.72.18-1.41.35-2,.53l-.89.23Zm30.79-13c.7-.54,1.41-1.07,2.11-1.63.14-.06.28-.13.42-.18l0,0,.06,0h0l3.32-1.54-.14.13-.11.06c-.59.32-2.21,1.4-3.57,2.27ZM276,140l0-.12c.05-.34.09-.65.14-1C276.1,139.27,276.07,139.64,276,140Zm1.2-15.64c0,.82-.06,1.57-.08,2.31,0-.89,0-1.75.06-2.56C277.22,124.23,277.23,124.32,277.23,124.37Zm-17.65-37.5-.18-.5c.24.37.48.76.73,1.17.19.61.4,1.2.54,1.83-.28-.5-.56-1-.69-1.29L259.9,88C259.79,87.59,259.71,87.23,259.58,86.87ZM254,79.4c.26.41.22.47.42.81.57.68,2.78,4.5,2.06,3.64.44,1.06,2.11,3.64,3,5.1-.53-.59-2.32-3.5-3.12-4.62.17.31.17.28.41.68l2.65,4.31a13.59,13.59,0,0,1,.7,1.3c0,.2.09.39.13.58C258.39,88,256.41,85,255.85,84a.19.19,0,0,1,0,.1c.62.94,1.32,2.09,1.95,3.21-.26-.41-.52-.83-.76-1.23-.81-1.22-1.78-2.71-2.67-3.93l-.32-1a27.25,27.25,0,0,0-1.3-3.55C253.22,78.23,253.74,79,254,79.4Zm-1.29-1.92c-.08-.18-.15-.37-.23-.55C253.19,77.91,253.59,78.51,252.72,77.48Zm.63,4.75a.56.56,0,0,1,.05.08,10.64,10.64,0,0,1,.45,1.09c.5,1,3.46,5.84,2.48,4.75A29,29,0,0,0,258,91.23c.62,1.29,1.3,2.66,1.76,3.63a30,30,0,0,1-1.6-2.85,34,34,0,0,0-2.07-3.27c.22.42.22.36.53.88a52.62,52.62,0,0,1,3,5.73c.33.69.64,1.39,1,2.08.22,1,.34,2.07.52,3.1l-1.88-3-.12-.18c-.29-.88-.6-1.74-.82-2.49-.33-1-.79-2-1.06-3,.33,1.21.66,2.44,1,3.66l-.27-.36c-.51-1.11-1-2.24-1.61-3.35l-.28-.48a25.56,25.56,0,0,0-.76-3.14c-.1-.44-.94-2.53-1.27-3.6C254,84.3,253.6,83.11,253.35,82.23Zm-1,4.38c.24.71.48,1.42.73,2.14l-.75-1,0,0c-.35-1.08-.71-2.16-1.09-3.22C251.57,85.21,251.94,85.9,252.33,86.61ZM246.85,78l-.42-.4c1.38,2,2.81,3.92,4.09,5.81.43,1.24.81,2.49,1.18,3.69-1.29-1.45-2.6-2.87-3.93-4.28-.64-1.41-1.27-2.76-1.83-3.87-.94-1.76-1.91-3.64-2.85-5.27-.25-.44-.55-.94-.83-1.42l.18.21C244.18,74.47,245.91,76.17,246.85,78ZM216.11,37.66l1.64,1.72-1.84-1.89A1.31,1.31,0,0,1,216.11,37.66Zm-9.58,3.94,3.38,2.85.12.1.81.79c.54.56,1.09,1.15,1.59,1.7l-1-.65c-.51-.43-1-.85-1.59-1.3-.26-.22-.6-.51-1-.79A27.27,27.27,0,0,0,206,41.47c-1.47-1.24-2.84-2.29-4.23-3.41C203.46,39.23,205.1,40.4,206.53,41.6Zm-5.09-3.74c.27.25.75.69,1.32,1.19l-1.64-1.16-1.45-1.23Q200.57,37.24,201.44,37.86Zm-13.31-14h0c.23.24.42.42.61.59l-.38-.21.52.32s0,0,0,.05a84.41,84.41,0,0,0-8-4.05h0l-.58-.37c1.21.46,2.4.91,3.33,1.28,1.08.58,2.15,1.17,3.21,1.72Zm-4.64-5.22,2.39,1.46-5.52-3.15C181.85,17.67,183,18.37,183.49,18.62Zm-12.31-8.41.83.16a7.48,7.48,0,0,1,1.5.7c.24.11.59.26,1,.44l-.49-.12c-.45-.14-.9-.23-1.34-.33l-2-.88c.27,0,.27,0,.66.06l-.11,0-.59,0-.38-.17C170.58,10.07,170.94,10.14,171.18,10.21ZM167.08,12l.14.06h0l-.23-.08Zm-1.91,1.3c1.42.45,2.82.9,4.2,1.44l6.94,3.12a54.51,54.51,0,0,1,7,3.39l-3.66-1.53a.67.67,0,0,0-.14-.09c.06,0,0,0,.06.05L176,18.14c-2.22-.88-4.55-1.51-6.82-2.28-2.53-.74-4.55-1.72-7.22-2.19-1.41-.27-2.84-.58-4.27-.88l-.45-.15,2.35.1C161.53,12.87,163.35,13.07,165.17,13.26Zm-1.33-2.56c.59.2,1.16.4,1.69.61l-1.35-.26c-.41-.14-.79-.26-1.14-.39C163.24,10.66,163.51,10.67,163.84,10.7Zm-3.63.55,2,.62a22.55,22.55,0,0,1-2.85-.67Zm-1.7-.08c1.34.39,2.67.82,4,1.23.61.21,1.23.39,1.85.6-2.76-.41-6.6-.86-2.73-.67-1.08-.25-2.87-.21-3.77-.36-.65-.08-.7-.2-1.23-.27-.72-.1-3.09-.18-4.63-.29l-1.15-.27s0,0,0,0l-.29,0h0C153.23,11.15,155.88,11.1,158.51,11.17ZM13.28,176.59c-.08-.23-.18-.57-.28-.93s-.1-1-.14-1.46c.34,1.06.81,2.39,1.32,3.73.1.49.18,1,.28,1.47C13.9,178.09,13.44,177,13.28,176.59Zm1.77,4.22c-.09-.44-.18-.87-.26-1.3.44,1.14.88,2.24,1.23,3.08l.77,1.71c.17.9.36,1.76.56,2.61-.21-.48-.41-.94-.63-1.4C17.55,186.88,16.27,183.75,15.05,180.81Zm-1.8,13.38c-.14-.62-.39-1.72-.6-2.67.55,2.16,1,4.08,1.54,6C13.69,196,13.39,194.69,13.25,194.19Zm4.28,5.86-.05-.15A44.59,44.59,0,0,1,16,195.64l.79,1.47L18,199.46l.91,1.87c.49.92,1,1.79,1,1.79.16.33.91,1.44,1.59,2.46l.41,1.21c0,.08.07.16.11.25C20.46,204.71,18.88,202.42,17.53,200.05Zm14.59,12.23a62.84,62.84,0,0,1-5.51-7.47l.88,1.47c-.9-1.43-1.84-2.85-2.78-4.27-.16-.44-.33-.86-.51-1.31s-.35-1.06-.53-1.6c.24.35.45.68.66,1-.24-.36-.47-.73-.7-1.1-.38-1.17-.74-2.31-1.07-3.4a39.18,39.18,0,0,0,2.83,4.85l2.77,4.27c.61.88,1.17,1.73,1.74,2.54a1.47,1.47,0,0,1-.1-.13c-1.18-1.65-3-4.31-4.07-5.54-.32-.38-.08,0-.56-.59,1.82,2.55,3.62,5.25,5.47,7.71.15.33.3.65.44,1a1.17,1.17,0,0,1,.05.11c-.79-.92-1.54-1.8-2-2.42-.31-.38-.08,0-.55-.58a34.4,34.4,0,0,0,2.92,3.84c.3.66.59,1.34.92,2C32.32,212.53,32.22,212.4,32.12,212.28Zm2.74.87q1.8,2.39,3.67,4.67l.06.12c-1.25-1.39-2.42-2.86-3.6-4.32C35,213.47,34.9,213.31,34.86,213.15Zm.35,1.07,1.75,2.4a1.67,1.67,0,0,1,.12.16c-.54-.64-1.07-1.28-1.61-1.91C35.38,214.65,35.28,214.41,35.21,214.22Zm2.49,4.63c-.25-.27-.47-.55-.72-.82s-.38-.8-.6-1.24-.38-.75-.52-1.08c.4.59,1,1.33,1.58,2.16.77,1,1.72,1.9,2.31,2.57l.51.55-.54-.44c.25.33.65.79,1.11,1.31ZM127.44,269a4,4,0,0,1-.51-.19c0-.06.08-.08.29-.07l1.83.35.64.13-1.41,0C128,269.15,127.71,269.1,127.44,269Zm6.17,1.06c-.07-.13-2.51-.34-4.85-.78l1.11,0,.76.16c.44,0,.87.05,1.28.09l4.42.35C135.46,270,134.55,270,133.61,270.09ZM149.53,280l-2.24,0h2.49Zm32.18-9.15h0Zm3-.81-.59.18-1,.27a2.06,2.06,0,0,1,.26-.12l1.68-.5Zm14.76-6.7a50.9,50.9,0,0,1,4.79-2.47c1.86-1,4.24-2.49,6.45-3.95l1.56-.68c-1.71,1.15-3.38,2.28-5,3.22a85,85,0,0,1-7.77,3.89ZM220,252.84c-.78.73-5.16,3.59-4.18,2.66-1.24.59-4.19,2.75-5.86,3.86.65-.68,4-3,5.28-4-.36.23-.32.23-.79.54l-4.93,3.43c-1.49,1.06-3.16,1.79-4.73,2.69l-2,1.08A124,124,0,0,0,215.24,255l.65-.28a46.05,46.05,0,0,0,5.47-2.77l.21-.12a8.16,8.16,0,0,1-.68.5C220.43,252.62,220.34,252.58,220,252.84Zm2.53-1.57.13-.08C222.55,251.24,222.51,251.27,222.49,251.27Z"/><path class="cls-2" d="M22.82,171.93V110.78h20q11.39,0,17.74,4.22T67,127.58a14.9,14.9,0,0,1-2,7.75,12.41,12.41,0,0,1-6.3,5.1,12.79,12.79,0,0,1,8.09,4.87,14.44,14.44,0,0,1,2.62,8.53q0,8.94-6,13.52t-17.22,4.58ZM37,136.27h5.59q5.12,0,7.64-1.78a6.08,6.08,0,0,0,2.52-5.31q0-3.92-2.44-5.7t-7.47-1.78H37Zm0,9.41V161h9.11q4.54,0,6.81-1.78a6.56,6.56,0,0,0,2.27-5.48,8.1,8.1,0,0,0-2-5.93c-1.33-1.34-3.52-2.06-6.57-2.14H37Z"/><path class="cls-2" d="M128.5,146.86q0,11.29-7.17,18.62t-18.71,7.33q-11.62,0-18.85-7.33t-7.23-18.62v-11q0-11.25,7.2-18.6t18.8-7.35q11.5,0,18.73,7.35t7.23,18.6Zm-14.16-11.09A17.7,17.7,0,0,0,111.25,125a11.23,11.23,0,0,0-17.51,0q-3,4.17-3,10.77v11.09q0,6.63,3.08,10.83a10.32,10.32,0,0,0,8.84,4.2,10.07,10.07,0,0,0,8.65-4.2q3.08-4.2,3.07-10.83Z"/><path class="cls-2" d="M188,146.86q0,11.29-7.16,18.62t-18.71,7.33q-11.64,0-18.86-7.33T136,146.86v-11q0-11.25,7.21-18.6T162,109.9q11.51,0,18.73,7.35t7.23,18.6Zm-14.16-11.09q0-6.56-3.08-10.76a11.24,11.24,0,0,0-17.52,0q-3,4.17-3,10.77v11.09q0,6.63,3.08,10.83a10.32,10.32,0,0,0,8.85,4.2,10.09,10.09,0,0,0,8.65-4.2q3.06-4.2,3.06-10.83Z"/><path class="cls-2" d="M228.92,153.58h.25L243,110.78h18.77v61.15H247.57v-39.4l-.26,0-13.48,39.44H224.3l-13.23-38.85-.25,0v38.81h-14.2V110.78h18.6Z"/></g></g></svg>