<svg id="Layer_1" enable-background="new 0 0 128 128" height="512" viewBox="0 0 128 128" width="512" xmlns="http://www.w3.org/2000/svg"><path d="m1.8 21.3h124.5v85.5h-124.5z" fill="#f9e14e"/><path d="m1.8 21.3v5h119.4v80.4h5.1v-85.4z" fill="#ffc543"/><circle cx="64" cy="64" fill="#5a6571" r="22.8"/><path d="m64 41.2c-.7 0-1.3 0-2 .1 12.5 1.1 21.8 12.2 20.7 24.7-1 11-9.7 19.7-20.7 20.6.7.1 1.3.1 2 .1 12.6 0 22.8-10.2 22.8-22.8s-10.2-22.7-22.8-22.7z" fill="#49545b"/><path d="m1.8 21.3v23.7l39.5 19v-.1c0-12.6 10.2-22.8 22.8-22.8s22.7 10.3 22.7 22.9v.1l39.5-19v-23.8z" fill="#ffc543"/><path d="m1.8 21.3v5h111.5c4.4 0 8 3.6 8 8v13.2l5-2.4v-23.8z" fill="#f90"/><g fill="#001522"><path d="m48.3 64c0 8.7 7 15.7 15.7 15.7 1 0 1.8-.8 1.8-1.8s-.8-1.7-1.8-1.7c-6.7 0-12.2-5.5-12.2-12.2 0-3.3 1.3-6.5 3.7-8.8s5.6-3.5 8.9-3.4c6.6.4 11.8 5.9 11.7 12.5v5.1c0 1-.9 1.8-1.8 1.8-1 0-1.7-.8-1.8-1.8v-5.4c0-4.8-3.8-8.6-8.6-8.6s-8.6 3.8-8.6 8.6 3.8 8.6 8.6 8.6c1.9 0 3.8-.6 5.3-1.8.7 2.8 3.6 4.5 6.5 3.8 2.3-.6 4-2.7 4-5.1v-5.1c0-8.5-6.6-15.6-15.1-16-8.7-.3-15.9 6.4-16.2 15.1-.1.1-.1.3-.1.5zm15.7 5.1c-2.8 0-5.1-2.3-5.1-5.1s2.3-5.1 5.1-5.1 5.1 2.3 5.1 5.1-2.3 5.1-5.1 5.1z"/><path d="m128 21.3c0-1-.8-1.8-1.8-1.8h-88.7c-1 0-1.8.8-1.8 1.8s.8 1.8 1.8 1.8h87v20.9l-36.1 17.3c-1.5-13.5-13.5-23.2-27-21.7-11.4 1.2-20.5 10.3-21.7 21.7l-36.2-17.4v-20.9h11.7c1 0 1.8-.8 1.8-1.8s-.8-1.8-1.8-1.8h-13.4c-1 0-1.8.8-1.8 1.8v85.5c0 1 .8 1.7 1.8 1.8h124.5c1 0 1.7-.8 1.8-1.8v-85.4zm-3.5 80.6-11.7-14.1c-.6-.7-1.7-.9-2.5-.2-.7.6-.9 1.7-.2 2.5l12.4 15h-117l33.2-40.2.8.4c.7 13.5 12.2 23.9 25.7 23.3 12.6-.6 22.6-10.7 23.3-23.3l.8-.4 13.6 16.5c.6.7 1.7.9 2.5.2s.9-1.7.2-2.5l-13-15.9 31.9-15.4zm-58.4-58.8c10.7 1.1 18.9 10.1 18.9 20.9 0 11.6-9.4 21-21 21s-21-9.4-21-21 9.4-21 21-21c.7 0 1.4 0 2.1.1zm-30.7 20.1-31.9 38.7v-54.1z"/><path d="m24.8 23h3.1c1 0 1.8-.8 1.8-1.8s-.8-1.8-1.8-1.8h-3.1c-1 0-1.8.8-1.8 1.8s.8 1.8 1.8 1.8z"/></g></svg>