<svg xmlns="http://www.w3.org/2000/svg" xmlns:xlink="http://www.w3.org/1999/xlink" viewBox="0 0 197.06 194.15"><defs><style>.cls-1{fill:none;}.cls-2{clip-path:url(#clip-path);}</style><clipPath id="clip-path" transform="translate(-0.43 -0.3)"><rect class="cls-1" width="197.92" height="194.75"/></clipPath></defs><title>condo</title><g id="Layer_2" data-name="Layer 2"><g id="Layer_1-2" data-name="Layer 1"><g class="cls-2"><path d="M4.81,191.21c7.65,4.5,26.1,3.3,176.26,2.35,3.27,0,6.66-.07,9.83-1.35,9.15-3.75,8.42-14,0-17.5a20.55,20.55,0,0,0-7.42-1.31c1.93-5.68,1.4-3.07,1.73-110.89h0c0-7.33-.47-15.57-6.1-20.54-5.06-4.46-12.36-4.43-18.55-4.43.19-3.07.1-3.21-.94-23.35-.4-8.16-3-11.27-11.94-11.47L55.74.31C43.27,0,40.3,4.33,39.88,13.86c-.38,8.38-.64,15.22-1.06,24.43l-2,0c-14.55.1-20.32,4.32-20.41,21.82-.47,94.06-2.32,106.94-.1,115.66-1,0-2,0-3,.08-15.63.44-15.08,11.29-8.47,15.34ZM43,14C43.3,6,45,3.13,55.66,3.39l92,2.4c7.32.17,8.63,2.09,8.94,8.55.92,17.65,1.18,20.5,1,23.21-36.61.25-93,.59-115.65.72C42.28,30,42.56,22.72,43,14ZM19.51,60.15c.08-15.93,4.72-18.67,17.34-18.76,135.94-.92,134.27-2.37,140.24,2.89,4.66,4.12,5,11.26,5,18.23-.33,108.12.27,105.63-1.92,110.89-65.95,1.24-113.68.81-160.72,2.3-2.33-6.91-.43-26.21,0-115.55ZM13.39,178.94c1.65-.06,3.32-.09,5.08-.13,38.34,0,165.6-3.58,171.26-1.25,6,2.47,6.46,9.16,0,11.79-2.63,1.06-5.71,1.09-8.7,1.13-145.91.92-167.94,2-174.65-1.91-4.3-2.64-5-9.28,7-9.63Zm0,0" transform="translate(-0.43 -0.3)"/></g><path d="M30.61,75c8.62,0,17.57-.57,26.4-.57,1.29,0,2.35-.23,2.34-1.54-.05-6.47-.54-12.76-.58-19a1.55,1.55,0,0,0-1.53-1.53l-26.17-.23h0a1.54,1.54,0,0,0-1.54,1.41c-.45,5.66-1.09,13.42-.44,20.06A1.56,1.56,0,0,0,30.61,75Zm5.25-15.63-2.72,2.73-.94-.94s-.08,0-.11,0c.09-1.81.21-3.55.34-5.18ZM32,63.1l3.71,3.7a.75.75,0,0,0,.51.21l-2.85,2.84-1.43-1.43c0-1.76,0-3.55.06-5.32Zm.28,7.84-.24.25c0-.17,0-.34,0-.51Zm24,.4c-7.24,0-12.92.39-21.51.52a.72.72,0,0,0-.15-.75l-.16-.17,6.46-6.45A.77.77,0,1,0,39.8,63.4L37,66.22a.76.76,0,0,0-.2-.51l-2.55-2.54L37,60.44,39.46,63a.77.77,0,0,0,1.08-1.09L38,59.35l1.9-1.9a.77.77,0,1,0-1.09-1.09l-1.9,1.9-3-3,6.36.06,2,2L40.65,59A.77.77,0,1,0,41.73,60l1.65-1.65,1.55,1.55a.76.76,0,0,0,1.09,0,.74.74,0,0,0,0-1.08L44.47,57.3l2-2h1l1.36,1.36L47.43,58a.77.77,0,0,0,0,1.09.78.78,0,0,0,1.09,0l1.33-1.33,1.82,1.83a.78.78,0,0,0,1.09,0,.76.76,0,0,0,0-1.09L50.94,56.7l1.31-1.32,3.46,0c.1,5.44.44,10.6.54,15.93Zm-13.79-16h1.82l-.9.9Zm7.14.06h.5l-.25.25Zm0,0" transform="translate(-0.43 -0.3)"/><path d="M68.77,75c8.9,0,18.09-.6,27.19-.57a1.52,1.52,0,0,0,1.54-1.54c0-6.47-.53-12.76-.57-19a1.55,1.55,0,0,0-1.53-1.53l-26.17-.23h0a1.53,1.53,0,0,0-1.53,1.41c-.46,5.66-1.09,13.42-.44,20.06A1.56,1.56,0,0,0,68.77,75ZM84.49,55.33h0L82,57.86,79.4,55.28Zm5.65.05L88.43,57.1l-1.75-1.75ZM74.06,57.65a.65.65,0,0,0,.91.08l-.48.48-3-3,3.89,0-1.32,1.32a.76.76,0,0,0,0,1.08ZM73.4,59.3l-2.52,2.52-.65-.64c.09-1.65.2-3.23.31-4.73ZM70.15,70.77c0-.46,0-.93-.05-1.4l.72.72Zm1.77.41.68.68-1.39,0Zm22.49.16c-6.93,0-12.08.35-20.67.5a.77.77,0,0,0,0-1L73,70.09l3.47-3.48a.77.77,0,0,0-1.08-1.09L71.92,69l-1.87-1.86c0-.92,0-1.84,0-2.75h.05a.76.76,0,0,0,.54-.22l.19-.19,2.39,2.39a.77.77,0,1,0,1.09-1.08L72,62.91l2.52-2.52.77.76a.77.77,0,1,0,1.09-1.09l-.77-.76.62-.62a.77.77,0,0,0,0-1.09.74.74,0,0,0-.91-.07l2.09-2.09L81,59a.75.75,0,0,0,.1.87A.66.66,0,0,0,82,60a.7.7,0,0,0,1,0A.73.73,0,0,0,83,59l2.57-2.57,2.79,2.79a.76.76,0,0,0,1.12-1h0l1.8-1.8,1.3,1.3a.77.77,0,0,0,1.09-1.09l-1.2-1.2h1.36c.09,5.44.44,10.6.54,15.93Zm0,0" transform="translate(-0.43 -0.3)"/><path d="M105.66,75h.83c8.61,0,17-.57,25.56-.57,1.29,0,2.35-.23,2.34-1.55,0-6.46-.54-12.75-.58-19a1.53,1.53,0,0,0-1.52-1.53l-26.17-.24h0a1.54,1.54,0,0,0-1.53,1.42c-.46,5.66-1.09,13.42-.44,20a1.55,1.55,0,0,0,1.53,1.4Zm3.19-16.56L107.24,60s0,.11-.07.17c.07-1.12.14-2.19.22-3.24Zm-1-3.21,4.2,0-2.09,2.08ZM108,70.66l-1-1c-.06-1.75-.07-3.52,0-5.29l3.51,3.52s.11,0,.16.06Zm23.32.68c-7.47,0-13.77.43-22.23.53,0,0,0-.06,0-.09l6.14-6.14a.77.77,0,0,0-1.09-1.09L111.66,67s0-.12-.07-.16l-4.53-4.53c0-.48,0-1,.08-1.43,0,.09,0,.19.1.25a.76.76,0,0,0,1.09,0l1.6-1.6,2.89,2.88a.77.77,0,0,0,1.09-1.09L111,58.42l3.14-3.15,2.3,0,2.17,2.17-1.1,1.11a.77.77,0,0,0,1.09,1.09l1.1-1.11.58.58A.77.77,0,0,0,121.4,58l-.58-.57,2.09-2.09a0,0,0,0,0,0,0l1.54,0,.56.56-.72.72a.77.77,0,0,0,1.09,1.09l.72-.72,1.33,1.33a.77.77,0,0,0,1.09-1.1L127,55.77a.71.71,0,0,0-.16-.38l3.88,0c.09,5.43.44,10.59.54,15.92Zm-12.63-16h2.1l-1,1Zm0,0" transform="translate(-0.43 -0.3)"/><path d="M142.85,75c8.89,0,18.11-.6,27.19-.57a1.52,1.52,0,0,0,1.55-1.54c-.05-6.54-.54-12.74-.58-19a1.55,1.55,0,0,0-1.53-1.53l-26.17-.23h0a1.54,1.54,0,0,0-1.54,1.41c-.46,5.67-1.09,13.44-.43,20.06A1.54,1.54,0,0,0,142.85,75Zm1.31-9.13L146,67.71l-1.83,1.83q-.06-1.83,0-3.69Zm24.33,5.49c-8.18,0-16.09.53-24.21.56a2.09,2.09,0,0,1,0-.25l2.85-2.85,1.39,1.39a.77.77,0,1,0,1.09-1.09l-1.39-1.39,2.56-2.57a.77.77,0,0,0,0-1.09.76.76,0,0,0-1.08,0l-2.57,2.57L144.2,63.7c.09-2.55.26-5,.43-7.3l2.2,2.2-1.18,1.19a.77.77,0,1,0,1.09,1.09l1.18-1.19L152,63.78a.77.77,0,1,0,1.09-1.09L149,58.6l2.06-2.06a.77.77,0,0,0,0-1.09.82.82,0,0,0-.48-.2l2.75,0a.7.7,0,0,0,.22.52l3,3-1.73,1.72a.77.77,0,1,0,1.09,1.1l1.72-1.73.63.63a.75.75,0,0,0,.54.22.77.77,0,0,0,.55-1.31l-.63-.63,3.06-3,3.74,3.73a.77.77,0,1,0,1.09-1.09l-3-3,4.35,0c.09,5.39.45,10.66.54,15.93ZM145.61,55.22l4.85,0a.76.76,0,0,0-.48.2l-2.06,2.06Zm9.61.08,4.7.05-2.32,2.33Zm0,0" transform="translate(-0.43 -0.3)"/><path d="M142.58,104h0c9,0,17.54.56,26.35.56,1.17,0,2.23,0,2.37-1.38.65-6.62,0-14.39-.44-20.06a1.54,1.54,0,0,0-1.53-1.42h0l-26.17.24a1.53,1.53,0,0,0-1.52,1.53c0,6.26-.54,12.43-.58,19a1.53,1.53,0,0,0,1.53,1.55Zm1.74-8.27,1.7,1.7-1.82,1.83c0-1.18.07-2.35.12-3.53Zm24,5.75c-7.91,0-15.41-.5-23.65-.55l2.41-2.41,1.39,1.4a.77.77,0,1,0,1.09-1.09l-1.39-1.4,2.56-2.56a.77.77,0,0,0,0-1.09.76.76,0,0,0-1.08,0l-2.57,2.57-2.72-2.73c.08-1.94.2-5.19.25-7.47l2.18,2.18-1.18,1.19a.77.77,0,0,0,1.09,1.09l1.18-1.19L152,93.47a.78.78,0,0,0,1.09,0,.77.77,0,0,0,0-1.09L149,88.29l2.06-2.06A.77.77,0,1,0,150,85.14l-2.07,2.06L145.67,85l7.7-.07a.73.73,0,0,0,.2.61l2.94,3-1.72,1.72a.77.77,0,0,0,0,1.09.78.78,0,0,0,1.09,0l1.72-1.72.62.62a.78.78,0,0,0,1.09,0,.77.77,0,0,0,0-1.09l-.62-.62,3.06-3.07,3.73,3.74A.77.77,0,0,0,166.57,88l-3.23-3.24,4.58,0a118.69,118.69,0,0,1,.44,16.69ZM155.11,84.87l5-.05-2.53,2.53Zm0,0" transform="translate(-0.43 -0.3)"/><path d="M104.42,104h0c8.43-.07,18.07.61,27.19.56a1.54,1.54,0,0,0,1.53-1.38c.65-6.6,0-14.38-.44-20.06a1.54,1.54,0,0,0-1.53-1.42h0L105,81.9a1.53,1.53,0,0,0-1.52,1.53c0,6.21-.54,12.62-.58,19a1.53,1.53,0,0,0,1.53,1.55Zm6.08-6.37s.11,0,.16.07L108,100.34l-1.8-1.8s-.08,0-.12-.05c.06-1.72.11-3.44.18-5.16Zm-4.15,3.3H106c0-.12,0-.23,0-.34Zm23.85.55c-6.87,0-12.06-.34-20.65-.5l5.61-5.61a.77.77,0,0,0,0-1.09.76.76,0,0,0-1.09,0l-2.42,2.42s0-.11-.06-.16l-5.11-5.11s-.12,0-.17-.07c.07-1.85.15-3.71.19-5.57l2.35,2.35-1.61,1.6a.77.77,0,0,0,0,1.09.76.76,0,0,0,1.09,0l1.6-1.6,2.88,2.88a.77.77,0,0,0,1.09,0,.76.76,0,0,0,0-1.09L111,88.1l3.21-3.21,2.14,0,2.27,2.27-1.11,1.11a.76.76,0,0,0,0,1.08.78.78,0,0,0,1.1,0l1.1-1.1.58.57a.76.76,0,0,0,1.08,0,.77.77,0,0,0,0-1.09l-.57-.57,2.09-2.09c.06-.07.06-.16.1-.24h1.21l.8.8-.73.72a.77.77,0,0,0,0,1.09.76.76,0,0,0,1.09,0l.73-.72L127.43,88a.78.78,0,0,0,1.09,0,.77.77,0,0,0,0-1.09L127,85.44a.76.76,0,0,0-.22-.54c-.08-.08-.19-.08-.29-.12l3.24,0a117.06,117.06,0,0,1,.44,16.68ZM107.87,85l4.16,0-2.1,2.1Zm10.66-.09,2.42,0-1.22,1.22Zm0,0" transform="translate(-0.43 -0.3)"/><path d="M67.55,104c9,0,17.54.56,26.35.56,1.17,0,2.23,0,2.37-1.38.65-6.62,0-14.39-.44-20.06a1.54,1.54,0,0,0-1.53-1.42h0l-26.17.24a1.54,1.54,0,0,0-1.53,1.53c0,6.26-.53,12.43-.58,19,0,1.13.71,1.33,1.55,1.55ZM84.3,84.83l.2.2L82,87.55,79.3,84.87Zm5.71,0,.21.21-1.79,1.79L86.65,85a.73.73,0,0,0,.07-.19Zm-16,2.56a.65.65,0,0,0,.91.07l-.48.49-2.95-3,3.86,0-1.34,1.34a.77.77,0,0,0,0,1.09ZM73.4,89l-2.52,2.53-.95-1a.75.75,0,0,0-.47-.19c.07-1.71.15-3.42.18-5.14Zm-3.69,11.91h-.62c0-.91.07-1.83.1-2.74l1.63,1.64Zm2.21,0,.06.07h-.13Zm21.39.58c-6.38,0-11.62-.31-19.4-.48a.71.71,0,0,0-.2-.47l-.7-.71,3.47-3.48a.76.76,0,0,0,0-1.09.74.74,0,0,0-1.08,0l-3.48,3.48-2.23-2.22a.72.72,0,0,0-.43-.18c0-.12.12-3.65.14-4.09l.39.39-.19.19a.77.77,0,0,0,1.09,1.09l.19-.18,2.38,2.38a.76.76,0,0,0,1.09,0,.75.75,0,0,0,0-1.09L72,92.6l2.52-2.52.76.76a.77.77,0,0,0,1.09-1.09L75.58,89l.62-.62a.77.77,0,0,0,0-1.09.75.75,0,0,0-.92-.07l2.09-2.09L81,88.71a.72.72,0,0,0,.09.86.65.65,0,0,0,.9.08.71.71,0,0,0,1,0,.74.74,0,0,0,.07-.93l2.57-2.57,2.8,2.8a.77.77,0,0,0,1.08,0,.76.76,0,0,0,0-1h0l1.8-1.81,1.3,1.3a.82.82,0,0,0,.48.2,103.09,103.09,0,0,1,.22,13.86Zm-.38-15.92L92.4,85l.23-.23h.25c0,.24,0,.51.05.76Zm0,0" transform="translate(-0.43 -0.3)"/><path d="M30.35,104c9.25,0,18.36.61,27.19.56a1.54,1.54,0,0,0,1.53-1.38c.65-6.64,0-14.4-.44-20.07a1.54,1.54,0,0,0-1.53-1.41h0l-26.17.24a1.53,1.53,0,0,0-1.52,1.53c-.05,6.23-.54,12.52-.59,19,0,1.22.71,1.24,1.55,1.55ZM35.86,89l-2.72,2.72-.9-.89c.08-1.75.15-3.51.18-5.27ZM32.17,93h0l3.51,3.51a.75.75,0,0,0,.51.21l-2.85,2.84L32,98.19c.06-1.73.11-3.47.18-5.2Zm.09,7.64-.26.25h-.1l0-.58Zm23.86.81c-7.16,0-12.87-.38-21.47-.52a.69.69,0,0,0,0-.13l-.16-.16,6.45-6.46a.77.77,0,0,0-1.09-1.09L37,95.9a.79.79,0,0,0-.21-.51l-2.55-2.54L37,90.12l2.51,2.51a.77.77,0,1,0,1.09-1.09L38,89l1.89-1.89a.77.77,0,0,0,0-1.09.76.76,0,0,0-1.09,0L37,87.94l-3-3,6.24,0L42.29,87l-1.65,1.65a.77.77,0,0,0,0,1.09.78.78,0,0,0,1.09,0l1.65-1.65,1.55,1.55a.76.76,0,0,0,1.09,0,.77.77,0,0,0,0-1.09L44.47,87l2.15-2.15h.58l1.56,1.56-1.33,1.33a.76.76,0,0,0,0,1.08.77.77,0,0,0,1.09,0l1.32-1.32,1.83,1.83a.77.77,0,1,0,1.09-1.1l-1.83-1.82,1.61-1.61,3.13,0a115.8,115.8,0,0,1,.45,16.7ZM42.36,84.87h2.07l-1,1Zm7-.06h1l-.5.5Zm0,0" transform="translate(-0.43 -0.3)"/><path d="M58.77,112.27a1.53,1.53,0,0,0-1.53-1.52l-26.17-.24h0a1.55,1.55,0,0,0-1.54,1.42c-.45,5.66-1.09,13.42-.44,20.06.14,1.35,1.19,1.39,2.34,1.39s26.39-.57,26.39-.57a1.54,1.54,0,0,0,1.54-1.55c-.05-6.47-.54-12.75-.58-19Zm-8.54,1.49-.38.39-.4-.4Zm-5.81-.05-1,1-1.06-1.06ZM32,129.72c0-.16,0-.34,0-.5l.25.26ZM31.92,127c0-1.77,0-3.56,0-5.34l3.71,3.72a.74.74,0,0,0,.51.2l-2.85,2.85Zm.27-7.29s-.08,0-.12,0c.1-1.81.22-3.55.34-5.18l3.45,3.45-2.73,2.72Zm2.61,10.58a.73.73,0,0,0-.2-.61l-.16-.16L40.89,123a.77.77,0,1,0-1.09-1.09L37,124.75a.79.79,0,0,0-.21-.51l-2.55-2.54L37,119l2.51,2.51a.77.77,0,0,0,1.09-1.09L38,117.88,39.93,116a.76.76,0,0,0,0-1.09.77.77,0,0,0-1.09,0L37,116.79l-3.18-3.18,6.36.06,2.17,2.16-1.65,1.65a.77.77,0,1,0,1.08,1.09l1.65-1.65,1.56,1.55a.76.76,0,0,0,1.09,0,.77.77,0,0,0,0-1.09l-1.56-1.55,2.11-2.11h.68l1.5,1.5-1.33,1.33a.77.77,0,0,0,1.09,1.09l1.33-1.33,1.82,1.83a.77.77,0,0,0,1.09,0,.76.76,0,0,0,0-1.09l-1.82-1.83,1.45-1.45,3.32,0c.1,5.44.44,10.6.54,15.92-7.2,0-13,.39-21.45.52Zm0,0" transform="translate(-0.43 -0.3)"/><path d="M96.93,112.27a1.53,1.53,0,0,0-1.53-1.52l-26.17-.24h0a1.54,1.54,0,0,0-1.53,1.42c-.46,5.66-1.09,13.42-.44,20.06a1.56,1.56,0,0,0,1.53,1.39c9,.05,19-.65,27.19-.57h0a1.53,1.53,0,0,0,1.53-1.55c0-6.47-.53-12.75-.57-19Zm-8.5,3.36-1.78-1.79a1,1,0,0,0,0-.1l3.47,0,.06.07ZM82,116.4l-2.72-2.72,5.09,0,.15.16Zm-7.92-.21a.66.66,0,0,0,.91.07l-.48.48-3.14-3.13,4.16,0-1.45,1.46a.77.77,0,0,0,0,1.09Zm-3.9,13.1c0-.46,0-.92,0-1.39l.71.72Zm1.76.42.54.55-1.11,0Zm-1.69-10c.09-1.64.19-3.23.3-4.74l2.87,2.87-2.52,2.52Zm3.56,10.54a.72.72,0,0,0-.07-.9l-.71-.72,3.48-3.48a.77.77,0,0,0-1.09-1.09l-3.48,3.48-1.87-1.86c0-.91,0-1.83,0-2.75l.05,0a.76.76,0,0,0,.54-.22l.19-.19,2.38,2.39a.77.77,0,0,0,1.09,0,.76.76,0,0,0,0-1.09L72,121.44l2.52-2.52.76.77a.77.77,0,0,0,1.09-1.1l-.76-.76.62-.61a.77.77,0,0,0,0-1.09.75.75,0,0,0-.92-.08L77.37,114,81,117.55a.73.73,0,0,0,.1.86.64.64,0,0,0,.89.08.73.73,0,0,0,1,0,.77.77,0,0,0,.07-.93L85.6,115l2.79,2.79a.75.75,0,0,0,1.11-1h0l1.8-1.8,1.3,1.3a.76.76,0,0,0,1.09,0,.77.77,0,0,0,0-1.09l-1.3-1.29,0,0,1.42,0c.1,5.44.45,10.6.55,15.92-6.91,0-12,.35-20.63.51Zm0,0" transform="translate(-0.43 -0.3)"/><path d="M133.81,112.27a1.53,1.53,0,0,0-1.52-1.52l-26.18-.24h0a1.54,1.54,0,0,0-1.53,1.42c-.46,5.66-1.09,13.42-.44,20.06a1.54,1.54,0,0,0,1.52,1.39c9.08.05,18.91-.65,27.19-.57h0a1.53,1.53,0,0,0,1.54-1.55c0-6.47-.54-12.75-.58-19Zm-12.9,1.45-1.18,1.18-1.2-1.2ZM108,129.19l-1-1c-.06-1.74-.07-3.51,0-5.29l3.52,3.52s.11,0,.16.07Zm-.6-13.71,1.47,1.47-1.61,1.61s0,.13-.07.19c.06-1.13.13-2.21.21-3.27Zm.3-1.88,4.47,0-2.22,2.22Zm1.4,16.66,6.08-6.09a.77.77,0,0,0-1.09-1.09l-2.42,2.42s0-.11-.06-.15l-4.54-4.54c0-.49,0-1,.08-1.44,0,.09,0,.2.11.27a.77.77,0,0,0,1.09,0l1.6-1.61,2.88,2.89a.77.77,0,0,0,1.09,0,.75.75,0,0,0,0-1.09L111,116.94l3.29-3.28h2l2.31,2.31-1.11,1.11a.77.77,0,0,0,0,1.09.78.78,0,0,0,1.1,0l1.1-1.11.58.58a.76.76,0,0,0,1.08,0,.77.77,0,0,0,0-1.09l-.57-.58,2.09-2.09s0-.1.06-.16h1.35l.7.71-.72.72a.76.76,0,0,0,0,1.09.76.76,0,0,0,1.09,0l.72-.72,1.33,1.32a.76.76,0,0,0,1.09,0,.77.77,0,0,0,0-1.09L127,114.29a.74.74,0,0,0-.22-.52l3.94,0c.09,5.45.44,10.6.54,15.93-7.46,0-13.84.43-22.22.53Zm0,0" transform="translate(-0.43 -0.3)"/><path d="M171,112.27a1.52,1.52,0,0,0-1.52-1.52l-26.17-.24h0a1.54,1.54,0,0,0-1.53,1.42c-.46,5.67-1.09,13.44-.44,20.06a1.56,1.56,0,0,0,1.53,1.39c9.1.05,18.9-.65,27.19-.57h0a1.54,1.54,0,0,0,1.54-1.55c-.05-6.54-.54-12.73-.59-19Zm-10.94,1.47-2.46,2.47-2.51-2.51Zm-15.9,10.63,1.86,1.87-1.82,1.83c0-1.22-.06-2.45,0-3.7Zm.12,5.92s0-.08,0-.12l2.85-2.84,1.39,1.4a.78.78,0,0,0,1.09,0,.77.77,0,0,0,0-1.09l-1.39-1.4,2.56-2.56a.77.77,0,0,0,0-1.09.74.74,0,0,0-1.08,0l-2.57,2.56-2.92-2.92c.09-2.54.25-5,.42-7.31l2.21,2.22-1.18,1.18a.77.77,0,1,0,1.09,1.09l1.18-1.18,4.09,4.09a.77.77,0,1,0,1.09-1.1L149,117.14l2.06-2.06a.75.75,0,0,0,0-1.09.76.76,0,0,0-1.09,0l-2.06,2.06-2.44-2.45,7.91.07a.74.74,0,0,0,.17.67l2.95,3L154.79,119a.77.77,0,1,0,1.09,1.09l1.72-1.72.62.62a.76.76,0,0,0,1.09,0,.76.76,0,0,0,0-1.09l-.62-.62,3.06-3.06,3.74,3.73a.76.76,0,0,0,1.09,0,.77.77,0,0,0,0-1.09l-3.11-3.11,4.48,0c.1,5.4.46,10.66.55,15.93-8.18,0-16.14.54-24.22.56Zm0,0" transform="translate(-0.43 -0.3)"/><path d="M142.58,162.36h0c8.65-.07,18.21.61,27.19.56a1.54,1.54,0,0,0,1.53-1.39c.65-6.61,0-14.38-.44-20.06a1.54,1.54,0,0,0-1.53-1.41h0l-26.17.23a1.55,1.55,0,0,0-1.53,1.53c0,6.26-.53,12.44-.58,19a1.55,1.55,0,0,0,1.54,1.55Zm3.44-7.27-1.8,1.81.12-3.49Zm22.34,4.75c-8.08,0-16.05-.53-24.22-.56v-.13l3-3,1.4,1.4a.78.78,0,0,0,1.09,0,.77.77,0,0,0,0-1.09l-1.4-1.4,2.57-2.57a.77.77,0,0,0-1.09-1.08L147.12,154l-2.7-2.69c.1-2.5.2-5,.25-7.48l2.16,2.16-1.18,1.19a.74.74,0,0,0,0,1.08.75.75,0,0,0,1.08,0l1.19-1.18,4.09,4.09a.78.78,0,0,0,1.09,0,.77.77,0,0,0,0-1.09L149,146l2.06-2.06a.72.72,0,0,0,.19-.63l2.39,0,2.86,2.86-1.72,1.72a.77.77,0,1,0,1.09,1.09l1.72-1.72.62.63a.78.78,0,0,0,1.09,0,.77.77,0,0,0,0-1.1l-.62-.62,2.94-2.93h.24l3.61,3.62a.77.77,0,0,0,1.09,0,.76.76,0,0,0,0-1.09L164,143.18l3.89,0a118.6,118.6,0,0,1,.44,16.69Zm-22-16.5,3.14,0-1.58,1.58Zm9.44-.08,3.62,0-1.82,1.83Zm0,0" transform="translate(-0.43 -0.3)"/><path d="M104.43,162.36c8.86,0,17.52.56,26.38.56,1.15,0,2.2,0,2.34-1.39.65-6.6,0-14.38-.44-20.06a1.53,1.53,0,0,0-1.53-1.41h0l-26.17.23a1.53,1.53,0,0,0-1.52,1.53c0,6.21-.54,12.62-.58,19a1.54,1.54,0,0,0,1.54,1.55ZM108,158l-1.8-1.8s-.06,0-.09,0c.06-1.59.1-3.19.17-4.78,0-.12,0-.25,0-.37l4.24,4.24c0,.05.1,0,.15.07Zm-1.09,1.08-.17.17H106c0-.34,0-.68,0-1Zm23.31.72c-7,0-12.52-.37-21.1-.51a.51.51,0,0,0-.07-.17l6.13-6.14a.77.77,0,0,0-1.09-1.09l-2.42,2.42s0-.11-.06-.15l-5.11-5.11s-.1,0-.15-.06c.08-1.85.16-3.7.19-5.56l2.33,2.32-1.61,1.61a.77.77,0,0,0,1.09,1.09l1.6-1.61,2.89,2.89a.77.77,0,1,0,1.09-1.09L111,145.79l2.5-2.5,3.54,0,1.57,1.58-1.1,1.1a.77.77,0,1,0,1.09,1.09l1.1-1.1.58.57a.76.76,0,0,0,1.09,0,.77.77,0,0,0,0-1.09l-.58-.57,1.62-1.63,2.47,0,.11.11-.72.72a.75.75,0,0,0,0,1.09.76.76,0,0,0,1.09,0l.72-.72,1.32,1.33a.78.78,0,0,0,1.09,0,.77.77,0,0,0,0-1.09l-1.45-1.45,2.7,0a118.77,118.77,0,0,1,.43,16.69Zm-21.63-16.5,2.76,0-1.4,1.39Zm10.65-.1h1l-.51.52Zm0,0" transform="translate(-0.43 -0.3)"/><path d="M67.54,162.36h0c8.68-.07,18.19.61,27.19.56a1.52,1.52,0,0,0,1.52-1.39c.66-6.61,0-14.38-.43-20.06a1.54,1.54,0,0,0-1.54-1.41h0c-25.62.23-27.68-.65-27.7,1.76,0,6.26-.53,12.44-.58,19a1.54,1.54,0,0,0,1.54,1.56Zm22.19-19.18-1.3,1.3-1.28-1.28ZM82,145.25l-2-2,4,0ZM74.06,145a.65.65,0,0,0,.91.08l-.48.48-2.26-2.26,2.46,0-.63.63a.77.77,0,0,0,0,1.09Zm-.66,1.65-2.52,2.52-1-.95a.72.72,0,0,0-.44-.18c.06-1.57.14-3.14.16-4.71h.43Zm-3.61,3.61c-.24.23-.4.36-.41.71,0-.36,0-.72,0-1.08Zm2.84,9s.1,0,.15.07l-1.61,0,.75-.75Zm-3.41-.19s0,.13-.08.2h0c0-1.14.08-2.28.11-3.42l1.61,1.61Zm24.09.76c-6.49,0-11.66-.32-19.78-.49.06,0,.14,0,.19-.08a.76.76,0,0,0,0-1.08l-.71-.72L76.49,154a.77.77,0,1,0-1.09-1.09l-3.48,3.48c-.34-.33-2.17-2.3-2.64-2.39,0-.57.07-2.11.1-3,0,.68.71,1.14,1.5.35l2.38,2.38a.76.76,0,0,0,1.09,0,.75.75,0,0,0,0-1.09L72,150.29l2.52-2.53.76.77a.77.77,0,0,0,1.09-1.09l-.76-.76.62-.62a.77.77,0,0,0,0-1.09.75.75,0,0,0-.92-.07l1.62-1.62h.95L81,146.4a.74.74,0,0,0,.1.86.66.66,0,0,0,.9.08.7.7,0,0,0,1,0,.72.72,0,0,0,.07-.92l2.57-2.57,2.79,2.79a.77.77,0,0,0,1.09,0,.75.75,0,0,0,0-1,0,0,0,0,1,0,0l1.8-1.8,1.3,1.3a.74.74,0,0,0,.42.17,105.67,105.67,0,0,1,.27,14.6Zm-.43-16.68h0Zm0,0" transform="translate(-0.43 -0.3)"/><path d="M57.54,162.92a1.54,1.54,0,0,0,1.53-1.39c.65-6.63,0-14.39-.44-20.06a1.54,1.54,0,0,0-1.53-1.41h0l-26.17.24a1.53,1.53,0,0,0-1.52,1.53c0,3.15-.16,6.29-.29,9.43s-.27,6.35-.3,9.55a1.56,1.56,0,0,0,.45,1.1c.65.63,27.38,1,28.29,1ZM32.17,151.39c0-.23,0-.46,0-.69l3.48,3.49a.7.7,0,0,0,.51.2l-2.85,2.85L32,155.91c0-1.51.09-3,.15-4.52Zm.1-2.79c.07-1.75.14-3.49.18-5.24h0l3.37,3.37-2.73,2.73Zm0,9.73-.33.33c0-.22,0-.43,0-.64Zm23.87,1.51c-7.1,0-12.84-.38-21.42-.52a.71.71,0,0,0-.1-.83l-.16-.16,6.45-6.46a.77.77,0,1,0-1.09-1.09L37,153.6a.75.75,0,0,0-.21-.5l-2.55-2.55L37,147.82l2.51,2.51a.77.77,0,1,0,1.09-1.09L38,146.73l1.89-1.89a.77.77,0,0,0-1.09-1.09L37,145.64l-2.31-2.31,6.25-.05,1.4,1.4-1.64,1.65a.77.77,0,0,0,1.08,1.09l1.65-1.65,1.55,1.56a.77.77,0,0,0,1.09,0,.76.76,0,0,0,0-1.09l-1.55-1.56,1.45-1.44,2,0,.86.86-1.33,1.33a.77.77,0,0,0,1.09,1.09l1.33-1.33L51.67,147a.77.77,0,0,0,1.09,0,.76.76,0,0,0,0-1.09l-1.82-1.83.9-.9,3.84,0a117,117,0,0,1,.44,16.69ZM43.05,143.26h.67l-.34.34Zm0,0" transform="translate(-0.43 -0.3)"/><path d="M94.65,23.15a79.44,79.44,0,0,0-1.07,8A1.54,1.54,0,0,0,96,32.57c1.86-1.26,3.81-2.67,5.64-4a61.15,61.15,0,0,0,7.86,4.36,1.53,1.53,0,0,0,2-2.12c-1.44-2.7-2.56-4.87-3.52-6.89,2.91-2.15,5.91-4.35,9-6.43a1.54,1.54,0,0,0-.82-2.81c-4-.12-8-.08-12,0a57,57,0,0,1-2-6.85,1.54,1.54,0,0,0-2.93-.24c-1,2.61-1.88,5-2.54,7.19-2.13,0-4.27,0-6.4,0h0A1.55,1.55,0,0,0,89,17.22a56.78,56.78,0,0,0,5.61,5.93Zm3.22-5.32a1.54,1.54,0,0,0,1.47-1.13c.31-1.12.67-2.27,1.07-3.48.36,1.14.76,2.32,1.21,3.53a1.66,1.66,0,0,0,1.53,1c2.67-.05,5.37-.09,8.14-.08-1.87,1.34-4.53,3.29-6.17,4.51a1.53,1.53,0,0,0-.48,1.88c.57,1.23,1.18,2.5,1.88,3.88-1.42-.81-2.78-1.65-4-2.52a1.53,1.53,0,0,0-1.77,0L97,28.11c.21-1.76.5-3.5.84-5.22a1.54,1.54,0,0,0-.49-1.44c-1.29-1.16-2.52-2.36-3.67-3.6,1.39,0,2.8,0,4.19,0Zm0,0" transform="translate(-0.43 -0.3)"/><path d="M54.31,24.68l7.94-7.94,3,2.94-5,5-.72-.72A.77.77,0,0,0,58.43,25l.72.72-1,1.05a.77.77,0,1,0,1.09,1.09l1.05-1.06,3.24,3.24a.76.76,0,0,0,1.09,0,.77.77,0,0,0,0-1.09l-3.24-3.24,5-5,4.58,4.57a.76.76,0,0,0,1.09,0,.77.77,0,0,0,0-1.09l-4.58-4.57L69.07,18l2.2,2.2a.77.77,0,0,0,1.09-1.09l-2.2-2.2,1.74-1.74a.77.77,0,1,0-1.09-1.09l-1.74,1.74-2.95-2.94,2.2-2.2a.77.77,0,1,0-1.09-1.09l-5,5-2.74-2.73a.77.77,0,0,0-1.09,1.08l2.74,2.74-8,7.94a.77.77,0,0,0,1.09,1.09ZM65,14,68,16.91l-1.68,1.68-3-2.94Zm0,0" transform="translate(-0.43 -0.3)"/><path d="M129,29.39a.77.77,0,0,0,1.09,0l3.15-3.15,2.32,2.32a.77.77,0,0,0,1.09-1.09l-2.32-2.32,2.44-2.44,2.67,2.67a.76.76,0,0,0,1.09,0l.34-.34a.77.77,0,0,0,.8-1.28c-.49-.49-.91-.81-1.4-.3l-.29.29-2.12-2.12,2.78-2.79a.76.76,0,0,0,0-1.08.77.77,0,0,0-1.09,0l-2.78,2.78-2-2a.77.77,0,0,0-1.09,0,.76.76,0,0,0,0,1.08l2,2-2.44,2.44-3-3a.77.77,0,0,0-1.09,1.09l3,3L129,28.3a.78.78,0,0,0,0,1.09Zm0,0" transform="translate(-0.43 -0.3)"/></g></g></svg>