<svg xmlns="http://www.w3.org/2000/svg" xmlns:xlink="http://www.w3.org/1999/xlink" viewBox="0 0 178.21 198.67"><defs><style>.cls-1{fill:none;}.cls-2{clip-path:url(#clip-path);}</style><clipPath id="clip-path" transform="translate(-0.28 -0.24)"><rect class="cls-1" width="178.77" height="199.16"/></clipPath></defs><title>home</title><g id="Layer_2" data-name="Layer 2"><g id="Layer_1-2" data-name="Layer 1"><g class="cls-2"><path d="M168.35,22.4C157.08.57,142.75.59,130.27.51Q87.31.42,44.34.24C27.11.17,22.45,4.7,17.4,20.88c-8.77,28.37-6.06,18.88-9,27.52C5.55,51.48,2.5,54.86,1.07,59-1.83,67.36,3.35,77.23,15,71.47q-.25,25.91-.55,51.79-.27,25.36-.54,50.73C8.21,175.44.9,178.16.66,185c-.14,4.26,2.94,8.12,8.25,10.34,9.7,4,20.36,3.74,30,3.47,133.1-3.46,126.6-2.68,131.52-5a12.24,12.24,0,0,0,7.1-10.38c.15-5.15-3.39-9.27-7-11.06-3.23-1.64-6.72-1.94-10.61-2.07.69-11.1,4.38-73.44,2.59-107.19,7,.09,11.4.75,14.15-2.62,2.59-3.13,1.85-7.64.78-11.65-2.42-8.91-4.92-18.13-9.16-26.39ZM3.85,60.21c1.43-4.11,3-5.42,25.34-30.13C35.54,23,43,15.56,51.53,16.14c8,.55,14.3,8,20.09,15.65,3.85,5.12,6.66,8.82,14.5,19.17,2.54,3.36,6.32,8.29,6.54,13.38.27,6.13-4.53,15.11-15.22,2.29C60.25,46,61.82,48,59.41,44.65c-3-4.18-6-8.34-10.09-7.88-3,.31-4.26,2.17-9.9,8.32-7.38,8-14.34,15.65-23.61,22.17a.2.2,0,0,0-.07.06h0C4.65,74.1,1.93,65.78,3.85,60.21ZM171,51.14l-4.22,4.75-4.22-4.75,4.22-4.76Zm-5.28,5.94-1.45,1.64a.89.89,0,0,0-.07,1l-7.9-.12a.88.88,0,0,0-.08-1l-.15-.17,5.43-6.11Zm1.06,1.19,1.32,1.49-2.61,0Zm-12.95,7-2.09-2.35L156,63l.88,1-1.16,1.31Zm-.11-6.53a.88.88,0,0,0-.13.83l-9.37-.14,5.3-6,4.44,5Zm-53.9,3.4-1.11,1.25-1.15-1.28h.09l2.17,0Zm-6.18,10.3.3.33-2.36,2.67-.34-.37a9.16,9.16,0,0,0,2.4-2.63ZM38.35,50.93l.37-.4,2.63-2.86.88,1a.65.65,0,0,0-.86.09L38.1,52.43l-.56-.63.81-.87ZM18,71.93l1.09,1.24-1.12,1.26,0-2.5ZM174.56,183.26c-.1,3.41-2.73,6.17-5.28,7.39-4.26,2,2.25,1.31-130.42,4.76-9.24.26-19.69.53-28.92-3.26-3.11-1.31-6.4-3.84-6.29-7.05.45-13.24,52.24-10.33,64.56-10.78,6.1-.28,92-3.6,101.16,1.07,2.57,1.29,5.3,4.31,5.19,7.87ZM42.75,120.56l2.42,2.72-1.59,1.79a.92.92,0,0,0,0,1.19.7.7,0,0,0,1.06,0l1.58-1.79.32.36a.69.69,0,0,0,1.06,0,.92.92,0,0,0,0-1.19l-.32-.36,2.6-2.93a.85.85,0,0,0,.15-.42l.72-.06,1.94,2.18-2.18,2.44a.94.94,0,0,0,0,1.2.7.7,0,0,0,1.06,0l2.17-2.45,1,1.16a.68.68,0,0,0,1.06,0,.92.92,0,0,0,0-1.19l-1-1.16,2.13-2.4a.89.89,0,0,0,.11-.31l2.07,2.32-.15.17A.92.92,0,0,0,59,123,.69.69,0,0,0,60,123l.15-.16.57.65a.7.7,0,0,0,1.06,0,.94.94,0,0,0,0-1.2l-.58-.65,1.93-2.16s0-.06,0-.09c1.47.7,1.58,2.65,1.64,4.5,1.8,43,1.91,44.54,1.89,47.1-23.32.92-14.23.28-30.11.51-1.34,0-2.68,0-4,.08,0-.63,0-1.26,0-1.89,0,0,.07,0,.09,0l.83-.93,1.94,2.19a.7.7,0,0,0,1.06,0,.94.94,0,0,0,0-1.2l-1.94-2.19,6.37-7.18a.92.92,0,0,0,0-1.19.69.69,0,0,0-1.06,0l-1.5,1.7s0-.08-.05-.12l-4.53-5.1L37,152h0a.69.69,0,0,0,1,0,.91.91,0,0,0,0-1.2h0l1.29-1.45a.92.92,0,0,0,0-1.19.69.69,0,0,0-1.06,0L37,149.6l-3.25-3.66,4.86-5.48.63.71a.68.68,0,0,0,1.05,0,.9.9,0,0,0,0-1.19l-5.35-6,4.73-5.33s0-.05,0-.06l.51.57a.69.69,0,0,0,1.05,0,.91.91,0,0,0,0-1.2L38,124.23l3.13-3.53.43,0Zm2-.17,3.27-.28-1.76,2Zm8-.69,2.22-.19-1.19,1.35Zm6.28-.54.93-.08c.45,0,.92-.07,1.36-.07l.16,0-1.28,1.44ZM31.57,133.71l0-1.22L32.83,134l-1.21,1.36c0-.53,0-1.07-.05-1.6Zm.11,3.61a.7.7,0,0,0,.46-.21l1.75-2,3.67,4.13-4.85,5.48-.83-.94q-.11-3.24-.2-6.49Zm.79,27.91c0-2.65-.09-5.29-.17-7.93l.41-.46L37.24,162s.07,0,.1,0l-3.87,4.37Zm-.28-11.35c-.06-2-.12-4-.19-6l.7-.79L36,150.8l-3.25,3.66ZM36.93,123l-1.06-1.19a12.05,12.05,0,0,1,2.86-.84Zm-2.43-.35,1.37,1.54-1.24,1.41a.9.9,0,0,0,0,1.19.68.68,0,0,0,1,0l1.25-1.4,1.75,2-.06,0-4.73,5.34-2.31-2.61c.12-2.67.6-5.14,2.09-6.8a4.72,4.72,0,0,1,.83-.66ZM157,170.15c-28.81-.73-58-.55-87.33.75,0-3.2,0-2.68-1.88-47.12-.2-6.51-2.67-8.5-8.09-8.06L41.32,117.3c-9.46.81-13.1,4.2-12.74,16.52s.91,24.78,1,37.93a80,80,0,0,0-12.69,1.53q.26-25,.53-50,.25-23.35.5-46.73a.71.71,0,0,0,.41-.19l1.87-2.11c.09,0,.16.11.25.11a.66.66,0,0,0,.53-.24.87.87,0,0,0,.12-.88l4.3-4.84a.92.92,0,0,0,0-1.19.69.69,0,0,0-1.06,0L20.11,72l-2.06-2.33c.46-.33.9-.67,1.35-1s1.17-.87,1.74-1.31,1.08-.87,1.62-1.32,1.07-.86,1.59-1.3l0,0,3,3.39a.69.69,0,0,0,1.05,0,.9.9,0,0,0,0-1.19l-2.87-3.25.4-.36c.47-.42,1-.83,1.42-1.26s1.12-1,1.68-1.58l1.07-1,.67.74L27.7,63.66a.92.92,0,0,0,0,1.19.7.7,0,0,0,1.06,0l3.11-3.5.69.78a.69.69,0,0,0,1.06,0,.92.92,0,0,0,0-1.19l-.69-.78,1-1.11a.92.92,0,0,0,0-1.19.69.69,0,0,0-1.06,0l-1,1.11-.59-.68.84-.84c.35-.35.71-.7,1.05-1.06.69-.7,1.37-1.41,2-2.13L36,53.5l.5-.54.58.66-.89,1a.91.91,0,0,0,0,1.2.69.69,0,0,0,1,0l.9-1,.16.18a.68.68,0,0,0,1.06,0,.92.92,0,0,0,0-1.19l-.16-.17,3.26-3.69a.86.86,0,0,0,.08-1l.29.32a.68.68,0,0,0,1.06,0,.92.92,0,0,0,0-1.19L42.42,46.5c1.29-1.41,2.58-2.82,3.93-4.26l1,1.1-1.79,2a.9.9,0,0,0,0,1.19.68.68,0,0,0,1,0l1.79-2,1.47,1.65a.68.68,0,0,0,1,0,.92.92,0,0,0,0-1.19l-1.46-1.65.33-.37a.92.92,0,0,0,0-1.19.68.68,0,0,0-1,0l-.33.37-.9-1a3.59,3.59,0,0,1,2.6-1.07c2.34.18,4.71,3.49,7,6.7,2.42,3.37.8,1.3,18.18,22.17,4.07,4.88,9.14,9.4,14.59,6.91l.68.77-1.39,1.57a.91.91,0,0,0,0,1.2.7.7,0,0,0,1.06,0l1.39-1.58.19.22a.69.69,0,0,0,1.06,0,.9.9,0,0,0,0-1.19l-.19-.22L95,73.94l.89,1A.69.69,0,0,0,97,75a.92.92,0,0,0,0-1.19l-.89-1,3.6-4.06a.9.9,0,0,0,0-1.19.68.68,0,0,0-1,0L95,71.56l-.59-.66c1.44-3.33,1.48-7.71,1-8.84h0l2.22,2.5-.54.61a.94.94,0,0,0,0,1.2.69.69,0,0,0,1,0l.55-.62,1.69,1.92a.7.7,0,0,0,1.06,0,.94.94,0,0,0,0-1.2l-1.7-1.91,2-2.26s0-.1,0-.15l1.11,0L106.32,66a.68.68,0,0,0,1.05,0,.9.9,0,0,0,0-1.19l-2.28-2.57,6,.09-3.55,4a.92.92,0,0,0,0,1.19.69.69,0,0,0,1.06,0l3.6-4.06,1.91,2.15a.7.7,0,0,0,1.06,0,.94.94,0,0,0,0-1.2l-1.83-2,4.94.07,4,4.46H116.9a.85.85,0,0,0,0,1.68h6.82l.21.24a.69.69,0,0,0,1.06,0,.7.7,0,0,0,.09-.24h.77a.85.85,0,0,0,0-1.68h-1.51l-3.92-4.42,9.12.13,2.38,2.68h-2.61a.85.85,0,0,0,0,1.69h4.11l1.11,1.24a.69.69,0,0,0,1.06,0,.92.92,0,0,0,0-1.19l-.05-.06h.81a.85.85,0,0,0,0-1.68H134l-2.35-2.65,7.53.11.29.32-1.89,2.14a.9.9,0,0,0,0,1.19.68.68,0,0,0,1,0l1.9-2.13,3.62,4.08a.7.7,0,0,0,1.06,0,.92.92,0,0,0,0-1.19L141.63,63l.25-.28,7.74.11,2.12,2.38h-3a.85.85,0,0,0,0,1.69h4.53l.36.41a.7.7,0,0,0,1.06,0,.89.89,0,0,0,.15-.41H156a.7.7,0,0,0,.53-.25l1.38-1.55.23.26a.69.69,0,0,0,1.06,0,.92.92,0,0,0,0-1.19l-.23-.26.64-.73c1.78,33.63-1.94,96.16-2.61,106.94Zm17.54-112v0c-1,1.21-2.64,1.53-4.44,1.59,0-.08,0-.18-.09-.24l-2.15-2.42,6.4-7.22a.92.92,0,0,0,0-1.19.69.69,0,0,0-1.06,0L172.07,50l-4.31-4.86a.87.87,0,0,0-.13-.85.64.64,0,0,0-.75-.14l-2.64-3a.69.69,0,0,0-1.06,0,.92.92,0,0,0,0,1.19l2.55,2.87-4.22,4.76-1-1.14a.69.69,0,0,0-1.06,0,.92.92,0,0,0,0,1.19l1,1.14L155,57.25l-4.43-5,6.87-7.75a.9.9,0,0,0,0-1.19.68.68,0,0,0-1.05,0l-6.88,7.75-1.12-1.26a.69.69,0,0,0-1.06,0,.92.92,0,0,0,0,1.19l1.12,1.26L143,58.46a.89.89,0,0,0-.1.93l-9.26-.14,4.06-4.58,3.24,3.66a.7.7,0,0,0,1.06,0,.94.94,0,0,0,0-1.2l-3.24-3.65,5.69-6.41a.92.92,0,0,0,0-1.19.69.69,0,0,0-1.06,0l-5.69,6.41-.46-.52a.69.69,0,0,0-1.06,0,.92.92,0,0,0,0,1.19l.46.52L131.74,59c-.07.08-.06.18-.1.27l-34-.51c-1.1,0-2.19,0-3.28-.07-1.35-3.59-3.86-7-6-9.88C80.65,38.55,78,35,73.88,29.59c-6.2-8.16-13-16.19-22.17-16.82-9.74-.7-17.81,7.32-24.63,14.9-6.52,7.21-8.07,9-13.3,14.77.8-2.26,5.76-18.28,6.43-20.45C24.81,7.24,28.35,3.56,44.32,3.61q42.95.15,85.92.27c11.75.07,25-.22,35.51,20.21a72.13,72.13,0,0,1,3.07,7L166.23,34l-2.66-3a.69.69,0,0,0-1.06,0,.94.94,0,0,0,0,1.2l2.66,3-3.32,3.73a.92.92,0,0,0,0,1.19.69.69,0,0,0,1.06,0l3.32-3.74,3.87,4.36a.69.69,0,0,0,1.06,0,.91.91,0,0,0,0-1.18l-3.87-4.36,2.14-2.42c2,5.55,3.67,11.34,5.21,17,.83,3.09,1.46,6.49-.1,8.37Zm0,0" transform="translate(-0.28 -0.24)"/></g><path d="M107.34,113.83c3,.8,5.79.38,19.87-.31,7.6-.38,10.76-2.66,10.78-11.22l0-10.88c0-10.57-4.63-13.23-14.7-13.5a33.22,33.22,0,0,0-8.92.57c-8.34,2-9.28,8.8-9.51,15-.74,19.53,1.1,20,2.44,20.38Zm3.23-19-2.69,3-.12-.13c0-1.28.07-2.66.12-4.17,0-.58.07-1.11.1-1.65Zm-2.84,5.47s.1,0,.14-.07L111,103.8,109,106l-1.26-1.41c0-1.22-.06-2.62,0-4.27Zm.25,6.87-.06.07a.81.81,0,0,1,0-.15ZM135,91.42l0,10.87c0,5.54-.8,7.51-7.92,7.86-13.31.65-16.24,1-18.68.5a8.17,8.17,0,0,1-.27-1.24l.9-1,.17.2a.7.7,0,0,0,1.06,0,.92.92,0,0,0,0-1.19l-.18-.2,4.17-4.7a.92.92,0,0,0,0-1.19.69.69,0,0,0-1.06,0l-1.14,1.29-3.12-3.52,2.68-3,.2.23a.7.7,0,0,0,1.06,0,.92.92,0,0,0,0-1.19l-.2-.22,1.5-1.69a.91.91,0,0,0,0-1.2.68.68,0,0,0-1.05,0l-1.5,1.69-3-3.43a.66.66,0,0,0,.48-.22l3-3.38,3.08,3.46a.68.68,0,0,0,1,0,.92.92,0,0,0,0-1.19l-3.07-3.46L115,83.3a.92.92,0,0,0,.06-1l2.4,2.71-1,1.11a.92.92,0,0,0,0,1.19.69.69,0,0,0,1.06,0l1-1.11.35.4a.69.69,0,0,0,1.06,0,.9.9,0,0,0,0-1.19l-.35-.4,2.25-2.54,3.45,3.88a.69.69,0,0,0,1.06,0,.92.92,0,0,0,0-1.19l-.13-.14,1.61-1.82,1.15,1.3c.7.78,1.76-.4,1.06-1.19L128.9,82l0-.06c5.92,1.4,6.1,5,6.09,9.51Zm-20.3-9.54.15.16a.66.66,0,0,0-.27-.12l.12,0Zm-2.68,2.39-.72-.81a9.19,9.19,0,0,1,2.6-1.32Zm4.48-2.75a27.18,27.18,0,0,1,4.25-.27l-2.25,2.53Zm9.8,0,.43.5-1.6,1.81L123,81.28h.31c1,0,2.06.08,3.08.18ZM110.2,84.55l.8.9-2.49,2.81a9.13,9.13,0,0,1,1.69-3.71Zm0,0" transform="translate(-0.28 -0.24)"/><path d="M129.32,121.55l-13.76.68c-7.61.37-10.76,2.64-10.79,11.22l0,10.87c0,10.62,4.71,13.23,14.69,13.51,11.93.3,17.93-1.94,18.44-15.54.83-22.08-.45-21.13-8.55-20.74Zm-1.79,5-1.29-1.45,2.7-.14Zm-7.41.4-1.32-1.49,2.76-.13Zm-11.46,23.25s0,.08,0,.12a12.89,12.89,0,0,1-.88-5.7l2.94,3.31Zm-.91-12.4,0,.06s0,.08,0,.13Zm0-2.37v-1.95c0-2.39.11-4.48,1.27-5.84l3.93,4.44s-.08,0-.11.05l-4,4.52Zm2.52-8.77a9.72,9.72,0,0,1,3.43-.9l-2.11,2.38Zm24.61,15.5c-.42,11.31-4.73,12.58-15.38,12.32-3.84-.1-8-.58-10.08-3a.65.65,0,0,0,.29-.14l2-2.27.19.22a.7.7,0,0,0,1.06,0,.92.92,0,0,0,0-1.19l-.2-.22,2.92-3.28a.92.92,0,0,0,0-1.19.68.68,0,0,0-1.06,0l-2.91,3.28-4-4.5v-3.44c0,.06,0,.13.07.18a.7.7,0,0,0,.53.25.68.68,0,0,0,.48-.23L112,142.6a.69.69,0,0,0,1.06,0,.92.92,0,0,0,0-1.19l-3.19-3.6,4-4.52a.69.69,0,0,0,0-.13l.53.6a.7.7,0,0,0,1.06,0,.91.91,0,0,0,0-1.2l-2.89-3.26,3.27-3.69s0,0,0,0l.84,0,2.29,2.58-.67.76a.9.9,0,0,0,0,1.19.69.69,0,0,0,1,0l4.33-4.87.44,0,2.26,2.55,0,0a.92.92,0,0,0,0,1.19.69.69,0,0,0,1.06,0l.09-.11a.58.58,0,0,0,.86-.09.88.88,0,0,0,.08-1l1.54-1.74,1.06,1.19a.69.69,0,0,0,1.06,0,.92.92,0,0,0,0-1.19l-1.05-1.18a13.31,13.31,0,0,1,3.23.22c.43,1.22.94,5.88.51,17Zm0,0" transform="translate(-0.28 -0.24)"/><path d="M59.13,63.31c-4.49-3.08-9.93-3.09-14.9,0A22.05,22.05,0,0,0,34.1,80.88C34,86.14,36,91.2,39.36,94.09a13.71,13.71,0,0,0,9,3.15h.44c7.25-.2,14-5.42,16.48-12.71,2.6-7.75-.09-17.07-6.14-21.22ZM47.08,65.47a11.85,11.85,0,0,1,3.58-1l1.66,1.86-2.25,2.53ZM37.16,81.9l3.15,3.54-1.88,2.11a15,15,0,0,1-1.27-5.65ZM37.61,80a.65.65,0,0,0-.41-.19,16.54,16.54,0,0,1,.67-3.39l4.78,5.38a.69.69,0,0,0,.53.24c.07,0,.13-.07.2-.09l-2,2.28Zm.88-5.27A19.3,19.3,0,0,1,41.36,70l2.33,2.62-3.53,4Zm24,8.58A15.4,15.4,0,0,1,48.72,93.87a11,11,0,0,1-7.55-2.46,10.07,10.07,0,0,1-2-2.36l2.14-2.42.2.23a.74.74,0,0,0,.53.25.72.72,0,0,0,.53-.25.92.92,0,0,0,0-1.19l-.2-.23,2.49-2.81a.92.92,0,0,0,0-1.19.69.69,0,0,0-1.06,0v0a.87.87,0,0,0-.14-.84l-2.48-2.8,3.52-4L46,75.28a.69.69,0,0,0,1.06,0,.92.92,0,0,0,0-1.19L45.8,72.66l.14-.17a.9.9,0,0,0,0-1.19.68.68,0,0,0-1,0l-.15.17-2.33-2.63a17.11,17.11,0,0,1,3.23-2.61l4.77,5.38a.7.7,0,0,0,1.06,0,.94.94,0,0,0,0-1.2L51.13,70l2.25-2.54.67.77a.7.7,0,0,0,1.06,0,.94.94,0,0,0,0-1.2l-.68-.76h0a.9.9,0,0,0,0-1.19.68.68,0,0,0-1,0h0l-.65-.72a10.08,10.08,0,0,1,4.85,1.78c4.77,3.28,7,11,4.89,17.15Zm0,0" transform="translate(-0.28 -0.24)"/><path d="M131.47,15H120.58V11.29a.75.75,0,1,0-1.49,0V15h-5.75L112,13.4a.69.69,0,0,0-1.06,0,.92.92,0,0,0,0,1.19l.32.37H99.36V12.19a.75.75,0,1,0-1.49,0V15H88.15V10.83a.75.75,0,1,0-1.49,0V15H76.19a.85.85,0,0,0,0,1.68H86.66v6.91a.75.75,0,1,0,1.49,0V16.64h9.72v5.12a.75.75,0,1,0,1.49,0V16.64h13.36l2.49,2.81a.7.7,0,0,0,1.06,0,.92.92,0,0,0,0-1.19l-1.44-1.62h4.26v3.77a.75.75,0,1,0,1.49,0V16.64h10.89a.85.85,0,0,0,0-1.68Zm0,0" transform="translate(-0.28 -0.24)"/></g></g></svg>