<svg id="Layer_1" data-name="Layer 1" xmlns="http://www.w3.org/2000/svg" viewBox="0 0 613 613"><defs><style>.cls-1{fill:#e50c40;}</style></defs><path class="cls-1" d="M1181.81,196.76a47.65,47.65,0,0,0-45-45c-49.14-2.68-145.28-.07-237.22,47.48-46.86,24.24-96.43,65.34-136,112.76l-1.44,1.76-89.77,6.93a47.41,47.41,0,0,0-36.11,21.25L575,434.54a32.83,32.83,0,0,0,22.36,50.54L673,496.79c-.26,1.47-.53,2.94-.78,4.41a47.63,47.63,0,0,0,13.35,41.43L790.9,648a47.75,47.75,0,0,0,33.7,14,47,47,0,0,0,7.73-.64l4.41-.78,11.71,75.63A32.8,32.8,0,0,0,899,758.54l92.64-61.25a47.37,47.37,0,0,0,21.24-36.11l6.94-89.77,1.76-1.44c47.42-39.56,88.52-89.13,112.76-136,47.55-91.94,50.16-188.09,47.48-237.22Zm-210,470.57-88.61,58.59-11.42-73.71c37.45-11,74.5-28.65,109.79-52.28l-4.52,58.48a11.7,11.7,0,0,1-5.24,8.92ZM816.3,622.58,711,517.23a11.64,11.64,0,0,1-3.32-10.11,309.48,309.48,0,0,1,14-53.35L879.72,611.84A309.71,309.71,0,0,1,826.4,625.9a11.62,11.62,0,0,1-10.1-3.32ZM675.12,356.47,733.59,352c-23.62,35.29-41.26,72.34-52.27,109.79l-73.71-11.42,58.59-88.61A11.7,11.7,0,0,1,675.12,356.47ZM998.56,542.38a411.65,411.65,0,0,1-83.13,54.37L736.77,418.1A418.5,418.5,0,0,1,791.15,335c36.6-43.89,82.13-81.74,124.91-103.87,84.37-43.64,173.27-46,218.75-43.52A11.79,11.79,0,0,1,1146,198.72c2.48,45.48.12,134.38-43.52,218.75-22.13,42.78-60,88.31-103.87,124.91Z" transform="translate(-569.53 -151)"/><path class="cls-1" d="M989.44,433.84a89.71,89.71,0,1,0-63.5-26.25,89.52,89.52,0,0,0,63.5,26.25ZM951.34,306a53.87,53.87,0,1,1-15.78,38.1A53.72,53.72,0,0,1,951.34,306Z" transform="translate(-569.53 -151)"/><path class="cls-1" d="M587.85,656.17a17.89,17.89,0,0,0,12.7-5.26l58.63-58.63a18,18,0,1,0-25.4-25.4l-58.63,58.63a18,18,0,0,0,12.7,30.66Z" transform="translate(-569.53 -151)"/><path class="cls-1" d="M712.92,620.61a18,18,0,0,0-25.4,0L574.79,733.34a18,18,0,0,0,25.4,25.4L712.92,646a18,18,0,0,0,0-25.4Z" transform="translate(-569.53 -151)"/><path class="cls-1" d="M741.25,674.35,682.62,733a18,18,0,0,0,25.4,25.4l58.63-58.64a18,18,0,0,0-25.4-25.39Z" transform="translate(-569.53 -151)"/></svg>