<svg xmlns="http://www.w3.org/2000/svg" viewBox="0 0 131.44 105.63">
  <defs>
    <style>
      .cls-1 {
        fill: #fff;
      }
    </style>
  </defs>
  <g id="Layer_2" data-name="Layer 2">
    <g id="Layer_1-2" data-name="Layer 1">
      <path class="cls-1" d="M127.23,96c-9.07-7.08-.85-24.36-.85-24.36,16.43-41.94-12-63.06-16.86-65.81-9.9-5.61-33.44-11.1-45.32,4C60.84,14,62,19.33,63.51,23c4,9.53,14.68,18.1,23.86,19.1,2.61.29,4.52-.31,5.81-1.81,4.1-4.78,1.94-17.34.76-21.78a2.26,2.26,0,0,1,1.61-2.77,2.2,2.2,0,0,1,1,0,2.24,2.24,0,0,1,1.75,1.62c.5,1.87,4.67,18.47-1.7,25.89a10.15,10.15,0,0,1-8.06,3.46,14.12,14.12,0,0,1-1.68-.1C76.05,45.45,64,35.85,59.32,24.78a22.54,22.54,0,0,1-1.81-8C31.56,16.75,1.93,31.22,0,57.24a1.81,1.81,0,0,0,1.24,1.87,1.81,1.81,0,0,0,2.12-.75,33.29,33.29,0,0,1,5.55-6.92A25.74,25.74,0,0,0,12.6,63a46.08,46.08,0,0,1,6.61,23.73l0,15.45c.22,1.91,4.71,3.42,10.25,3.42s10-1.51,10.26-3.42l0-10a9.35,9.35,0,0,1,3-6.86,10.21,10.21,0,0,1,7.07-2.48H55a9.51,9.51,0,0,1,6.68,2.88,9.36,9.36,0,0,1,2.77,6.65l0,9.86c.22,1.9,4.71,3.42,10.26,3.42s10-1.52,10.25-3.42l0-8.67a44.62,44.62,0,0,1,21-38.47c11.09-6.73,6.16,13.68,6.16,13.68-7.36,23,9.64,33.43,9.64,33.43l.07-.08c.06.05.07.14.13.18,1.09.83,3.07,0,4.43-1.76,1.24-1.65,1.47-3.53.66-4.47Z"/>
    </g>
  </g>
</svg>
