<svg id="Capa_1" enable-background="new 0 0 512 512" height="512" viewBox="0 0 512 512" width="512" xmlns="http://www.w3.org/2000/svg"><path d="m436 173.837v323.148h-361v-316.86l181-136.14z" fill="#e8ecf5"/><path d="m436 173.837v323.148h-180v-453z" fill="#dbe0ea"/><path d="m181 181.985h150v135h-150z" fill="#9ed0ff"/><path d="m256 181.985h75v135h-75z" fill="#73bcff"/><path d="m75 301.985h361v30h-361z" fill="#766e6e"/><path d="m256 301.985h180v30h-180z" fill="#5b5555"/><path d="m361 421.985v75h-30v-45h-60v-30h-60v-30h-60v-75h30v45h60v30h60v30z" fill="#766e6e"/><path d="m361 421.985v75h-30v-45h-60v-30h-15v-30h45v30z" fill="#5b5555"/><path d="m196 241.985h45v30h-45z" fill="#f2f6fc"/><path d="m451 184.655v312.33h-30v-261.56l-165-123.75-165 123.75v261.56h-30v-306.33l195-146.67z" fill="#766e6e"/><path d="m451 184.655v312.33h-30v-261.56l-165-123.75v-67.69z" fill="#5b5555"/><path d="m256 .015-256 190.37v81.6h61v-51.56l195-146.25 195 146.25v51.56h61v-81.6z" fill="#ff637b"/><path d="m512 190.385v81.6h-61v-51.56l-195-146.25v-74.16z" fill="#e63950"/><path d="m31 481.985h450v30h-450z" fill="#b9dd39"/><path d="m256 481.985h225v30h-225z" fill="#90cc1c"/></svg>