<svg id="Capa_1" enable-background="new 0 0 512 512" height="512" viewBox="0 0 512 512" width="512" xmlns="http://www.w3.org/2000/svg"><g><g fill="#5c6c75"><path d="m177.802 60.011c0-4.268-3.459-7.726-7.726-7.726h-57.131c-.047 0-.092.006-.139.007-.14.003-.28.011-.42.021-.117.009-.234.016-.35.03-.131.016-.262.038-.392.06-.121.021-.242.04-.361.066-.124.027-.246.062-.369.095-.121.033-.242.064-.36.103-.119.039-.236.085-.354.13-.117.044-.235.088-.35.138-.113.05-.224.107-.336.162-.115.057-.23.113-.342.176-.105.059-.207.124-.309.188-.114.071-.228.142-.337.219-.094.066-.186.137-.278.208-.113.086-.224.174-.331.266-.035.03-.072.055-.107.086-.053.047-.099.1-.15.148-.1.095-.199.19-.294.29-.086.09-.169.182-.249.275-.082.095-.163.191-.24.29-.081.103-.159.207-.234.313-.069.098-.136.197-.2.298-.071.111-.139.222-.203.335-.061.107-.118.214-.174.324-.057.111-.111.223-.162.336-.053.119-.103.239-.15.361-.043.109-.083.218-.12.328-.044.129-.083.26-.12.391-.031.11-.059.219-.085.329-.031.132-.058.266-.082.401-.021.118-.039.236-.054.355-.016.127-.031.254-.041.383-.011.134-.016.267-.02.401-.002.072-.011.143-.011.216 0 .047.006.093.007.14.003.138.011.277.021.415.008.119.016.237.03.354.015.13.037.259.059.388.021.123.04.245.067.366s.06.241.093.361c.033.123.066.247.105.368.038.117.083.232.127.348.045.119.089.239.14.356.049.112.105.222.16.332.058.116.114.232.178.345.058.104.123.205.186.306.072.115.143.229.221.34.066.094.136.185.206.276.087.113.174.224.267.332.03.035.055.072.086.107l45.692 51.371h-39.918c-.046 0-.09.006-.135.007-.143.002-.285.011-.428.021-.114.009-.229.016-.341.029-.134.016-.268.038-.401.061-.119.02-.237.039-.354.065-.125.027-.248.062-.372.096-.12.033-.241.064-.359.102s-.234.084-.35.128c-.12.045-.239.09-.356.14-.11.048-.217.104-.325.157-.119.059-.238.117-.354.182-.1.056-.196.118-.294.179-.12.074-.24.149-.356.23-.087.061-.172.127-.257.193-.12.092-.239.186-.354.285-.032.027-.066.05-.098.078-.049.043-.09.091-.138.135-.108.101-.213.203-.314.309-.081.085-.159.172-.235.259-.087.099-.171.2-.252.304-.078.1-.153.2-.226.302-.071.101-.14.202-.206.306-.069.108-.136.218-.2.328-.062.108-.12.217-.176.328s-.11.221-.161.334c-.053.118-.103.238-.15.36-.043.11-.084.22-.121.331-.043.127-.082.256-.119.386-.031.112-.06.224-.087.337-.03.13-.057.26-.08.392-.022.122-.04.243-.056.366-.016.124-.03.247-.04.373-.011.137-.017.273-.021.41-.002.071-.011.14-.011.211 0 .047.006.092.007.138.002.141.011.281.021.421.008.117.016.234.03.35.015.13.037.26.059.389.021.123.04.246.067.367.026.12.059.238.092.357.034.125.067.251.107.373.037.114.081.225.123.337.047.124.093.248.146.369.046.106.1.21.151.314.061.123.121.246.188.366.054.096.114.189.173.284.076.123.153.245.236.364.06.086.125.169.189.253.093.121.187.241.287.357.027.032.05.066.078.098l45.69 51.364h-39.918c-.046 0-.09.006-.135.007-.143.002-.285.011-.428.021-.114.009-.229.016-.341.029-.134.016-.268.038-.401.061-.119.02-.237.039-.354.065-.125.027-.248.062-.372.096-.12.033-.241.064-.359.102s-.234.084-.35.128c-.12.045-.239.09-.356.14-.11.048-.217.104-.325.157-.119.059-.238.117-.354.182-.1.056-.196.118-.294.179-.12.074-.24.149-.356.23-.087.061-.172.127-.257.193-.12.092-.239.186-.354.285-.032.027-.066.05-.098.078-.049.043-.09.091-.137.135-.108.101-.214.204-.316.311-.08.084-.156.169-.232.255-.088.101-.174.204-.257.31-.076.097-.15.195-.22.294-.074.104-.144.209-.213.316-.067.105-.132.21-.193.318-.064.112-.124.225-.183.341-.054.106-.106.212-.154.32-.056.123-.107.248-.156.375-.04.104-.079.209-.115.315-.045.133-.086.267-.124.402-.029.106-.057.213-.082.32-.031.135-.059.271-.083.408-.021.116-.038.232-.053.349-.017.129-.031.258-.041.389s-.016.263-.02.394c-.002.074-.011.146-.011.22 0 .048.006.095.007.143.003.136.011.271.021.407.009.122.017.242.031.363.015.126.036.252.058.378.021.126.042.253.069.376.026.117.058.232.089.348.035.128.068.257.109.382.036.111.079.22.12.329.048.126.094.252.148.375.046.105.099.208.15.312.061.123.121.247.189.367.054.096.114.19.172.284.076.123.153.245.236.364.06.086.125.169.189.253.093.121.187.241.287.357.027.032.05.066.078.098l57.131 64.227c1.526 1.716 3.644 2.592 5.774 2.592 1.826 0 3.661-.644 5.133-1.954 3.188-2.836 3.474-7.719.638-10.907l-45.691-51.366h39.921c.246 0 .492-.014.738-.037.088-.009.175-.024.262-.035.154-.02.308-.041.461-.07.104-.02.205-.045.308-.069.134-.031.268-.064.401-.103.105-.031.209-.065.312-.101.126-.043.252-.088.376-.138.103-.041.204-.085.305-.13.119-.054.237-.111.354-.171.101-.052.202-.106.3-.162.109-.062.216-.128.323-.196.102-.065.203-.131.301-.2.096-.068.191-.14.285-.213.102-.079.203-.16.302-.244.034-.03.07-.054.104-.085.049-.043.09-.091.138-.135.108-.101.213-.203.314-.309.081-.085.159-.172.235-.259.087-.099.171-.2.252-.304.078-.1.153-.2.226-.302.071-.101.14-.202.206-.306.069-.108.136-.218.2-.328.062-.108.12-.217.176-.328s.11-.221.161-.334c.053-.118.103-.238.15-.361.043-.109.083-.219.121-.33.043-.127.082-.256.119-.386.031-.112.06-.224.087-.337.03-.129.057-.26.08-.392.022-.122.04-.243.056-.366.016-.124.03-.247.04-.373.011-.137.017-.273.021-.41.002-.071.011-.14.011-.211 0-.047-.006-.092-.007-.138-.002-.141-.011-.281-.021-.421-.008-.117-.016-.234-.03-.35-.015-.13-.037-.26-.059-.389-.021-.123-.04-.246-.067-.367-.026-.12-.059-.238-.092-.357-.034-.125-.067-.251-.107-.374-.037-.113-.08-.223-.122-.335-.047-.125-.093-.25-.147-.371-.046-.106-.099-.208-.15-.312-.061-.123-.121-.246-.188-.366-.054-.097-.114-.19-.173-.285-.076-.123-.153-.245-.236-.364-.06-.086-.125-.169-.189-.253-.093-.121-.187-.241-.287-.357-.027-.032-.05-.066-.078-.098l-45.69-51.364h39.921c.246 0 .492-.014.738-.037.088-.009.174-.024.261-.035.155-.02.31-.041.464-.071.103-.02.203-.045.305-.069.135-.032.27-.064.404-.104.104-.031.206-.065.309-.099.128-.044.255-.09.381-.14.101-.04.2-.083.299-.127.122-.055.243-.113.363-.175.098-.05.194-.102.289-.156.114-.065.226-.134.338-.205.096-.062.191-.124.284-.189.104-.073.204-.15.305-.228.095-.074.188-.148.279-.226.037-.032.077-.059.114-.092.053-.047.099-.1.15-.148.1-.095.199-.19.294-.29.086-.09.169-.182.249-.275.083-.095.163-.191.24-.29.081-.103.159-.207.234-.313.069-.098.136-.197.2-.298.071-.111.139-.222.203-.335.061-.107.118-.215.174-.324.056-.111.111-.222.161-.335.054-.119.103-.24.151-.362.042-.109.083-.217.12-.327.044-.129.083-.26.12-.392.031-.11.059-.219.085-.329.031-.132.058-.266.082-.401.021-.118.039-.236.054-.355.016-.127.031-.254.041-.383.011-.134.016-.267.02-.401.002-.072.011-.143.011-.216 0-.047-.006-.093-.007-.14-.003-.138-.011-.277-.021-.415-.008-.119-.016-.237-.03-.354-.015-.13-.037-.259-.059-.388-.021-.123-.04-.245-.067-.366s-.06-.241-.093-.362c-.033-.123-.065-.246-.105-.367-.038-.117-.083-.231-.127-.346-.046-.12-.09-.241-.141-.358-.049-.111-.104-.22-.159-.33-.058-.116-.115-.233-.178-.346-.058-.104-.123-.205-.186-.306-.072-.115-.143-.229-.221-.34-.066-.094-.136-.185-.206-.276-.087-.113-.174-.224-.267-.332-.03-.035-.055-.072-.086-.107l-45.692-51.371h39.918c4.263-.002 7.722-3.461 7.722-7.729z"/><path d="m399.058 131.97c.246 0 .493-.014.739-.037.088-.009.174-.024.261-.035.155-.02.31-.041.464-.071.103-.02.203-.045.305-.069.135-.032.27-.064.404-.104.104-.031.207-.065.309-.099.128-.044.255-.09.381-.14.101-.04.2-.083.299-.127.122-.055.243-.113.363-.175.098-.05.194-.102.289-.156.114-.065.226-.134.338-.205.096-.062.191-.124.284-.189.104-.073.205-.15.305-.228.095-.074.188-.148.279-.226.037-.032.077-.059.114-.092.053-.047.099-.1.15-.148.1-.095.199-.19.294-.29.086-.09.169-.182.25-.275.082-.095.163-.191.24-.29.081-.103.159-.207.234-.313.069-.098.136-.197.2-.298.071-.111.139-.222.203-.335.061-.107.118-.215.174-.324.056-.111.111-.222.161-.335.054-.119.103-.24.151-.362.042-.109.083-.217.12-.327.044-.129.083-.26.12-.392.031-.11.059-.219.085-.329.031-.132.058-.266.082-.401.021-.118.039-.236.054-.355.016-.127.031-.254.041-.383.011-.134.017-.267.02-.401.002-.072.011-.143.011-.216 0-.047-.006-.093-.007-.14-.003-.138-.011-.277-.021-.415-.008-.119-.016-.237-.03-.354-.015-.13-.037-.259-.059-.388-.021-.123-.04-.245-.067-.366s-.06-.241-.093-.362c-.033-.123-.065-.246-.105-.367-.038-.117-.083-.231-.127-.346-.046-.12-.09-.241-.141-.358-.049-.111-.104-.22-.159-.33-.058-.116-.115-.233-.178-.346-.058-.104-.123-.205-.186-.306-.071-.115-.143-.229-.22-.34-.066-.094-.136-.185-.206-.276-.087-.113-.174-.224-.267-.332-.03-.035-.055-.072-.086-.107l-45.692-51.371h39.918c4.268 0 7.726-3.459 7.726-7.726s-3.459-7.726-7.726-7.726h-57.131c-.047 0-.092.006-.139.007-.14.003-.28.011-.42.021-.117.009-.233.016-.349.03-.132.016-.264.038-.396.06-.12.02-.239.04-.357.065-.126.028-.25.062-.374.096-.119.033-.238.063-.354.101-.122.039-.241.087-.361.132-.115.044-.231.087-.343.136-.116.05-.229.108-.343.165-.112.056-.225.111-.334.172-.107.06-.211.126-.315.192-.112.07-.224.14-.332.215-.095.066-.187.138-.28.21-.112.086-.223.173-.33.265-.035.03-.072.055-.107.086-.053.047-.099.1-.15.148-.1.095-.199.19-.294.29-.086.09-.169.182-.249.275-.082.095-.163.191-.24.29-.081.103-.159.207-.234.313-.069.098-.136.197-.2.298-.071.111-.139.222-.203.335-.061.107-.118.214-.174.324-.057.111-.111.223-.162.336-.053.119-.103.239-.15.361-.043.109-.083.218-.12.328-.044.129-.083.26-.12.391-.031.11-.059.219-.085.329-.031.132-.058.266-.082.401-.021.118-.039.236-.054.355-.016.127-.031.254-.041.383-.011.134-.016.267-.02.401-.002.072-.011.143-.011.216 0 .047.006.093.007.14.003.138.011.277.021.415.008.119.016.237.03.354.015.13.037.259.059.388.021.123.04.245.067.366s.06.241.093.361c.033.123.066.247.105.368.038.117.083.232.127.348.045.119.089.239.14.356.049.112.105.222.16.332.058.116.114.232.178.345.058.104.123.205.186.306.072.115.143.229.221.34.066.094.136.185.206.276.087.113.174.224.267.332.03.035.055.072.086.107l45.692 51.371h-39.918c-.046 0-.09.006-.135.007-.144.002-.287.011-.43.022-.113.008-.227.016-.339.029-.136.016-.271.039-.406.062-.116.02-.233.039-.348.064-.128.028-.254.063-.38.098-.117.032-.235.062-.35.1-.121.039-.24.086-.36.131-.116.044-.233.088-.347.137-.113.049-.223.106-.334.161-.116.058-.232.115-.345.178-.102.057-.2.12-.3.182-.118.073-.236.147-.35.227-.088.062-.174.128-.26.194-.12.092-.239.185-.353.284-.032.027-.066.05-.098.078-.049.043-.09.091-.138.135-.108.101-.213.203-.314.309-.081.085-.159.172-.235.259-.087.099-.171.2-.252.304-.078.1-.153.2-.226.302-.071.101-.14.202-.206.306-.069.108-.136.218-.2.328-.062.108-.12.217-.176.328s-.11.221-.161.334c-.053.118-.103.238-.15.36-.043.11-.084.22-.121.331-.043.127-.082.256-.119.386-.031.112-.06.224-.087.337-.03.13-.057.26-.08.392-.022.122-.04.243-.056.366-.016.124-.03.247-.04.373-.011.137-.017.273-.021.41-.002.071-.011.14-.011.211 0 .047.006.092.007.138.002.141.011.281.021.421.008.117.016.234.03.35.015.13.037.26.059.389.021.123.04.246.067.367.026.12.06.238.092.357.034.125.067.251.107.373.037.114.081.225.123.337.047.124.093.248.146.369.046.106.1.21.151.314.061.123.121.246.188.366.054.096.114.189.173.284.076.123.153.245.236.364.06.086.125.169.189.253.093.121.187.241.287.357.027.032.05.066.078.098l45.69 51.364h-39.918c-.046 0-.09.006-.135.007-.144.002-.287.011-.43.022-.113.008-.227.016-.339.029-.136.016-.271.039-.406.062-.116.02-.233.039-.348.064-.128.028-.254.063-.38.098-.117.032-.235.062-.35.1-.121.039-.24.086-.36.131-.116.044-.233.088-.347.137-.113.049-.223.106-.334.161-.116.058-.232.115-.345.178-.102.057-.2.12-.3.182-.118.073-.236.147-.35.227-.088.062-.174.128-.26.194-.12.092-.239.185-.353.284-.032.027-.066.05-.098.078-.049.043-.09.091-.137.135-.108.101-.214.204-.316.311-.08.084-.156.169-.232.255-.088.101-.174.204-.257.31-.076.097-.15.195-.22.294-.074.104-.144.209-.213.316-.067.105-.132.21-.193.318-.064.112-.124.225-.183.341-.054.106-.105.212-.154.32-.056.123-.107.248-.156.375-.04.104-.079.209-.115.315-.045.133-.086.267-.124.402-.029.106-.057.213-.082.32-.031.135-.059.271-.083.408-.021.116-.038.232-.053.349-.017.129-.031.258-.042.389-.01.131-.016.263-.02.394-.002.074-.011.146-.011.22 0 .048.006.095.007.143.003.136.011.271.021.407.009.122.017.242.031.363.015.126.036.252.058.378.021.126.042.253.069.376.026.117.058.232.089.348.035.128.068.257.109.382.036.111.079.22.12.329.048.126.094.252.148.375.046.105.099.208.15.312.061.123.121.247.189.367.054.096.114.19.172.284.076.123.153.245.236.364.06.086.125.169.189.253.093.121.187.241.287.357.027.032.05.066.078.098l57.131 64.227c1.526 1.716 3.644 2.592 5.774 2.592 1.826 0 3.661-.644 5.133-1.954 3.188-2.836 3.474-7.719.638-10.907l-45.691-51.366h39.921c.246 0 .492-.014.738-.037.088-.009.175-.024.262-.035.154-.02.308-.041.461-.07.104-.02.205-.045.308-.069.134-.031.268-.064.401-.103.105-.031.208-.065.312-.101.126-.043.252-.088.376-.138.103-.041.204-.085.305-.13.119-.054.237-.111.354-.171.101-.052.202-.106.3-.162.109-.062.216-.128.323-.196.102-.065.203-.131.301-.2.096-.068.191-.14.285-.213.102-.079.203-.16.302-.244.034-.03.07-.054.104-.085.049-.043.09-.091.138-.135.107-.101.213-.203.314-.309.081-.085.159-.172.235-.259.087-.099.171-.2.252-.304.078-.1.153-.2.226-.302.071-.101.14-.202.206-.306.069-.108.136-.218.2-.328.062-.108.12-.217.176-.328s.11-.221.161-.334c.054-.118.103-.238.15-.361.043-.109.083-.219.121-.33.043-.127.082-.256.119-.386.031-.112.06-.224.087-.337.03-.129.057-.26.08-.392.022-.122.04-.243.056-.366.016-.124.03-.247.039-.373.011-.137.017-.273.021-.41.002-.071.011-.14.011-.211 0-.047-.006-.092-.007-.138-.003-.141-.011-.281-.021-.421-.009-.117-.016-.234-.03-.35-.015-.13-.037-.26-.059-.389-.021-.123-.04-.246-.067-.367-.026-.12-.059-.238-.092-.357-.034-.125-.067-.251-.107-.374-.036-.113-.08-.223-.122-.335-.047-.125-.093-.25-.147-.371-.046-.106-.099-.208-.15-.312-.061-.123-.121-.246-.189-.366-.054-.097-.114-.19-.173-.285-.076-.123-.153-.245-.236-.364-.06-.086-.125-.169-.189-.253-.093-.121-.187-.241-.286-.357-.028-.032-.05-.066-.078-.098l-45.69-51.364h39.917z"/></g><g fill="#7d8c97"><path d="m112.945 260.423c-4.268 0-7.726-3.459-7.726-7.726v-221.562c0-4.268 3.459-7.726 7.726-7.726 4.268 0 7.726 3.459 7.726 7.726v221.561c0 4.268-3.459 7.727-7.726 7.727z"/><path d="m170.077 260.423c-4.268 0-7.728-3.459-7.728-7.726v-221.562c0-4.268 3.459-7.726 7.726-7.726s7.726 3.459 7.726 7.726v221.561c.001 4.268-3.456 7.727-7.724 7.727z"/><path d="m341.925 260.423c-4.268 0-7.726-3.459-7.726-7.726v-221.562c0-4.268 3.459-7.726 7.726-7.726 4.268 0 7.726 3.459 7.726 7.726v221.561c0 4.268-3.459 7.727-7.726 7.727z"/><path d="m399.057 260.423c-4.268 0-7.728-3.459-7.728-7.726v-221.562c0-4.268 3.459-7.726 7.726-7.726s7.726 3.459 7.726 7.726v221.561c.001 4.268-3.457 7.727-7.724 7.727z"/></g><path d="m5.151 303.073h501.698c2.845 0 5.151 2.306 5.151 5.151v175.216c0 2.845-2.306 5.151-5.151 5.151h-501.698c-2.845 0-5.151-2.306-5.151-5.151v-175.216c0-2.845 2.306-5.151 5.151-5.151z" fill="#f4b2a1"/><path d="m506.849 463.753h-501.698c-2.845 0-5.151-2.306-5.151-5.151v24.838c0 2.845 2.306 5.151 5.151 5.151h501.698c2.845 0 5.151-2.306 5.151-5.151v-24.838c0 2.845-2.306 5.151-5.151 5.151z" fill="#df8571"/><path d="m506.849 303.073h-28.845c2.845 0 5.151 2.306 5.151 5.151v175.216c0 2.845-2.306 5.151-5.151 5.151h28.845c2.845 0 5.151-2.306 5.151-5.151v-175.216c0-2.845-2.306-5.151-5.151-5.151z" fill="#df8571"/><g fill="#df8571"><path d="m78.946 454.743c-1.977 0-3.955-.755-5.464-2.263l-8.517-8.517c-3.017-3.018-3.017-7.909 0-10.928 3.018-3.016 7.909-3.016 10.928 0l8.517 8.517c3.017 3.018 3.017 7.909 0 10.928-1.51 1.508-3.487 2.263-5.464 2.263z"/><path d="m151.471 454.743c-1.977 0-3.955-.755-5.464-2.263l-8.517-8.517c-3.017-3.018-3.017-7.909 0-10.928 3.018-3.016 7.909-3.016 10.928 0l8.517 8.517c3.017 3.018 3.017 7.909 0 10.928-1.509 1.508-3.487 2.263-5.464 2.263z"/><path d="m223.996 454.743c-1.977 0-3.955-.755-5.464-2.263l-8.517-8.517c-3.017-3.018-3.017-7.909 0-10.928 3.018-3.016 7.909-3.016 10.928 0l8.517 8.517c3.017 3.018 3.017 7.909 0 10.928-1.509 1.508-3.487 2.263-5.464 2.263z"/><path d="m296.521 454.743c-1.977 0-3.955-.755-5.464-2.263l-8.517-8.517c-3.017-3.018-3.017-7.909 0-10.928 3.018-3.016 7.909-3.016 10.928 0l8.517 8.517c3.017 3.018 3.017 7.909 0 10.928-1.509 1.508-3.487 2.263-5.464 2.263z"/><path d="m369.046 454.743c-1.977 0-3.955-.755-5.464-2.263l-8.517-8.517c-3.017-3.018-3.017-7.909 0-10.928 3.018-3.016 7.909-3.016 10.928 0l8.517 8.517c3.017 3.018 3.017 7.909 0 10.928-1.509 1.508-3.487 2.263-5.464 2.263z"/><path d="m441.571 454.743c-1.977 0-3.955-.755-5.464-2.263l-8.517-8.517c-3.017-3.018-3.017-7.909 0-10.928 3.018-3.016 7.909-3.016 10.928 0l8.517 8.517c3.017 3.018 3.017 7.909 0 10.928-1.509 1.508-3.487 2.263-5.464 2.263z"/></g><path d="m104.048 254.756v98.693h74.924v-98.693c0-1.138-.922-2.06-2.06-2.06h-70.803c-1.138 0-2.061.922-2.061 2.06z" fill="#7d8c97"/><path d="m176.912 252.696h-18.477c1.138 0 2.06.923 2.06 2.06v78.139h-56.447v20.553h74.924v-98.693c0-1.136-.922-2.059-2.06-2.059z" fill="#5c6c75"/><path d="m78.669 392.804v-35.234c0-2.276 1.845-4.121 4.121-4.121h117.44c2.276 0 4.121 1.845 4.121 4.121v35.234c0 2.276-1.845 4.121-4.121 4.121h-117.44c-2.276-.001-4.121-1.845-4.121-4.121z" fill="#7d8c97"/><path d="m200.23 353.449h-18.477c2.276 0 4.121 1.845 4.121 4.121v35.234c0 2.276-1.845 4.121-4.121 4.121h18.477c2.276 0 4.121-1.845 4.121-4.121v-35.234c0-2.276-1.845-4.121-4.121-4.121z" fill="#5c6c75"/><path d="m333.028 254.756v98.693h74.924v-98.693c0-1.138-.922-2.06-2.06-2.06h-70.803c-1.139 0-2.061.922-2.061 2.06z" fill="#7d8c97"/><path d="m405.891 252.696h-18.477c1.138 0 2.06.923 2.06 2.06v78.139h-56.447v20.553h74.924v-98.693c.001-1.136-.922-2.059-2.06-2.059z" fill="#5c6c75"/><path d="m307.649 392.804v-35.234c0-2.276 1.845-4.121 4.121-4.121h117.44c2.276 0 4.121 1.845 4.121 4.121v35.234c0 2.276-1.845 4.121-4.121 4.121h-117.44c-2.276-.001-4.121-1.845-4.121-4.121z" fill="#7d8c97"/><path d="m429.21 353.449h-18.477c2.276 0 4.121 1.845 4.121 4.121v35.234c0 2.276-1.845 4.121-4.121 4.121h18.477c2.276 0 4.121-1.845 4.121-4.121v-35.234c0-2.276-1.845-4.121-4.121-4.121z" fill="#5c6c75"/></g></svg>