<svg id="Layer_1" enable-background="new 0 0 512 512" height="512" viewBox="0 0 512 512" width="512" xmlns="http://www.w3.org/2000/svg"><g><path d="m55.5 221.5h400v153h-400z" fill="#bf6724"/><path d="m26 366h460v40h-460z" fill="#f0d6c0"/><path d="m456 366h30v40h-30z" fill="#e4bfa4"/><g><g><g><path d="m40 241h30v125h-30z" fill="#fdeedf"/></g><g><path d="m142 241h30v125h-30z" fill="#fdeedf"/></g><g><path d="m340 241h30v125h-30z" fill="#fdeedf"/></g><g><path d="m442 241h30v125h-30z" fill="#fdeedf"/></g></g></g><path d="m488.5 438h-465c-8.837 0-16-7.163-16-16 0-8.837 7.163-16 16-16h465c8.837 0 16 7.163 16 16 0 8.837-7.163 16-16 16z" fill="#64cc56"/><path d="m488.5 406h-30c8.837 0 16 7.163 16 16 0 8.837-7.163 16-16 16h30c8.837 0 16-7.163 16-16 0-8.837-7.163-16-16-16z" fill="#50a645"/><path d="m477 226h-442l45.478-152h351.044z" fill="#fdeedf"/><path d="m431.521 74h-30l45.479 152h30z" fill="#f0d6c0"/><path d="m475 211h-132.071l-75.199-94.349c-2.846-3.571-7.164-5.651-11.73-5.651s-8.884 2.08-11.73 5.651l-75.199 94.349h-132.071c-8.284 0-15 6.716-15 15s6.716 15 15 15h139.297c4.566 0 8.884-2.08 11.73-5.651l67.973-85.283 67.973 85.283c2.846 3.571 7.164 5.651 11.73 5.651h139.297c8.284 0 15-6.716 15-15s-6.716-15-15-15z" fill="#ffd180"/><path d="m211 260h90v106h-90z" fill="#fdeedf"/><path d="m271 260h30v106h-30z" fill="#f0d6c0"/><path d="m493.5 399.035v-33.035c0-4.143-3.357-7.5-7.5-7.5h-6.5v-110.452c10.258-2.091 18-11.182 18-22.048 0-11.334-8.424-20.737-19.339-22.279l-39.456-131.87c-.95-3.176-3.871-5.351-7.186-5.351h-15.289c-4.143 0-7.5 3.357-7.5 7.5s3.357 7.5 7.5 7.5h9.704l36.502 122h-115.893l-72.948-91.525c-4.294-5.386-10.707-8.475-17.595-8.475s-13.301 3.089-17.596 8.476l-72.947 91.524h-115.894l36.502-122h297.857c4.143 0 7.5-3.357 7.5-7.5s-3.357-7.5-7.5-7.5h-303.442c-3.314 0-6.235 2.175-7.186 5.351l-39.455 131.87c-10.915 1.542-19.339 10.945-19.339 22.279 0 10.866 7.742 19.957 18 22.048v7.952c0 4.143 3.357 7.5 7.5 7.5s7.5-3.357 7.5-7.5v-7.5h15v110h-15v-71.038c0-4.143-3.357-7.5-7.5-7.5s-7.5 3.357-7.5 7.5v71.038h-6.5c-4.143 0-7.5 3.357-7.5 7.5v33.035c-10.564 2.298-18.5 11.722-18.5 22.965 0 12.958 10.542 23.5 23.5 23.5h392.475c4.143 0 7.5-3.357 7.5-7.5s-3.357-7.5-7.5-7.5h-392.475c-4.687 0-8.5-3.813-8.5-8.5s3.813-8.5 8.5-8.5h465c4.687 0 8.5 3.813 8.5 8.5s-3.813 8.5-8.5 8.5h-40.115c-4.143 0-7.5 3.357-7.5 7.5s3.357 7.5 7.5 7.5h40.115c12.958 0 23.5-10.542 23.5-23.5 0-11.243-7.936-20.667-18.5-22.965zm-79.846-40.535v-29h20.846v29zm-105.154 0v-98.5c0-4.143-3.357-7.5-7.5-7.5h-90c-4.143 0-7.5 3.357-7.5 7.5v98.5h-24v-110.226c5.646-.801 10.772-3.709 14.393-8.25l5.2-6.524h113.815l5.201 6.525c3.62 4.54 8.745 7.448 14.392 8.249v110.226zm-15 0h-75v-91h75zm-180 0v-29h21v29zm36-110h15v110h-15zm61.548-30 44.952-56.4 44.952 56.4zm136.452 30h15v110h-15zm87 0v66h-57v-66zm-57 81h21.154v29h-21.154zm72-81h15v110h-15zm-412.5-15c-4.136 0-7.5-3.364-7.5-7.5s3.364-7.5 7.5-7.5h2.332c.054.001.107.002.161.002.055 0 .11-.001.165-.002h129.412c2.283 0 4.442-1.04 5.865-2.825l75.198-94.349c1.432-1.796 3.57-2.826 5.866-2.826s4.435 1.03 5.865 2.825l75.199 94.35c1.423 1.785 3.582 2.825 5.865 2.825h129.412c.055.001.11.002.165.002.053 0 .107-.001.161-.002h2.334c4.136 0 7.5 3.364 7.5 7.5s-3.364 7.5-7.5 7.5h-139.297c-2.296 0-4.435-1.03-5.865-2.825l-67.973-85.283c-1.423-1.785-3.582-2.825-5.865-2.825s-4.442 1.04-5.865 2.825l-67.972 85.282c-1.432 1.796-3.57 2.826-5.866 2.826zm97.5 15v66h-57v-66zm-57 81h21v29h-21zm-44 69v-25h445v25z"/></g></svg>