<?xml version="1.0" encoding="iso-8859-1"?>
<!-- Generator: Adobe Illustrator 19.0.0, SVG Export Plug-In . SVG Version: 6.00 Build 0)  -->
<svg version="1.1" id="Capa_1" xmlns="http://www.w3.org/2000/svg" xmlns:xlink="http://www.w3.org/1999/xlink" x="0px" y="0px"
	 viewBox="0 0 504 504" style="enable-background:new 0 0 504 504;" xml:space="preserve">
<rect x="350.4" y="127.138" style="fill:#D57B0C;" width="38.4" height="91.2"/>
<path style="fill:#83422D;" d="M398.398,117.535c0,5.301-4.297,9.6-9.598,9.6h-38.402c-5.301,0-9.598-4.299-9.598-9.6v-9.6
	c0-5.303,4.297-9.602,9.598-9.602H388.8c5.301,0,9.598,4.299,9.598,9.602V117.535z"/>
<rect x="350.4" y="127.138" style="fill:#FF9D34;" width="19.2" height="91.2"/>
<rect x="100.8" y="391.139" style="fill:#83422D;" width="297.6" height="48"/>
<g>
	<rect x="100.8" y="275.939" style="fill:#FF9D34;" width="297.6" height="28.797"/>
	<rect x="100.8" y="333.539" style="fill:#FF9D34;" width="297.6" height="28.797"/>
</g>
<g>
	<rect x="129.6" y="304.729" style="fill:#D57B0C;" width="240" height="28.805"/>
	<rect x="129.6" y="362.339" style="fill:#D57B0C;" width="240" height="28.801"/>
</g>
<rect x="105.6" y="218.338" style="fill:#FF9D34;" width="288" height="28.801"/>
<rect x="129.6" y="247.138" style="fill:#D57B0C;" width="240" height="28.801"/>
<g>
	<rect x="220.8" y="103.138" style="fill:#FF9D34;" width="57.6" height="28.801"/>
	<rect x="163.2" y="160.738" style="fill:#FF9D34;" width="172.8" height="28.801"/>
</g>
<g>
	<rect x="192" y="131.938" style="fill:#B86A0A;" width="115.2" height="28.799"/>
	<rect x="134.4" y="189.538" style="fill:#B86A0A;" width="230.4" height="28.799"/>
</g>
<path style="fill:#83422D;" d="M297.602,391.135H201.6V278.878c0-4.277,4.299-7.742,9.6-7.742H288c5.301,0,9.602,3.465,9.602,7.742
	V391.135z"/>
<rect x="220.8" y="290.339" style="fill:#FFEDA2;" width="57.6" height="86.4"/>
<rect x="249.6" y="290.339" style="fill:#F2D087;" width="28.797" height="86.4"/>
<g>
	<rect x="100.8" y="304.729" style="fill:#A6523A;" width="28.799" height="28.805"/>
	<rect x="100.8" y="247.138" style="fill:#A6523A;" width="28.799" height="28.801"/>
	<rect x="100.8" y="362.339" style="fill:#A6523A;" width="28.799" height="28.801"/>
	<rect x="369.6" y="362.339" style="fill:#A6523A;" width="28.797" height="28.801"/>
	<rect x="369.6" y="304.729" style="fill:#A6523A;" width="28.797" height="28.805"/>
	<rect x="369.6" y="247.138" style="fill:#A6523A;" width="28.797" height="28.801"/>
</g>
<path style="fill:#83422D;" d="M297.602,237.535c0,5.299-4.301,9.6-9.602,9.6h-76.801c-5.301,0-9.6-4.301-9.6-9.6v-38.4
	c0-5.301,4.299-9.6,9.6-9.6H288c5.301,0,9.602,4.299,9.602,9.6V237.535z"/>
<rect x="220.8" y="208.738" style="fill:#FFEDA2;" width="57.6" height="19.2"/>
<rect x="249.6" y="208.738" style="fill:#F2D087;" width="28.797" height="19.2"/>
<g>
	<path style="fill:#7FF0E7;" d="M113.676,64.861c14.74,0,29.213,5.908,39.992,15.484c1.49,1.324,2.006,3.432,1.299,5.295
		c-0.709,1.863-2.496,3.094-4.488,3.094h-73.6c-1.992,0-3.777-1.23-4.484-3.094c-0.709-1.863-0.193-3.971,1.295-5.295
		C84.471,70.77,98.943,64.861,113.676,64.861z"/>
	<path style="fill:#7FF0E7;" d="M441.594,164.018c8.078,0,16.031,2.66,22.602,7.156c1.738,1.188,2.496,3.371,1.875,5.381
		c-0.625,2.012-2.484,3.381-4.59,3.381h-39.77c-2.105,0-3.961-1.371-4.586-3.381c-0.621-2.01,0.137-4.193,1.871-5.381
		C425.563,166.678,433.52,164.018,441.594,164.018z"/>
</g>
<path style="fill:#B55A3F;" d="M379.199,410.335H120c-2.65,0-4.801-2.148-4.801-4.797c0-2.652,2.15-4.805,4.801-4.805h259.199
	c2.652,0,4.801,2.152,4.801,4.805C384,408.186,381.852,410.335,379.199,410.335z"/>
<path style="fill:#2CBBA9;" d="M421.555,428.749c-53.016-18.441-113.184-28.016-171.953-28.016
	c-58.773,0-118.295,9.574-171.311,28.016l-29.434,10.387h200.744h201.602L421.555,428.749z"/>
<path style="fill:#0D7E73;" d="M451.203,439.135l-29.648-10.387c-53.016-18.441-113.184-28.016-171.953-28.016v38.402
	L451.203,439.135L451.203,439.135z"/>
<path style="fill:#A84C31;" d="M384,117.535h-28.801c-2.652,0-4.801-2.15-4.801-4.801s2.148-4.799,4.801-4.799H384
	c2.652,0,4.801,2.148,4.801,4.799C388.801,115.385,386.652,117.535,384,117.535z"/>
<path style="fill:#2CBBA9;" d="M470.672,370.229l-24.273,68.906H475.2v-72.113C473.164,367.022,471.348,368.307,470.672,370.229z"/>
<path style="fill:#0D7E73;" d="M475.199,367.022v72.113H504l-24.273-68.906C479.055,368.307,477.234,367.022,475.199,367.022z"/>
<path style="fill:#2CBBA9;" d="M25.189,334.171L0,439.135h28.801V331.327C27.084,331.327,25.592,332.503,25.189,334.171z"/>
<path style="fill:#0D7E73;" d="M28.801,331.327v107.809H57.6L32.41,334.171C32.008,332.503,30.516,331.327,28.801,331.327z"/>
<path style="fill:#A6523A;" d="M242.867,76.32L69.189,249.947c-1.799,1.801-2.813,4.242-2.813,6.785c0,2.551,1.01,4.992,2.813,6.793
	l5.67,5.668c1.875,1.875,4.33,2.813,6.787,2.813c2.436,0,4.871-0.922,6.74-2.766l157.82-155.604
	c0.938-0.938,2.164-1.406,3.395-1.406V73.518C247.164,73.531,244.73,74.461,242.867,76.32z"/>
<path style="fill:#C46247;" d="M86.4,256.733c-2.742,0-4.801-2.242-4.801-4.797c0-1.227,0.469-2.457,1.406-3.395l153.6-153.6
	c0.938-0.938,2.168-1.406,3.395-1.406c2.742,0,4.801,2.242,4.801,4.799c0,1.229-0.473,2.457-1.406,3.395L89.793,255.326
	C88.855,256.264,87.629,256.733,86.4,256.733z"/>
<path style="fill:#83422D;" d="M255.918,76.32l173.477,173.627c1.801,1.801,2.707,4.242,2.707,6.785
	c0,2.551-1.063,4.992-2.867,6.793l-5.691,5.668c-1.875,1.875-4.336,2.813-6.797,2.813c-2.438,0-4.875-0.922-6.746-2.766
	L252.59,113.637c-0.938-0.938-2.988-1.406-2.988-1.406V73.518C249.602,73.531,254.059,74.461,255.918,76.32z"/>
<path style="fill:#C46247;" d="M412.801,256.733c2.742,0,4.801-2.242,4.801-4.797c0-1.227-0.473-2.457-1.406-3.395L262.594,94.94
	c-0.938-0.938-2.164-1.406-3.395-1.406c-2.742,0-4.801,2.242-4.801,4.799c0,1.229,0.469,2.457,1.406,3.395l153.602,153.598
	C410.344,256.264,411.57,256.733,412.801,256.733z"/>
<path style="fill:#FFFFFF;" d="M235.199,338.335c-2.65,0-4.799-2.148-4.799-4.797v-28.805c0-2.648,2.148-4.797,4.799-4.797
	s4.801,2.148,4.801,4.797v28.805C240,336.186,237.85,338.335,235.199,338.335z"/>
<g>
</g>
<g>
</g>
<g>
</g>
<g>
</g>
<g>
</g>
<g>
</g>
<g>
</g>
<g>
</g>
<g>
</g>
<g>
</g>
<g>
</g>
<g>
</g>
<g>
</g>
<g>
</g>
<g>
</g>
</svg>
