<svg id="Layer_1" enable-background="new 0 0 512 512" height="512" viewBox="0 0 512 512" width="512" xmlns="http://www.w3.org/2000/svg"><g><circle cx="404.5" cy="134" fill="#64cc56" r="100"/><path d="m404.5 34c-5.098 0-10.107.384-15 1.12 48.112 7.238 85 48.75 85 98.88s-36.888 91.642-85 98.88c4.893.736 9.902 1.12 15 1.12 55.229 0 100-44.772 100-100 0-55.229-44.771-100-100-100z" fill="#50a645"/><circle cx="317" cy="153" fill="#64cc56" r="65"/><path d="m317 88c-5.165 0-10.183.621-15 1.759 28.663 6.774 50 32.508 50 63.241s-21.337 56.467-50 63.241c4.817 1.138 9.835 1.759 15 1.759 35.898 0 65-29.102 65-65s-29.102-65-65-65z" fill="#50a645"/><path d="m142 58h84v30h-84z" fill="#ff7043"/><path d="m196 58h30v30h-30z" fill="#ff5722"/><path d="m154 88h60v48h-60z" fill="#fdeedf"/><path d="m184 88h30v48h-30z" fill="#f0d6c0"/><path d="m455 446h-398v-231.342l64.688-64.658h269.981l63.331 63.301z" fill="#fdeedf"/><path d="m425 183.315v262.685h30v-232.699z" fill="#f0d6c0"/><path d="m334 303h88v90h-88z" fill="#b2ebf2"/><path d="m392 303h30v90h-30z" fill="#80deea"/><path d="m90 303h88v90h-88z" fill="#b2ebf2"/><path d="m148 303h30v90h-30z" fill="#80deea"/><path d="m488.5 478h-465c-8.837 0-16-7.163-16-16 0-8.837 7.163-16 16-16h465c8.837 0 16 7.163 16 16 0 8.837-7.163 16-16 16z" fill="#a35418"/><path d="m488.5 446h-30c8.837 0 16 7.163 16 16 0 8.837-7.163 16-16 16h30c8.837 0 16-7.163 16-16 0-8.837-7.163-16-16-16z" fill="#8c4815"/><path d="m211 303h90v143h-90z" fill="#bf6724"/><path d="m271 303h30v143h-30z" fill="#a35418"/><path d="m485.607 224.052-83.683-83.661c-2.812-2.812-6.627-4.391-10.604-4.391h-269.286c-3.978 0-7.792 1.58-10.604 4.391l-85.037 85.014c-5.857 5.855-5.857 15.348 0 21.203 2.928 2.928 6.766 4.391 10.604 4.391s7.676-1.464 10.604-4.391l80.644-80.623h256.863l79.29 79.269c5.855 5.855 15.351 5.856 21.208 0 5.858-5.854 5.858-15.347.001-21.202z" fill="#ff7043"/><path d="m297 241.769h-82c-8.837 0-16-7.163-16-16 0-8.837 7.163-16 16-16h82c8.837 0 16 7.163 16 16 0 8.837-7.163 16-16 16z" fill="#b2ebf2"/><path d="m297 209.769h-30c8.837 0 16 7.163 16 16s-7.163 16-16 16h30c8.837 0 16-7.163 16-16s-7.163-16-16-16z" fill="#80deea"/><g><path d="m334 295.5c-4.143 0-7.5 3.358-7.5 7.5v90c0 4.142 3.357 7.5 7.5 7.5h88c4.143 0 7.5-3.358 7.5-7.5v-90c0-4.142-3.357-7.5-7.5-7.5zm7.5 15h29v75h-29zm73 75h-29v-75h29z"/><path d="m178 295.5h-88c-4.143 0-7.5 3.358-7.5 7.5v90c0 4.142 3.357 7.5 7.5 7.5h88c4.143 0 7.5-3.358 7.5-7.5v-90c0-4.142-3.357-7.5-7.5-7.5zm-80.5 15h29v75h-29zm73 75h-29v-75h29z"/><path d="m488.5 438.5h-26v-15.577c0-4.142-3.357-7.5-7.5-7.5s-7.5 3.358-7.5 7.5v15.577h-139v-136.5c0-4.142-3.357-7.5-7.5-7.5h-90c-4.143 0-7.5 3.358-7.5 7.5v136.5h-139v-198.18l66.852-66.834h29.033c4.143 0 7.5-3.358 7.5-7.5s-3.357-7.5-7.5-7.5h-32.14c-1.989 0-3.896.79-5.303 2.196l-80.644 80.623c-1.415 1.415-3.298 2.195-5.301 2.195s-3.886-.78-5.302-2.196c-1.416-1.415-2.195-3.296-2.195-5.297 0-2 .779-3.882 2.195-5.297l85.038-85.016c1.395-1.395 3.326-2.194 5.301-2.194h269.286c2.003 0 3.886.78 5.302 2.196l83.683 83.66c1.415 1.416 2.195 3.297 2.195 5.298s-.78 3.882-2.195 5.297c-2.924 2.923-7.682 2.923-10.604 0l-79.29-79.27c-1.406-1.406-3.314-2.196-5.303-2.196h-192.723c-4.143 0-7.5 3.358-7.5 7.5s3.357 7.5 7.5 7.5h189.617l65.498 65.481v151.956c0 4.142 3.357 7.5 7.5 7.5s7.5-3.358 7.5-7.5v-137.566c8.739 5.845 20.699 4.911 28.41-2.797 4.249-4.249 6.59-9.897 6.59-15.905s-2.341-11.657-6.59-15.906l-9.572-9.57c19.562-20.014 30.662-47.05 30.662-75.178 0-24.618-8.098-47.782-23.418-66.987-2.584-3.238-7.303-3.77-10.54-1.187-3.238 2.583-3.77 7.302-1.187 10.54 13.179 16.521 20.145 36.451 20.145 57.634 0 24.148-9.508 47.361-26.271 64.572l-63.501-63.484c-4.249-4.249-9.898-6.588-15.907-6.588h-6.067c-8.948-24.914-30.992-42.948-56.866-47.094 17.164-24.854 45.441-39.906 76.112-39.906 18.029 0 35.499 5.188 50.521 15.001 3.466 2.264 8.115 1.292 10.381-2.177 2.266-3.468 1.291-8.115-2.176-10.381-17.468-11.411-37.775-17.443-58.726-17.443-38.775 0-74.257 20.699-93.4 54.244-28.14 2.327-52.779 21.133-62.351 47.756h-27.249v-33h4.5c4.143 0 7.5-3.358 7.5-7.5v-30c0-4.142-3.357-7.5-7.5-7.5h-84c-4.143 0-7.5 3.358-7.5 7.5v30c0 4.142 3.357 7.5 7.5 7.5h4.5v33h-24.466c-6.011 0-11.66 2.34-15.907 6.587l-85.037 85.015c-4.249 4.248-6.59 9.896-6.59 15.905s2.341 11.657 6.59 15.906c4.25 4.248 9.898 6.587 15.907 6.587 4.519 0 8.833-1.323 12.503-3.786v183.786h-26c-12.958 0-23.5 10.542-23.5 23.5s10.542 23.5 23.5 23.5h465c12.958 0 23.5-10.542 23.5-23.5s-10.542-23.5-23.5-23.5zm-171.5-343c22.444 0 42.676 13.185 52.035 33h-104.065c9.369-19.796 29.656-33 52.03-33zm-167.5-30h69v15h-69zm12 30h45v33h-45zm57 214h75v129h-75zm270 161h-465c-4.687 0-8.5-3.813-8.5-8.5s3.813-8.5 8.5-8.5h465c4.687 0 8.5 3.813 8.5 8.5s-3.813 8.5-8.5 8.5z"/><path d="m215 202.269c-12.958 0-23.5 10.542-23.5 23.5s10.542 23.5 23.5 23.5h82c12.958 0 23.5-10.542 23.5-23.5s-10.542-23.5-23.5-23.5zm90.5 23.5c0 4.687-3.813 8.5-8.5 8.5h-82c-4.687 0-8.5-3.813-8.5-8.5s3.813-8.5 8.5-8.5h82c4.687 0 8.5 3.813 8.5 8.5z"/></g></g></svg>