<svg id="concrete-brick" enable-background="new 0 0 300 300" height="512" viewBox="0 0 300 300" width="512" xmlns="http://www.w3.org/2000/svg"><g><circle cx="134" cy="136" fill="#eaeaea" r="92"/><g fill="#4c241d"><circle cx="98" cy="100" r="4"/><path d="m66 80c-6.617 0-12-5.383-12-12s5.383-12 12-12 12 5.383 12 12-5.383 12-12 12zm0-16c-2.207 0-4 1.793-4 4s1.793 4 4 4 4-1.793 4-4-1.793-4-4-4z"/><path d="m147.656 85.656c-1.023 0-2.047-.391-2.828-1.172l-11.312-11.312c-1.562-1.562-1.562-4.094 0-5.656s4.094-1.562 5.656 0l11.312 11.312c1.562 1.562 1.562 4.094 0 5.656-.781.782-1.804 1.172-2.828 1.172z"/><path d="m136.344 85.656c-1.023 0-2.047-.391-2.828-1.172-1.562-1.562-1.562-4.094 0-5.656l11.312-11.312c1.562-1.562 4.094-1.562 5.656 0s1.562 4.094 0 5.656l-11.312 11.312c-.781.782-1.805 1.172-2.828 1.172z"/></g><g><path d="m254 128-24 28v96l24-28z" fill="#b5a19c"/><path d="m230 256c-.465 0-.934-.082-1.387-.25-1.57-.578-2.613-2.074-2.613-3.75v-96c0-.953.34-1.879.965-2.602l24-28c1.086-1.273 2.852-1.73 4.422-1.148 1.57.578 2.613 2.074 2.613 3.75v96c0 .953-.34 1.879-.965 2.602l-24 28c-.773.906-1.89 1.398-3.035 1.398zm4-98.52v83.707l16-18.668v-83.707z" fill="#4c241d"/></g><g><path d="m230 156h-184l24-28h184z" fill="#b5a19c"/><path d="m230 160h-184c-1.562 0-2.98-.91-3.633-2.328s-.422-3.09.598-4.273l24-28c.758-.887 1.867-1.399 3.035-1.399h184c1.562 0 2.98.91 3.633 2.328s.422 3.09-.598 4.273l-24 28c-.758.887-1.867 1.399-3.035 1.399zm-175.305-8h173.465l17.145-20h-173.465z" fill="#4c241d"/></g><g><path d="m46 156v96h184v-96zm76 52h-28v-36h28zm92 0h-28v-36h28z" fill="#b5a19c"/><path d="m230 256h-184c-2.211 0-4-1.789-4-4v-96c0-2.211 1.789-4 4-4h184c2.211 0 4 1.789 4 4v96c0 2.211-1.789 4-4 4zm-180-8h176v-88h-176zm164-36h-28c-2.211 0-4-1.789-4-4v-36c0-2.211 1.789-4 4-4h28c2.211 0 4 1.789 4 4v36c0 2.211-1.789 4-4 4zm-24-8h20v-28h-20zm-68 8h-28c-2.211 0-4-1.789-4-4v-36c0-2.211 1.789-4 4-4h28c2.211 0 4 1.789 4 4v36c0 2.211-1.789 4-4 4zm-24-8h20v-28h-20z" fill="#4c241d"/></g><g><path d="m186 172h-32v64h60v-28h-28z" fill="#6b4f5b"/><path d="m214 240h-60c-2.211 0-4-1.789-4-4v-64c0-2.211 1.789-4 4-4h32c2.211 0 4 1.789 4 4v32h24c2.211 0 4 1.789 4 4v28c0 2.211-1.789 4-4 4zm-56-8h52v-20h-24c-2.211 0-4-1.789-4-4v-32h-24z" fill="#4c241d"/></g><path d="m138 240c-2.211 0-4-1.789-4-4v-64c0-2.211 1.789-4 4-4s4 1.789 4 4v64c0 2.211-1.789 4-4 4z" fill="#4c241d"/><path d="m154 240c-1.113 0-2.219-.461-3.012-1.367-1.453-1.66-1.285-4.188.379-5.645l32-28c1.656-1.457 4.184-1.289 5.645.379 1.453 1.66 1.285 4.188-.379 5.645l-32 28c-.758.664-1.695.988-2.633.988z" fill="#4c241d"/><g><path d="m94 172h-32v64h60v-28h-28z" fill="#6b4f5b"/><path d="m122 240h-60c-2.211 0-4-1.789-4-4v-64c0-2.211 1.789-4 4-4h32c2.211 0 4 1.789 4 4v32h24c2.211 0 4 1.789 4 4v28c0 2.211-1.789 4-4 4zm-56-8h52v-20h-24c-2.211 0-4-1.789-4-4v-32h-24z" fill="#4c241d"/></g><path d="m62 240c-1.113 0-2.219-.461-3.012-1.367-1.453-1.66-1.285-4.188.379-5.645l32-28c1.656-1.457 4.184-1.289 5.645.379 1.453 1.66 1.285 4.188-.379 5.645l-32 28c-.758.664-1.695.988-2.633.988z" fill="#4c241d"/></g></svg>