<svg id="Layer_1" enable-background="new 0 0 512 512" height="512" viewBox="0 0 512 512" width="512" xmlns="http://www.w3.org/2000/svg"><g><path d="m378 62h84v30h-84z" fill="#ff7043"/><path d="m432 62h30v30h-30z" fill="#ff5722"/><path d="m390 92h60v142h-60z" fill="#bf6724"/><path d="m420 92h30v142h-30z" fill="#a35418"/><path d="m80 247.699h30v170.301h-30z" fill="#a35418"/><circle cx="95" cy="177" fill="#64cc56" r="83"/><path d="m95 94c-5.125 0-10.132.489-15 1.377 38.675 7.064 68 40.907 68 81.623 0 40.715-29.325 74.559-68 81.622 4.868.889 9.875 1.378 15 1.378 45.84 0 83-37.161 83-83s-37.16-83-83-83z" fill="#50a645"/><path d="m465 418h-300v-188.875l150-115.125 150 115.116z" fill="#bf6724"/><path d="m435 206.093v211.907h30v-188.884z" fill="#a35418"/><path d="m496.132 233.099-171.999-132c-5.387-4.133-12.878-4.133-18.265 0l-171.999 132c-6.572 5.044-7.811 14.46-2.768 21.032 5.044 6.571 14.46 7.81 21.032 2.768l162.867-124.992 162.867 124.992c2.724 2.09 5.935 3.101 9.122 3.101 4.503 0 8.957-2.021 11.911-5.869 5.043-6.571 3.803-15.988-2.768-21.032z" fill="#ffd180"/><path d="m488.5 450h-465c-8.837 0-16-7.163-16-16 0-8.837 7.163-16 16-16h465c8.837 0 16 7.163 16 16 0 8.837-7.163 16-16 16z" fill="#64cc56"/><path d="m488.5 418h-30c8.837 0 16 7.163 16 16 0 8.837-7.163 16-16 16h30c8.837 0 16-7.163 16-16 0-8.837-7.163-16-16-16z" fill="#50a645"/><path d="m334 304h88v60h-88z" fill="#b2ebf2"/><path d="m392 304h30v60h-30z" fill="#80deea"/><circle cx="315" cy="221.538" fill="#b2ebf2" r="35"/><path d="m208 304h90v114h-90z" fill="#ff7043"/><path d="m268 304h30v114h-30z" fill="#ff5722"/><path d="m488.5 410.5h-16v-148.266l.802.615c3.965 3.042 8.697 4.65 13.687 4.65 7.056 0 13.565-3.208 17.861-8.803 7.552-9.842 5.689-23.993-4.151-31.547v-.001l-43.199-33.15v-31.075c0-4.143-3.357-7.5-7.5-7.5s-7.5 3.357-7.5 7.5v19.563l-45-34.535v-48.451h45v31.27c0 4.143 3.357 7.5 7.5 7.5s7.5-3.357 7.5-7.5v-31.27h4.5c4.143 0 7.5-3.357 7.5-7.5v-30c0-4.143-3.357-7.5-7.5-7.5h-84c-4.143 0-7.5 3.357-7.5 7.5v30c0 4.143 3.357 7.5 7.5 7.5h4.5v36.939l-53.803-41.29c-8.064-6.188-19.329-6.189-27.396 0l-116.089 89.092c.191-2.403.287-4.818.287-7.242 0-49.902-40.598-90.5-90.5-90.5s-90.499 40.599-90.499 90.501c0 20.368 6.608 39.604 19.109 55.626 1.479 1.896 3.687 2.887 5.918 2.887 1.613 0 3.238-.518 4.608-1.587 3.266-2.548 3.848-7.261 1.3-10.526-10.424-13.363-15.935-29.407-15.935-46.4 0-41.631 33.869-75.5 75.5-75.5s75.5 33.869 75.5 75.5c0 7.059-.971 14.032-2.885 20.747l-38.313 29.403c-6.615 5.078-9.625 13.137-8.593 20.864-8.207 2.98-16.829 4.486-25.709 4.486-13.254 0-26.288-3.48-37.693-10.066-3.587-2.07-8.174-.844-10.245 2.745-2.071 3.587-.843 8.174 2.745 10.245 7.117 4.11 14.761 7.211 22.693 9.241v145.835h-49c-12.958 0-23.5 10.542-23.5 23.5s10.542 23.5 23.5 23.5h392.68c4.143 0 7.5-3.357 7.5-7.5s-3.357-7.5-7.5-7.5h-392.68c-4.687 0-8.5-3.813-8.5-8.5s3.813-8.5 8.5-8.5h465c4.687 0 8.5 3.813 8.5 8.5s-3.813 8.5-8.5 8.5h-40.115c-4.143 0-7.5 3.357-7.5 7.5s3.357 7.5 7.5 7.5h40.115c12.958 0 23.5-10.542 23.5-23.5s-10.542-23.5-23.5-23.5zm-103-341h69v15h-69zm-80 287v-45h21v45zm36-45h29v45h-29zm44 0h29v45h-29zm44 0h28v45h-28zm28-15h-285v-45.777l28.256-21.685h72.406c3.552 19.87 20.961 35 41.837 35s38.285-15.13 41.837-35h72.407l28.255 21.685v45.777zm-257 60h-28v-45h28zm-72.866-95.062c7.888 7.382 20.218 8.2 29.065 1.412l.801-.615v148.265h-40v-145.812c3.431-.878 6.812-1.963 10.134-3.25zm229.203-47.4c-3.552-19.87-20.961-35-41.837-35s-38.285 15.13-41.837 35h-52.861l94.698-72.677 94.699 72.677zm-49.337 0h-18.96c2.596-9.145 9.816-16.365 18.96-18.96zm0 15.462v18.499c-8.99-2.552-16.12-9.573-18.824-18.499zm15 0h18.824c-2.705 8.925-9.834 15.947-18.824 18.499zm0-15.462v-18.96c9.145 2.596 16.365 9.816 18.96 18.96zm-184.065 25.012 171.999-132c2.689-2.063 6.444-2.063 9.132 0l172 132c3.28 2.518 3.901 7.235 1.385 10.515-1.432 1.865-3.605 2.936-5.962 2.936-1.658 0-3.233-.536-4.555-1.551l-12.683-9.733c-.123-.101-.25-.198-.379-.291l-149.806-114.969c-1.347-1.033-2.957-1.55-4.566-1.55s-3.22.517-4.566 1.55l-149.788 114.955c-.142.102-.281.208-.415.318l-12.664 9.719c-3.281 2.517-7.999 1.896-10.517-1.383-2.517-3.281-1.896-7.999 1.385-10.516zm-50.935 171.45v-143.311c2.489.207 4.991.311 7.5.311 2.518 0 5.019-.102 7.5-.304v143.304zm85-39h28v39h-28zm43 39v-99h75v99zm90 0v-39h152v39z"/></g></svg>