<svg xmlns="http://www.w3.org/2000/svg" height="511.99998pt" version="1.1" viewBox="1 1 511.99998 511.99998" width="511.99998pt">
<g id="surface1">
<path d="M 512 256 C 512 336.925781 474.445312 409.078125 415.816406 455.992188 C 372.015625 491.039062 316.457031 512 256 512 C 195.542969 512 139.984375 491.039062 96.183594 455.992188 C 66.875 432.535156 42.832031 402.777344 26.121094 368.777344 C 23.082031 362.609375 20.300781 356.320312 17.761719 349.894531 C 6.300781 320.816406 0 289.144531 0 256 C 0 222.855469 6.300781 191.183594 17.761719 162.105469 C 39.714844 106.445312 80.625 60.320312 132.523438 31.703125 C 169.136719 11.492188 211.226562 0 256 0 C 349.277344 0 430.90625 49.894531 475.648438 124.449219 C 498.730469 162.890625 512 207.902344 512 256 Z M 512 256 " style=" stroke:none;fill-rule:nonzero;fill:rgb(99.215686%,68.235294%,18.431373%);fill-opacity:1;" />
<path d="M 512 256 C 512 336.925781 474.445312 409.078125 415.816406 455.992188 L 96.183594 455.992188 C 61.566406 428.292969 34.292969 391.796875 17.761719 349.894531 L 17.761719 249.648438 L 54.042969 187.863281 L 132.523438 124.449219 L 475.648438 124.449219 C 498.730469 162.890625 512 207.902344 512 256 Z M 512 256 " style=" stroke:none;fill-rule:nonzero;fill:rgb(86.27451%,92.54902%,97.647059%);fill-opacity:1;" />
<path d="M 152.554688 124.449219 L 152.554688 455.992188 L 96.183594 455.992188 C 61.566406 428.292969 34.292969 391.796875 17.761719 349.894531 L 17.761719 249.648438 L 54.042969 187.863281 L 132.523438 124.449219 Z M 152.554688 124.449219 " style=" stroke:none;fill-rule:nonzero;fill:rgb(68.627451%,76.078431%,92.156863%);fill-opacity:1;" />
<path d="M 132.523438 9.6875 L 132.523438 341.222656 L 75.136719 341.222656 C 54.375 341.222656 36.183594 352.257812 26.121094 368.777344 C 23.082031 362.609375 20.300781 356.320312 17.761719 349.894531 L 17.761719 67.070312 C 17.761719 35.378906 43.445312 9.6875 75.136719 9.6875 Z M 132.523438 9.6875 " style=" stroke:none;fill-rule:nonzero;fill:rgb(86.27451%,92.54902%,97.647059%);fill-opacity:1;" />
<path d="M 362.625 367.363281 L 216.246094 367.363281 L 216.246094 242.957031 L 233.828125 242.957031 L 233.828125 349.785156 L 345.046875 349.785156 L 345.046875 242.957031 L 362.625 242.957031 Z M 362.625 367.363281 " style=" stroke:none;fill-rule:nonzero;fill:rgb(16.470588%,25.098039%,47.843137%);fill-opacity:1;" />
<path d="M 382.84375 246.808594 L 289.4375 182.308594 L 196.03125 246.808594 L 186.042969 232.34375 L 289.4375 160.945312 L 392.832031 232.34375 Z M 382.84375 246.808594 " style=" stroke:none;fill-rule:nonzero;fill:rgb(16.470588%,25.098039%,47.843137%);fill-opacity:1;" />
<path d="M 322.566406 325.785156 L 256.308594 325.785156 L 256.308594 259.523438 L 322.566406 259.523438 Z M 273.886719 308.203125 L 304.988281 308.203125 L 304.988281 277.101562 L 273.886719 277.101562 Z M 273.886719 308.203125 " style=" stroke:none;fill-rule:nonzero;fill:rgb(16.470588%,25.098039%,47.843137%);fill-opacity:1;" />
<path d="M 232.671875 192.925781 L 215.089844 192.925781 L 215.089844 146.566406 L 260.054688 146.566406 L 260.054688 174.878906 L 242.472656 174.878906 L 242.472656 164.148438 L 232.671875 164.148438 Z M 232.671875 192.925781 " style=" stroke:none;fill-rule:nonzero;fill:rgb(16.470588%,25.098039%,47.843137%);fill-opacity:1;" />
<path d="M 400.121094 406.4375 L 361.324219 384.035156 L 361.324219 401.210938 L 217.929688 401.210938 L 217.929688 384.035156 L 179.136719 406.4375 L 217.929688 428.839844 L 217.929688 411.660156 L 361.324219 411.660156 L 361.324219 428.839844 Z M 400.121094 406.4375 " style=" stroke:none;fill-rule:nonzero;fill:rgb(94.901961%,26.27451%,33.333333%);fill-opacity:1;" />
<path d="M 431.476562 390.503906 L 453.878906 351.707031 L 436.703125 351.707031 L 436.703125 208.316406 L 453.878906 208.316406 L 431.476562 169.519531 L 409.074219 208.316406 L 426.253906 208.316406 L 426.253906 351.707031 L 409.074219 351.707031 Z M 431.476562 390.503906 " style=" stroke:none;fill-rule:nonzero;fill:rgb(94.901961%,26.27451%,33.333333%);fill-opacity:1;" />
</g>
</svg>