<svg height="512pt" viewBox="0 0 512 512" width="512pt" xmlns="http://www.w3.org/2000/svg" xmlns:xlink="http://www.w3.org/1999/xlink"><linearGradient id="a" gradientUnits="userSpaceOnUse" x1="255.9999746681" x2="255.9999746681" y1=".0000997491" y2="511.6560655871"><stop offset="0" stop-color="#2af598"/><stop offset="1" stop-color="#009efd"/></linearGradient><path d="m431.890625 351.757812h39.972656v39.972657h-39.972656zm-351.78125 0h-39.972656v39.972657h39.972656zm154.902344 159.898438h39.976562v-39.976562h-39.976562zm196.878906-39.976562h-38.976563v39.976562h38.976563c22.074219 0 39.972656-17.898438 39.972656-39.976562v-39.972657h-39.972656zm-118.925781 39.976562h39.972656v-39.976562h-39.972656zm-155.902344 0h39.972656v-39.976562h-39.972656zm77.949219-199.875h39.976562v-39.972656h-39.976562zm77.953125 0h39.972656v-39.972656h-39.972656zm-155.902344 0h39.972656v-39.972656h-39.972656zm-76.953125 119.925781h-39.972656v39.972657c0 22.078124 17.898437 39.976562 39.972656 39.976562h37.976563v-39.976562h-37.976563zm431.890625-219.496093-256-212.210938-256 212.210938 25.511719 30.773437 14.625-12.121094v80.917969h77.949219v-39.976562h-37.976563v-74.078126l175.890625-145.804687 175.890625 145.804687v74.078126h-38.976563v39.976562h78.949219v-80.917969l14.625 12.121094zm0 0" fill="url(#a)"/></svg>