<svg xmlns="http://www.w3.org/2000/svg" height="512pt" version="1.1" viewBox="0 0 512 512.00051" width="512pt">
<g id="surface1">
<path d="M 512 256 C 512 397.386719 397.386719 512 256 512 C 173.609375 512 100.300781 473.078125 53.476562 412.609375 C 46.886719 404.105469 40.8125 395.160156 35.328125 385.847656 C 31.335938 379.078125 27.636719 372.109375 24.285156 364.953125 C 8.703125 331.890625 0 294.953125 0 256 C 0 114.613281 114.613281 0 256 0 C 397.386719 0 512 114.613281 512 256 Z M 512 256 " style=" stroke:none;fill-rule:nonzero;fill:rgb(99.215686%,68.235294%,18.431373%);fill-opacity:1;" />
<path d="M 511.996094 254.410156 C 512.855469 395.753906 400.160156 510.464844 258.816406 511.984375 C 172.664062 512.914062 96.183594 471.273438 49.109375 406.808594 C 49.109375 395.234375 58.496094 385.847656 70.070312 385.847656 L 197.484375 385.847656 L 197.484375 304.410156 C 197.484375 292.832031 206.871094 283.449219 218.445312 283.449219 L 345.863281 283.449219 L 345.863281 202.011719 C 345.863281 190.433594 355.246094 181.050781 366.820312 181.050781 L 511.996094 160.152344 C 511.996094 176.261719 511.839844 228.894531 511.996094 254.410156 Z M 511.996094 254.410156 " style=" stroke:none;fill-rule:nonzero;fill:rgb(30.588235%,29.019608%,31.764706%);fill-opacity:1;" />
<path d="M 310.363281 160.152344 L 511.996094 160.152344 L 511.996094 207.804688 L 310.363281 207.804688 Z M 310.363281 160.152344 " style=" stroke:none;fill-rule:nonzero;fill:rgb(94.901961%,26.27451%,33.333333%);fill-opacity:1;" />
<path d="M 165.125 262.550781 L 345.863281 262.550781 L 345.863281 310.207031 L 165.125 310.207031 Z M 165.125 262.550781 " style=" stroke:none;fill-rule:nonzero;fill:rgb(94.901961%,26.27451%,33.333333%);fill-opacity:1;" />
<path d="M 197.484375 364.953125 L 197.484375 412.609375 L 53.476562 412.609375 C 46.886719 404.105469 40.8125 395.160156 35.328125 385.847656 C 31.335938 379.078125 27.636719 372.109375 24.285156 364.953125 Z M 197.484375 364.953125 " style=" stroke:none;fill-rule:nonzero;fill:rgb(94.901961%,26.27451%,33.333333%);fill-opacity:1;" />
</g>
</svg>