<svg id="house" enable-background="new 0 0 300 300" height="512" viewBox="0 0 300 300" width="512" xmlns="http://www.w3.org/2000/svg"><g><circle cx="180" cy="144" fill="#eaeaea" r="92"/><path d="m257.656 61.656c-1.023 0-2.047-.391-2.828-1.172l-11.312-11.312c-1.562-1.562-1.562-4.094 0-5.656s4.094-1.562 5.656 0l11.312 11.312c1.562 1.562 1.562 4.094 0 5.656-.781.782-1.804 1.172-2.828 1.172z" fill="#4c241d"/><path d="m246.344 61.656c-1.023 0-2.047-.391-2.828-1.172-1.562-1.562-1.562-4.094 0-5.656l11.312-11.312c1.562-1.562 4.094-1.562 5.656 0s1.562 4.094 0 5.656l-11.312 11.312c-.781.782-1.805 1.172-2.828 1.172z" fill="#4c241d"/><circle cx="240" cy="104" fill="#4c241d" r="4"/><g><path d="m220 256h-152v-120l76-72 76 72z" fill="#fff"/><path d="m220 260h-152c-2.211 0-4-1.791-4-4v-120c0-1.098.453-2.148 1.25-2.904l76-72c1.539-1.461 3.961-1.461 5.5 0l76 72c.797.756 1.25 1.807 1.25 2.904v120c0 2.209-1.789 4-4 4zm-148-8h144v-114.279l-72-68.211-72 68.211z" fill="#4c241d"/></g><g><path d="m184 68h28v48h-28z" fill="#b5a19c"/><path d="m212 120h-28c-2.211 0-4-1.791-4-4v-48c0-2.209 1.789-4 4-4h28c2.211 0 4 1.791 4 4v48c0 2.209-1.789 4-4 4zm-24-8h20v-40h-20z" fill="#4c241d"/></g><g><path d="m239.998 168c-2.965 0-5.934-1.09-8.254-3.293l-88.777-84.172-88.777 84.172c-4.809 4.566-12.402 4.359-16.965-.449-4.559-4.812-4.357-12.406.453-16.965l97.033-92c4.629-4.391 11.883-4.391 16.512 0l97.033 92c4.811 4.559 5.012 12.152.453 16.965-2.359 2.488-5.533 3.742-8.711 3.742z" fill="#e66353"/><path d="m45.949 172.002c-.148 0-.293-.002-.441-.006-4.27-.113-8.242-1.885-11.184-4.984-2.941-3.105-4.5-7.166-4.387-11.438.117-4.273 1.887-8.246 4.992-11.186l97.027-91.998c6.176-5.861 15.844-5.85 22.02 0l97.035 92c6.395 6.064 6.668 16.211.605 22.617-3.011 3.175-7.241 4.993-11.616 4.993-4.117 0-8.027-1.561-11.012-4.393l-86.02-81.561-86.027 81.562c-2.992 2.843-6.882 4.394-10.992 4.394zm97.016-116.002c-1.977 0-3.957.732-5.5 2.195l-97.031 92c-1.555 1.471-2.441 3.457-2.496 5.592-.059 2.135.719 4.166 2.191 5.719 1.473 1.551 3.457 2.438 5.594 2.494 2.242.025 4.164-.723 5.711-2.193l88.781-84.174c1.547-1.469 3.961-1.463 5.508 0l88.773 84.172c3.094 2.941 8.367 2.801 11.312-.299 3.031-3.203 2.895-8.277-.305-11.311l-97.035-92c-1.542-1.463-3.523-2.195-5.503-2.195z" fill="#4c241d"/></g><g><path d="m160 176h44v44h-44z" fill="#c1dbdc"/><path d="m204 224h-44c-2.211 0-4-1.791-4-4v-44c0-2.209 1.789-4 4-4h44c2.211 0 4 1.791 4 4v44c0 2.209-1.789 4-4 4zm-40-8h36v-36h-36z" fill="#4c241d"/></g><path d="m268 260h-236c-2.211 0-4-1.791-4-4s1.789-4 4-4h236c2.211 0 4 1.791 4 4s-1.789 4-4 4z" fill="#4c241d"/><path d="m76 64c-6.617 0-12-5.383-12-12s5.383-12 12-12 12 5.383 12 12-5.383 12-12 12zm0-16c-2.207 0-4 1.795-4 4s1.793 4 4 4 4-1.795 4-4-1.793-4-4-4z" fill="#4c241d"/><g><path d="m68 176h72v80h-72z" fill="#e66353"/><path d="m140 260h-72c-2.211 0-4-1.791-4-4v-80c0-2.209 1.789-4 4-4h72c2.211 0 4 1.791 4 4v80c0 2.209-1.789 4-4 4zm-68-8h64v-72h-64z" fill="#4c241d"/></g><g fill="#4c241d"><path d="m68 232h72v8h-72z"/><path d="m68 212h72v8h-72z"/><path d="m88 216h8v20h-8z"/><path d="m112 236h8v20h-8z"/><path d="m68 192h72v8h-72z"/><path d="m88 176h8v20h-8z"/><path d="m112 196h8v20h-8z"/></g></g></svg>