<svg id="Capa_1" enable-background="new 0 0 512 512" height="512" viewBox="0 0 512 512" width="512" xmlns="http://www.w3.org/2000/svg"><g><path d="m231 210h50v92h-50z"/><path d="m241 387c0-8.284 6.716-15 15-15h45v-40h-240v165c0 8.284 6.716 15 15 15h105v-65c0-8.284 6.716-15 15-15h45z"/><path d="m331 332v55c0 8.284-6.716 15-15 15h-45v45c0 8.284-6.716 15-15 15h-45v50h225c3.979 0 7.793-1.581 10.606-4.394s4.394-6.628 4.394-10.606l-.001-165z"/><path d="m371 30h15v18.742l60 45v-63.742h15c8.284 0 15-6.716 15-15s-6.716-15-15-15h-90c-8.284 0-15 6.716-15 15s6.716 15 15 15z"/><path d="m499.999 171.742-217.008-162.756c-15.893-11.904-38.09-11.904-53.989.005l-217.001 162.751c-7.555 5.666-12.001 14.558-12.001 24.001 0 24.723 28.225 38.835 48.003 24.001l198.997-149.25c5.333-4 12.667-4 18 0l198.997 149.251c19.778 14.834 48.003.721 48.003-24.001 0-9.444-4.446-18.336-12.001-24.002z"/><path d="m450.999 302v-54.504l-194.999-146.252-195 146.253v54.503h140v-107c0-8.284 6.716-15 15-15h80c8.284 0 15 6.716 15 15v107z"/></g></svg>