<svg xmlns="http://www.w3.org/2000/svg" height="511.99914pt" version="1.1" viewBox="1 1 511.99914 511.99914" width="511.99914pt">
<g id="surface1">
<path d="M 349.867188 452.265625 L 8.53125 452.265625 L 8.53125 503.464844 L 503.464844 503.464844 L 503.464844 452.265625 Z M 349.867188 452.265625 " style=" stroke:none;fill-rule:nonzero;fill:rgb(34.117647%,33.72549%,36.078431%);fill-opacity:1;" />
<path d="M 128 162.132812 L 59.734375 162.132812 L 59.734375 452.265625 L 128 452.265625 Z M 128 162.132812 " style=" stroke:none;fill-rule:nonzero;fill:rgb(67.45098%,67.058824%,69.411765%);fill-opacity:1;" />
<path d="M 349.867188 384 L 349.867188 162.132812 L 281.601562 162.132812 L 281.601562 452.265625 L 349.867188 452.265625 Z M 349.867188 384 " style=" stroke:none;fill-rule:nonzero;fill:rgb(67.45098%,67.058824%,69.411765%);fill-opacity:1;" />
<path d="M 349.867188 452.265625 L 486.398438 452.265625 L 486.398438 384 L 349.867188 384 Z M 349.867188 452.265625 " style=" stroke:none;fill-rule:nonzero;fill:rgb(50.588235%,50.196078%,52.156863%);fill-opacity:1;" />
<path d="M 349.867188 384 L 452.265625 384 L 452.265625 332.800781 L 349.867188 332.800781 Z M 349.867188 384 " style=" stroke:none;fill-rule:nonzero;fill:rgb(77.647059%,77.254902%,79.215686%);fill-opacity:1;" />
<path d="M 349.867188 281.601562 L 418.132812 281.601562 L 418.132812 332.800781 L 349.867188 332.800781 Z M 349.867188 281.601562 " style=" stroke:none;fill-rule:nonzero;fill:rgb(84.705882%,84.313725%,85.490196%);fill-opacity:1;" />
<path d="M 503.464844 443.734375 L 494.933594 443.734375 L 494.933594 384 C 494.933594 379.289062 491.113281 375.464844 486.398438 375.464844 L 460.800781 375.464844 L 460.800781 332.800781 C 460.800781 328.085938 456.980469 324.265625 452.265625 324.265625 L 426.667969 324.265625 L 426.667969 281.601562 C 426.667969 276.886719 422.847656 273.066406 418.132812 273.066406 L 358.398438 273.066406 L 358.398438 8.53125 C 358.398438 3.820312 354.578125 0 349.867188 0 C 345.15625 0 341.335938 3.820312 341.335938 8.53125 L 341.335938 153.601562 L 324.265625 153.601562 L 324.265625 8.53125 C 324.265625 3.820312 320.445312 0 315.734375 0 C 311.023438 0 307.199219 3.820312 307.199219 8.53125 L 307.199219 153.601562 L 290.132812 153.601562 L 290.132812 8.53125 C 290.132812 3.820312 286.3125 0 281.601562 0 C 276.886719 0 273.066406 3.820312 273.066406 8.53125 L 273.066406 443.734375 L 136.535156 443.734375 L 136.535156 8.53125 C 136.535156 3.820312 132.710938 0 128 0 C 123.289062 0 119.46875 3.820312 119.46875 8.53125 L 119.46875 153.601562 L 102.398438 153.601562 L 102.398438 8.53125 C 102.398438 3.820312 98.578125 0 93.867188 0 C 89.15625 0 85.335938 3.820312 85.335938 8.53125 L 85.335938 153.601562 L 68.265625 153.601562 L 68.265625 8.53125 C 68.265625 3.820312 64.445312 0 59.734375 0 C 55.019531 0 51.199219 3.820312 51.199219 8.53125 L 51.199219 443.734375 L 8.53125 443.734375 C 3.820312 443.734375 0 447.554688 0 452.265625 L 0 503.464844 C 0 508.179688 3.820312 512 8.53125 512 L 503.464844 512 C 508.179688 512 512 508.179688 512 503.464844 L 512 452.265625 C 512 447.554688 508.179688 443.734375 503.464844 443.734375 Z M 477.867188 443.734375 L 358.398438 443.734375 L 358.398438 392.53125 L 477.867188 392.53125 Z M 443.734375 375.464844 L 358.398438 375.464844 L 358.398438 341.332031 L 443.734375 341.332031 Z M 409.601562 290.132812 L 409.601562 324.265625 L 358.398438 324.265625 L 358.398438 290.132812 Z M 290.132812 170.667969 L 341.332031 170.667969 L 341.332031 443.734375 L 290.132812 443.734375 Z M 68.265625 170.667969 L 119.464844 170.667969 L 119.464844 443.734375 L 68.265625 443.734375 Z M 494.933594 494.933594 L 17.066406 494.933594 L 17.066406 460.800781 L 494.933594 460.800781 Z M 494.933594 494.933594 " style=" stroke:none;fill-rule:nonzero;fill:rgb(13.72549%,12.156863%,12.54902%);fill-opacity:1;" />
</g>
</svg>