<svg height="512pt" viewBox="0 0 512 512" width="512pt" xmlns="http://www.w3.org/2000/svg" xmlns:xlink="http://www.w3.org/1999/xlink"><linearGradient id="a" gradientUnits="userSpaceOnUse" x1="0" x2="512" y1="256" y2="256"><stop offset="0" stop-color="#00f38d"/><stop offset="1" stop-color="#009eff"/></linearGradient><path d="m512 256c0 141.386719-114.613281 256-256 256s-256-114.613281-256-256 114.613281-256 256-256 256 114.613281 256 256zm0 0" fill="url(#a)"/><g fill="#fff"><path d="m371.949219 294.421875h26.355469v26.351563h-26.355469zm0 0"/><path d="m113.695312 294.421875h26.355469v26.351563h-26.355469zm0 0"/><path d="m242.164062 373.480469h26.355469v26.351562h-26.355469zm0 0"/><path d="m371.949219 373.480469h-25.691407v26.351562h25.691407c14.554687 0 26.355469-11.796875 26.355469-26.351562v-26.351563h-26.355469zm0 0"/><path d="m293.550781 373.480469h26.355469v26.351562h-26.355469zm0 0"/><path d="m190.777344 373.480469h26.355468v26.351562h-26.355468zm0 0"/><path d="m242.164062 241.71875h26.355469v26.351562h-26.355469zm0 0"/><path d="m293.550781 241.71875h26.355469v26.351562h-26.355469zm0 0"/><path d="m190.777344 241.71875h26.355468v26.351562h-26.355468zm0 0"/><path d="m140.050781 347.128906h-26.355469v26.351563c0 14.554687 11.796876 26.351562 26.355469 26.351562h25.035157v-26.351562h-25.035157zm0 0"/><path d="m427.328125 202.191406-171.328125-142.023437-171.328125 142.023437 19.144531 23.09375 9.878906-8.1875v50.972656h51.390626v-26.351562h-25.035157v-46.46875l115.949219-96.117188 115.949219 96.117188v46.46875h-25.691407v26.351562h52.046876v-50.972656l9.878906 8.1875zm0 0"/></g></svg>