<svg height="512pt" viewBox="0 0 512 512" width="512pt" xmlns="http://www.w3.org/2000/svg" xmlns:xlink="http://www.w3.org/1999/xlink"><linearGradient id="a" gradientUnits="userSpaceOnUse" x1="0" x2="512" y1="256" y2="256"><stop offset="0" stop-color="#00f1ff"/><stop offset=".231" stop-color="#00d8ff"/><stop offset=".5138" stop-color="#00c0ff"/><stop offset=".7773" stop-color="#00b2ff"/><stop offset="1" stop-color="#00adff"/></linearGradient><path d="m512 256c0 141.386719-114.613281 256-256 256s-256-114.613281-256-256 114.613281-256 256-256 256 114.613281 256 256zm0 0" fill="url(#a)"/><g fill="#fff"><path d="m414.710938 220.394531-130.746094-131.605469c-.199219-.203124-.40625-.398437-.621094-.589843-15.207031-13.652344-38.1875-13.703125-53.449219-.109375-.210937.1875-.417969.382812-.621093.585937l-131.9375 131.675781c-5.863282 5.851563-5.871094 15.347657-.019532 21.210938 5.851563 5.863281 15.351563 5.871094 21.210938.023438l5.777344-5.765626v42.828126c0 8.285156 6.714843 15 15 15h18.191406c8.285156 0 15-6.714844 15-15 0-8.285157-6.714844-15-15-15h-3.191406v-57.769532l95.792968-95.601562c3.753906-3.132813 9.210938-3.121094 12.953125.027344l94.644531 95.269531v58.074219h-2.566406c-8.28125 0-15 6.714843-15 15 0 8.285156 6.71875 15 15 15h17.566406c8.285157 0 15-6.714844 15-15v-42.875l5.730469 5.765624c2.933594 2.949219 6.785157 4.425782 10.640625 4.425782 3.824219 0 7.648438-1.449219 10.574219-4.355469 5.875-5.839844 5.90625-15.335937.070313-21.214844zm0 0"/><path d="m372.695312 313.84375c-8.28125 0-15 6.714844-15 15v45.230469h-2.566406c-8.28125 0-15 6.714843-15 15 0 8.28125 6.71875 15 15 15h17.566406c8.285157 0 15-6.71875 15-15v-60.230469c0-8.285156-6.714843-15-15-15zm0 0"/><path d="m157.496094 374.074219h-3.191406v-45.230469c0-8.285156-6.71875-15-15-15-8.285157 0-15 6.714844-15 15v60.230469c0 8.28125 6.714843 15 15 15h18.191406c8.285156 0 15-6.71875 15-15 0-8.285157-6.714844-15-15-15zm0 0"/><path d="m268.546875 389.074219c0 6.929687-5.617187 12.546875-12.546875 12.546875s-12.546875-5.617188-12.546875-12.546875c0-6.929688 5.617187-12.546875 12.546875-12.546875s12.546875 5.617187 12.546875 12.546875zm0 0"/><path d="m304.9375 376.527344c-6.929688 0-12.546875 5.617187-12.546875 12.546875 0 6.929687 5.617187 12.546875 12.546875 12.546875s12.546875-5.617188 12.546875-12.546875c0-6.929688-5.617187-12.546875-12.546875-12.546875zm0 0"/><path d="m207.0625 376.527344c-6.929688 0-12.546875 5.617187-12.546875 12.546875 0 6.929687 5.617187 12.546875 12.546875 12.546875s12.546875-5.617188 12.546875-12.546875c0-6.929688-5.617187-12.546875-12.546875-12.546875zm0 0"/><path d="m268.546875 278.648438c0 6.929687-5.617187 12.550781-12.546875 12.550781s-12.546875-5.621094-12.546875-12.550781c0-6.929688 5.617187-12.546876 12.546875-12.546876s12.546875 5.617188 12.546875 12.546876zm0 0"/><path d="m304.9375 266.101562c-6.929688 0-12.546875 5.617188-12.546875 12.546876 0 6.929687 5.617187 12.550781 12.546875 12.550781s12.546875-5.621094 12.546875-12.550781c0-6.929688-5.617187-12.546876-12.546875-12.546876zm0 0"/><path d="m207.0625 266.101562c-6.929688 0-12.546875 5.617188-12.546875 12.546876 0 6.929687 5.617187 12.550781 12.546875 12.550781s12.546875-5.621094 12.546875-12.550781c0-6.929688-5.617187-12.546876-12.546875-12.546876zm0 0"/></g></svg>