<svg height="512" viewBox="0 0 64 64" width="512" xmlns="http://www.w3.org/2000/svg"><g id="house-stay_at_home-coronavirus-covid-covid19-2" data-name="house-stay at home-coronavirus-covid-covid19"><path d="m58 28v33h-52v-33l26-15z" fill="#d9ccbc"/><circle cx="46" cy="46" fill="#ff5023" r="15"/><path d="m56 7v11l-8-1v-10z" fill="#ffdaaa"/><path d="m61 20v6l-29-17-29 17v-6l29-17z" fill="#ff9811"/><path d="m13 39h14v22h-14z" fill="#e9e9ea"/><path d="m56.5 41.5-13.5 13.5-8-7 3-4 5 4 10-10z" fill="#fff"/><path d="m32 25h6v4h-6z" fill="#2488ff"/><path d="m32 21h6v4h-6z" fill="#57a4ff"/><path d="m26 25h6v4h-6z" fill="#57a4ff"/><path d="m26 21h6v4h-6z" fill="#2488ff"/><path d="m16 46h2v4h-2z" fill="#3e3d42"/></g></svg>